<mxfile host="Electron" modified="2024-02-01T12:41:23.674Z" agent="Mozilla/5.0 (Macintosh; Intel Mac OS X 10_15_7) AppleWebKit/537.36 (KHTML, like Gecko) draw.io/22.0.2 Chrome/114.0.5735.289 Electron/25.8.4 Safari/537.36" etag="ut11wsVGiFBnJjvzRH0J" version="22.0.2" type="device">
  <diagram name="Страница — 1" id="_EHWpFUE3hB5ZA60_Vyx">
    <mxGraphModel dx="2228" dy="1411" grid="1" gridSize="10" guides="1" tooltips="1" connect="1" arrows="1" fold="1" page="1" pageScale="1" pageWidth="827" pageHeight="1169" math="0" shadow="0">
      <root>
        <mxCell id="0" />
        <mxCell id="1" parent="0" />
        <mxCell id="OH8x0ckIfO6NYU9lgbXt-14" value="" style="shape=image;verticalLabelPosition=bottom;labelBackgroundColor=default;verticalAlign=top;aspect=fixed;imageAspect=0;image=data:image/jpeg,/9j/4AAQSkZJRgABAQEAeAB4AAD/2wBDABEMDQ8NCxEPDg8TEhEUGSocGRcXGTQlJx8qPTZBQDw2OzpETGJTREhcSTo7VXRWXGVobW5tQlJ4gHdqf2JrbWn/2wBDARITExkWGTIcHDJpRjtGaWlpaWlpaWlpaWlpaWlpaWlpaWlpaWlpaWlpaWlpaWlpaWlpaWlpaWlpaWlpaWlpaWn//gA8Q1JFQVRPUjogZ2QtanBlZyB2MS4wICh1c2luZyBJSkcgSlBFRyB2NjIpLCBxdWFsaXR5ID0gOTAKAP/AABEIAoAEAAMBIgACEQEDEQH/xAAfAAABBQEBAQEBAQAAAAAAAAAAAQIDBAUGBwgJCgv/xAC1EAACAQMDAgQDBQUEBAAAAX0BAgMABBEFEiExQQYTUWEHInEUMoGRoQgjQrHBFVLR8CQzYnKCCQoWFxgZGiUmJygpKjQ1Njc4OTpDREVGR0hJSlNUVVZXWFlaY2RlZmdoaWpzdHV2d3h5eoOEhYaHiImKkpOUlZaXmJmaoqOkpaanqKmqsrO0tba3uLm6wsPExcbHyMnK0tPU1dbX2Nna4eLj5OXm5+jp6vHy8/T19vf4+fr/xAAfAQADAQEBAQEBAQEBAAAAAAAAAQIDBAUGBwgJCgv/xAC1EQACAQIEBAMEBwUEBAABAncAAQIDEQQFITEGEkFRB2FxEyIygQgUQpGhscEJIzNS8BVictEKFiQ04SXxFxgZGiYnKCkqNTY3ODk6Q0RFRkdISUpTVFVWV1hZWmNkZWZnaGlqc3R1dnd4eXqCg4SFhoeIiYqSk5SVlpeYmZqio6Slpqeoqaqys7S1tre4ubrCw8TFxsfIycrS09TV1tfY2dri4+Tl5ufo6ery8/T19vf4+fr/2gAMAwEAAhEDEQA/AOGBqaOoQtTxLUSJJGOBUDSGp5BgVVI5qYgJmnKaNtKBzVgTRnBrXsrjaRWQi1dthlhWd7MTOwsptyjFacZyKw9NztArbi6V1p3RCJRS0gpaRQUooFLSGFLRRQMKKWikA000080w1SJY00UGkNUSFLTaKYh1Lmm0tAx1KKYKWpGOpc02iiw7j80ZpuaKVguOzSE0ZqNmoC4/dSg1Bu5qRTQBIKWkFLSGLSNS01qBkElUpRzV2SqUvWsKhpEjpyvimmmMaxTsaMvRTCrSyisVXKnrViOb3reMjJo1hKKa0wqh5+BUUtz71pdEalyS4A71UkugO9Upbg1VeR26U+dIXK2XZLzHeq0l/jvVVkdqjNuT1qXVQKmx8moHtVZ7yRqlNv7Uxofap9oVyEKyOzcmr0HOKqrHhqvQL0qJO5UVYuwrVgLUcQ4qcVkaigU6gUZpgBNNNKaTFADaSnYppFIBDTQBSkUoFMBVFSADFIq07FMBpop2KTFIAFLQKXFACYqGUcVPio5BQBlXKZBrKliO6t6WPNVGgyelUpWJcbmV5JpwiYdK1Bbe1OFt7VXOTyGaokXvUySyL61dFt7Uv2b2o9oHIiOO5YdatxXXvUItvanC3I6U/ai9mX47j3oln+XrVPayiq88zKDmn7RCcLEd9ccHmsOeTJyanu7nkis53z3rGXvMga7c1GWpHNMBzVpDL1sxzWlF05rLtu1aUbcVzVVqBKWAqKSQVHK+KpyTGphC4h8r81BvyaieUsakiG410ctkBKmaecipEj4p5TisnLUZVY1A/NW2SozHzVxkgKezJqxDFyKf5eDUicVUp6ASiL5arzR4q2H4qvMcisot3AqpwasoarfxVKprWSuBLmo3IoLcVC7UkgFLUzNMY0CtLASIcnNTqeKrqcU5W5qWrgWMZprAg1JEc090BFZ3swIEPNOfkUojpdtF0BWKEmmshAq6sdI0YJqlMDMZDmm4xWg8Y9KqyrtrWM7gRCpFqMGpY+abACtNxg1Ps4pAgqeYCSHtV2PpVWIYNWFOKwnqIm7VE45p4OaRulTF2GVnqB6nkqNoX8jze2cVsmhlQLipUOKUIaRxtFXe4hksmahDZNDkmmjrVpWQyYUoHNIozVhI8ipbsAgqzbNiQVHs4p0alWBrO5LOr05l2itmJxgVy9jdBQAa2Le6UjrXXCSaI2NYGlqvFJuqcHNUUOopKM0DHUtMzSg0gHiikBooGBpppxppoENNIaU0lUiWJRRRVCCilooEFLSUUALRRRSGLRSUtAAelQStipieKp3L4zRYGwD81aiOayROM9auwTDApCTL9Gah80YprTAUWKuWNwpjPVVrgDvULXA9aTQXLEj1Wc5NMafPem781zVGbwFNMIpc0ZrE0GbaUAinCnDFO9gIzuNMMZPWrHFHFHMxWRW8ilEA9KsUtFxlfyB6UhhFWKDSuBUaEelQyRCrrGoJDTuBRaPDVNCKa/WnxdaLgXYqnFQRVYAoGGaQmnbaCtMBoNOFJtpwFAgxTSKfRigRFilAqXbRtoGNFOpdtGKAGk0lPxSbaAExS0AUuKAEpj1IajakBCy0zYM1I1NHWkMAgpQgoFOFABsFLsFKKKAECCl2ilooARkGKzrxRg1pMeKzr1sKaTE9jlr4ESGqmau3nzOaqBea0i9DnZG1IBzUrIaVIs1V9AJIBWhGeKqImB0qdDiueeoBNyDWfLV+Q8VQm61dMCDvV62HFUgeau2/arqbAXhgCmFhTWfAqs0nNc6jcRYLCmAjNQhsmnLV8thkuAajOc8U8U5VpXsIYM01xxUtMY5ppjKpXmnjpTtvNJitLgIeahfipyKglpxAgJ5pytmozyakiXJrV7AS4o2mpVXilIway5gHw8YqyCCKqrUm7is5K4ElKAKh3GnqaloRMOlRucU/cAKryvSSuwEY1WmGacZPmpsjAit4qwyqeDU0TCoH60KcGtmroZfVs0hODUCycU9WJNZcthFlDU6mqyZqYNWUkImFIxoU0jis+oIYhRiUfjd0b0NaJtVFrJGh3AJnn1rIbrWtpUu5HDdVxz7VVRNK6KM0IMVDMAKlElMk+YVavcRRkHNMAqZ1OelMC810J6DHx1aSq6jFSqSKzlqItqKcVwKZEamPIrnejERCUxng1etLo7hzWbKKbE5RhWsHYTR2lpcBlHNaUcmRXJ2V3jAzW5b3AIHNdkJKSJ2NTNLUEb5FTCrGLS02ikMfmjNNzS5osFxc0hNFJQAUlFFMQUUUUxBRRS0AJS0UUxBRSFhTS9AElNLAVC0oqCS4A70WFcsSSgCsy7m4PNNnuwAeax7u8zkA1MpKKFuOa6xL1rQtrrIHNc7uJbNWYpytcqr2ZfKdILoY61HJdgDrWN9pbFRSTO3etlWTFys0pb4DvVb7cWbANZzEnqadD96iU2y1E2IpWbrV2PpWdbdq0ol4rlkdER1JipNtG2oKGUopcUuKYBRSiloAbRS0UANpDTjSGgCNqgkqdqgegCq/WpIutNfrUkIpgXYR0q0oqvCKtL0oQ2AWkK0+mk0xDcUuKTdRmmIXFLTd1JnNADxS03NG6gB2KMUzdS76AHUU3dSF6BEmKTFNDU8GgY0iomFWCKjcUmMrsKaBUjUzIzUjHBaUCkBFO3CgAApcUbhRuFAC4oxRuFLuoAZJwtY1/JgGteZuDWBqb4BxSJlsY0h3OaAmaZklqsRrxQ9DnGeXmpUip4WpEGKzcgARcVGyYq0CMVE+KzUmMqScVRuDzV6Y1nTHLV1UgI15ar8HSqUK5atGJQoFXUfQBX6VUfOatScGqshqIAKrYNWU5rOLHNWYJTxVSjoBe24FITgU5XytRytxWC1YEbSYqPfzTHJqPdg1sogWgc0jEVEr8UpOaVhCk5qOReKeBTZDgVS3ArbeatQx4xUKkZq5CeKc27DHbcVE1TMcVC3NZoQ0GnZpp4pBk1QD809TUeMU5c0mA9nwKpzS1O/SqcgO6qgkMbvOaUuSKZinBCRW2gDD1oFOKUYxTuO4qnFWIQWyQOnWq6irVsTGwYfl61EthF20h85WPpUZBDkEdKv2EkQYheM84oZWivioXKyfka5Od8zQFaMMQSFJA61IELJuxx9av200MVwwdflkOOf4e1QzNBuUJIFUEgHB4NTza7AZ0iVd0sj7Pcj+IYP86SS2eTHlDezDO0f09as6fatAgaQbWl6A+nWnKS5BnOCSp0O4VSB5qeJjmuqURE5QVH5fNWUwRzQy+lZc1gK22nCnlSKaOtVe4E8dT5GKrR1KDWUkIbIM1XIwasNUL1UQJoJSpFa9ncncOawFbBq7ay4cc1cW4sTR2FrJuAq+vSsWxl+UVqxyAiu5aolE1FAOaWmMSloooASilopAJRS4ooASlopaYhKQnFOpj9KAGs+KiacetMmbANZlxcFCeaqxDZotcD1qF7oetY0l971Xe9J6UnKKBKTNp7setUp7wYPNZbTyN3qM7j1NYzrJbFKm+pJcXTMeDVXJY808rzQExXFKfNuaJWACnrxTQKWs2Mk3cU1moFIy1tTYDC9LC/z1GynNLAp310X0Gkbloc4rUhHFZdoOBWrD0rnkbImxSEU4UjVIyNqZupzVGQc0wHbqN1JtNG2gBd1G6kxSYoAC1NLUpppFADGaoXapmWonWgCs55qxB2qB1Oas269KYF6HtVodKrwirQHFCAYaYam201l4qhFdmxTDLinSiqM8m2gC353vS+dWT9pwetPFwPWiwGn53vSGX3rP+0Cmm5FOwrmgZvejzves03IpPtIosFzTE1O35qlC+7FW1HFAEyGp0qFFqwgpDJMcVE4qftUTimwKclRZ5qxItRbKzYxoNLmnhKNtAxuTS5NGKKYhRmnCkFOFADJFyKx7+AEGt1gMVnXijBqWKWxzDQ4epUFST4Dmog1Z3bOcmGAKaXxTd3FQyOaSjcCYy01paqljTWc1ooAPlfIqm4y1SM+aTGTW0VYB0CfNV4Diq8eBU24AVnN3YEc1VXUmrDuKaBupx0AqFTmpIjgip2j4qHGGrTmuMtq+BTJGpi0khxWaWoDWPFQk81Ix4plaIB61KtMQcUpOKlgSjGKrzNzSmTAqBmyacYgIDhs1chcYqmBUsZxVSV0Bbdsiot3NAbIphXJ4rNIQ4nNSIM1EAakiPND2Am2cUgGDUvaoyeazTAUx5qCW361dj5FLIo20lNpgjGaPBp6U+5G01HGSfugn6V07oY9kphj9quy2jpbR3AOUfr7VHt+UHB5qeYCsic1ZRcDpVi1tlm5z3wRUrWrRSBX+6eh9aiVRN2AhtgzTqqja1bVksm1ppjhAcAe+altrWEgFQN+04NQXDFNOCgEs0pBHpXPKXM7BYbeQCaJ504kDcjsfT+tZp6AdmH61etrlZZZI2OFkGGB7eh/A1FDCUuYiyHaG3fXHWqWmjBu5FYXLW1wjqMgHlTW7dTpJEky/K2M4PIzWZeGIXJZUAJALEDqcU1ZJHiKMpHAK59MUpe8GxzQBqaPg05o+aAhFdjaYFqM1MBVRGxVlG4rCSAHWoytPdqYzcUIQqnFOByarl+aFkp8oyyTUMhpPMqMyZNCiIUVJE21hTAM0uMVTA3bK7AABPNbNtdBgOa42OUqa1LG6ORzWtOpZ2ZDR18L7hVism0nyBzWnG2RXUJMfiiloxQMTFGKWloAbilxS0YoATFFLilxQA3FNZeKkxQaAM+dDg1iX0Zwa6KfGDWJfEAGm3oTbU5xwQ5BqRFpZsGTipYo8iuGUtTpjsN2UbKn24FNNc9SQmRFKaRipz0qF6yTuSRmgUhNAarGSqKeEzTI25q5EAaqDsNFYwZ7URQ4fpWgEGKFQbq2uaWJraPAFaUS8VVgXpV6McVJQ7FIRT8UhFAERWk2VKaYzYoAQqAKY2Ka8uKrSXIHeqsS2TlhTC9UnvB61C1771XIS5o0i9N31mG896PtnvRyMXOaRakJFZ4us96cLjPelylKRZYAmp4FqiJcmr1s2cUrWKuaES8VOBxUUXSpx0poBKRhxTqQ0xFWZeDWPfAgHFb0i5FZV3HkGgZzc8zoahW9erd9FgGsnByapCaLwvHpftTVSBoLGqFYuG5b1p8UrOazi5q7YZYigVjes8kCtSNeBVGyTgVqxr8tZstIVFxUq0wVItAEg6UxhTx0pDQIrutRnAqd+lU5mxUlXHFgKjaQetVJp9veqr3R9apQbM3OxpGUetN84etZJuGNKJXPrV+zM/aGuJh609ZR61imZl9aVbwg9ahqw1UNp5gB1rMvLgYPNQSXmR1rOuZi2eaxbuNzuRzSbmNMRsmoHelifmny6EFztVWZsGpt/y1TmY5pQWoClqikbIpAxNO25FbWsMiXJqUDFKq4pTQ2IA+KGk4qFjg03dT5QHs9SxSdqqk06M4am46AaB5WqzjBq1EMrUcyYrGLs7AMSmSdacCQKjY1a3GHXikYYp0YyKeVyKd7AMSpPLyKYgw1WVFTJ2ArNGajMWK0CgxTWjGKSqCKISggA1M+FFVy3NaLUZKlTKBVRX5qUSYpNMCcqKReDUZlpVbJqbMRaU5FRt1pVPFNc1CWoiaFsVM3K1TifmraHIqJKzAz7pTzUdnKIZct0PBq7PGCDWc6bTW8GpRsUdLayxT2zW7AEEHFJNZhtHjIHzIetYNpctA4PbNdPb3MFzp7xoeccj0Nc1WMoNNbDRixxSW7gt90960GfzYAH+8p4NT+YkeEkQNH6+lLG0EV2YyA0Mq8E9qcrvUkbYhXn2lyoFWLyNomO7lWO78azpoWhusqTzxx3FWZ7jY8PmZZSCGBqLJbbjKs8PkyCcMpBPOOv4ipUkuWRyqho+xU9PQ1JcrHMXVVK/KCCehrPtpJYXkZWZNntwaqOq1BhJI08hyuDjGMdKvi6hdRC5xx8jD/Gsye7Jk3IiBl4OO/1qIMXTIO3P6VbhdBsIVzRt4oJxQG4qtQGFOaUZAp/WlIGKdwI8kmlxmk6GpFwaGIiMWaRo8CraqMUkicUlPUZluxU0isSamlhJNMWIg1umrAWIualZeKbGuBT3bArFvURXPBqzbuQwOapu3NT255FU1oB0enSsxArobfJArB0xOAa6K3X5RXbTvy6mXUnFFLilqihKMUtFACUuKKXFACYpcUoFLilcqw0io5GwKe5wKpXEoANAmRXMowawL+YkECtC4kLZxVA27MckVE5WVkEY3ZlpGzPk1fiQgVOlrg9KsCHArjkdKWhRkXAqsxwav3C7RWXM3NYyVzOQ/dmmOaiD807OanlsQNNN6U80wirQx6Hmr0LVRQGrUVK9mNF4NxQjfNUIPFPj+9WqNUaUHar8fSqFv2q/GOKZRJSGnUhpAMbpVaVsVafpVKccGqQmULqfaDzWbJcE9KtXak5qp5ddMIo5pSZCzOe9Mw3rVnZRsrTlMittNG0+tWPLpfLp2ArjcKcHIqYR0jR0uUpNkkb5xWtZnOKyY05Fa1mDxXPNWOiDNaIcCpx0qCIHAqwBxUI0YmKMU4ikpiGMOKoXKjBrQYcVTuehpMpHPX6cGsYxcmt69XOazBHzRcdip5NJ5PtV8RUhi9qLjsUDFV7T05FMZKtWK4YU7ktG7aLgCtJBxVK1HArQUcUhMZinCgilAoEPWgilApTQBBJ0rNuTjNaco4rNuV60JaiZj3DMWqNYyetWpI8tTljGK6ktDmerIEiqwIhjpRgLR5gx1qJSsCRBMowazpX2k1cnl681lTyZY1zTdyrEvme9Mf5qrbzmpVbNZ8thkbrTBxUzmowuTVp6AOD5FRuKkC0jLQgI0TJqZY6RBUw4FKTAiYAVC9SuwzULmqiMikFR05zmmVshC9qFPzCkJpoPNOwzZtuVFWHiBFULWXgVe8ziuKaaYEbwALVCePa1aTyrjrVC5cHp1q6bd9S3axFGcCpC+BUUdEjCtWrsgAeatRNxVAMQasJJgUSiBbzmmPIFFQ+bioZJCe9QoAJNJmqxNKxyabXQlYYoNSKajAp4FNiZIDU0VVwcVPEazlsItL0qOQGnqeKXGaw2YiBM5q7CeKhEdXbS2MwOO1TUkrXGRuhfhRk+gqlLAWJAGDW0qpGyupO5eq1PB9lkuws6DLjAb3pQm1sGxy7WssZyy4X1rQSO4tgrYBGPvL6VuXdoVjdQNw9O4rKwyoJFDBc4zjjNP2rkrNFMbHNNNJtKFh3FWZWa0QJLGeu5M9cd6dJNDt3I22QLxjipU1CC+MIukBZcqffjrWd7620FZGbJ5yMDESyE5C1PvkwPLOHHTjPNRXANvcYiJaIngNzipEkQvz8p9ulU3ezQiUX0rRvHPH0HzADB+uP6VGMrCyBgyNzsNWpwsi4bk4yreo9KpzAhdy8kdaVxlbZFJJjdsbnOe1MCO4BtcseuB29ahnc+cHKk+tT2t1FCQ6Blduq54rezSuIjINRHINWH+WoWOc0JjsOQ1KKiRanRamQhhjoVcVPtGKaRU8wAKUnikNRO2KSVwFZQaaFFRmXmnB81dmgJcYFQy5xUqtmlZNwpJ2YGf3qeLgih4sUR9cVq3dAdVpDZRa6SD7orltFPyCupt/uiuyDvFGS3J6KWjFMsSloxS4oATFKBRS0hgKGOBS9qglfApDI5pMCsyZvMfAqS7nAB5qC1/ePnFBO4qWxPNTfZxjpV5I/l6UOuBWbRqtDMaMBqY+AKnmOGNU5nwDXNLc1voUbxutY8pJNaF02SapFc1k3qYtkAp6mlK4pnQ09ySQmim5pRSsMlSrEdV1qZWqUrsCytTRD5qqq1WIWy1bpWNEzUtx0q9GOKo2/ar8fSg0H0mKdig0CI36VTmxVuQ8VQuGxmi9hMoXIGarYFTTtyahzmt4TOaSGnFFKVNN2t6VupEWDilzSbWo2tT5gswzSMaNppApyKOYLFiBMkVr20YAFZ9sh4rVgGMVzz1OiBcjXiphioVPFPDVJZJSGkzRmgBG6VTuF4NXT0qtN0NSykYd4vWqKx81qXa9aoqKRaEWKh48Cp1xTZOlIooSLipLL74psppbM/PVohnR2vQVfHSs+1PAq+p4pEMGoBpjNTd9MCyCMUuRUCvxS7uKYglbg1nXJ61ckORVGdSc0LcTKEjfNShuKUwkmkaIgVrzqxhyshlkxVKWcg8GpLglc1RdsmuapK70ASSVmqA81IeaQioTGQFealWmtxSBxVbjHkZNSpHUakE1ZQjFZydgInXaKrSNzVyYgrWfNkGqp6gPWTFOaTiqe8g04MTxWvIA8tk5pjNmnhSaRo8CmrDIGNNzTmBzTcVoAGgLQaliXJobshk0GVqd5DjrSpHhelRSZxyKw0bERPK2etCguajxk1YgxmreiAkEOF96rzLt5rRGCKp3OMms4SbZVirQSRTgOaV14ra5IwMaRgTUsUeTVpIAe1JzSGZ2wntS+WR2rU+zAHpTvswI6VPtkBlbCO1BGK0JYMdqqTRkVUZ3EQ09GxTDTc4q7XAupJU8bZqghPFa1rZtLAXHUVhUtFaisA5q1aSiKT720HgnFVEBHBqVFJYYrCSXUCeWONXJ+1cnkfLUf7zqDvAOc4qV1GAcc1Eu8P8vANTzXGWU1huI5lBx0Ydat6dcq4libaQ53AEcVTijRfnZVf1U96pE+VOWibaucqCeR7VVrga13YRyKTEAj+nY1iXJeMKQu0qeoFXk1GZlxJGT/ALQqxDNBJuEgG89MjrTTcWBmrOhKtKRz2Jok8tpNyybSfXmrAntnlVjGoZDkZFQ6rZK/72H5WPIxwG/+vVK1+wFld8IUMwaM8hh2prxsjYPflTWfGszIFEwwOozipbe4k80wyEMO3PSk4dgGXER87OTgjscVNDapxJ8vI7nNWkCM24gEgcZqrdCOIBgmcnBoUm1YClLLioQ5JqSXk9KaE71srJDJkNTK4AqtyBTTLjipcbiLhkpA1UhLk1YjJK59KThYRYzkVBLTgaa9SlZgVSfmqQGmumTmnotau1hkqGrKDIqui1ZQYrGQiGVahRctVyRcioUXa4zTiwOg0aLaoNdPAPlFc9pRGwVvQtwK9CGkTNblqio99JvqiiWlqHfRvpDJqM1DvoMlAEjsAKoXUwVTT5psDrWNqF4FU80EtlWe6D3GzNbVgihQa5KKTzLgtXS2E2FFQnca0NsYxUMzACmCXiqtzOADzSk9C7la4kG41QmkGKS4nyx5qlLN15rhlLUrm0I5myaiqOSTmojLU8rZBK9RUb80qjNVawAKcBShacBUtgOUU6kWnE0RdmIUMat25+YVTB5q1bn5hWnMVFm1b9q0I+lZ9t0FX4+lNG6JaQ0tBqgIJOlZl2+M1pTdKxr49ahsmRnyy5Y0+EbjVKRvnrQsvmxSTdzJK5big3DpUv2X2q1bx8CrYiGK1UmaciMr7J7U02vtWv5Q9KQxe1PmYciMc2vtUZt8HpWw0XtUTRe1HMw5EVYExjir8Yxio0jwasIlK5SRIDxRk0oXijbTuFhQaUGm4xS0DsPzxVeXpUpPFV5W4NAIzrs4BrNDcmr142QayyeTQWiyHprvkVX3mkLkiiw7jZWpbQ/PULmpLX79MTOhtH4FaKtxWXadBWkvSkSI5qPNPalC0gEXNO7U9U4p4Wi4iAio2jzVvaKTbSCxSEHtSSQcdKvBRQ6DFAWRzN/BgHisN+Ca66+hyprl7yIo5rPqYyViuGpxPFRA4oLcU7EEcrVXL806VuTUagsa3irIZPG5NWElIFRRQk1M0BFZycbgKZMiq8vNSFSBUTHiiKArN1p8S5Iprdas2y89K1k7IZZiiyOlEkVWUwAKjmYVy8zbAotDzTTB7VYDAmplAIrTnaEZrQmnwJgircijFQZCmqUm0MvRgbaZKi7TUccoxT2cEVjZpjRV8umjKnirB6UzaMVqpCGiVsVDK2TmptlQyLg1UbXAYvWpSQahzzTweKpoCVODVyIjHWqKtTxJis5RuBohxQXFUPO96esvHWsvZgWiQaqTrmpFfNI/IpxVmIzpVwaiPWrvk+Y9NltWXnFdKmtihtvIB8rDrW9pk2wmNuh6ViLaORuFXYlkCggcisKyjJWEad1b4G5fWqalkertpcebEY5Bg0yeEda5Ytr3ZDfciWUs3zdamZl5btVOSVVXaEyR3qRXVowN/JHINU49RCS5LblfAqrKpYj5gaZKfLcqGyKjDVvGLSEWYcxAlZOT1FS796HzAG/Qiqgw6ZzgetOWRRkSSKygfjQ431AmaSEr85yff73596SSfES7GbYDznkZqlI8f8G4UxJGDYGeeKtQuIsu+8dACf4lFLbRoh4Z9zd8YxSQR7s72PHGOmKkWMI/P4Um0tBkjyPGCwckDrzzTBMJFw+CD3qGZ+eDUcICsSG4J4ApKKtcBDICaejAiqo5qaMVo1YomIyKrSDBq0DgVBIAamL1EyBetWo6qgHdVqLpVzETYprtgU4tgVVkk5rOKuBKOTUirVWOQk1ciBaiSsMkUVKtNAIpwrBiH4yKjaPmpVoyM1N7AaWmOUABrfhl+UVz9mwOK1om44rqp1WlYpRTLxlppl96gwT3pCp9a29qP2ZY82k86q+0+tG00e1HyFjzqY82BUWw+tMkXjrS9oHIQXV1hTzXM392zuQOlbV3gA5rAu1GSaTqNkOCQ23n2MM1uWd8oA+auZ71NESKSk4g0dd/aK7eDVS4vNw4NY8bHvmrAbisalVvQmw55Ccmq0r0+RuKrOc1lFXGQyMSagLnNSuKhYYrpihk0bVaQ1QQ1biaomgLNLTVyeACTU8dncTf6uNm/CsQs3sQbsUhete28PTyczuIh6dTV6Pw/Zpje8jH8qrlLVKTOaDVZt5MMK6L+wtPP8D/AF3Ug8P2mcpI6/jmnyj9lJENpJkCtOJuKhh0yKIjErH2q0kUS8ZJNUlbctRY7NBPFPHUYUU7djrVXRXKyhcNgGsO/k4NdQxjbhgD7Yqhd2FlcggZjb1WpdhSg2cY33q0tPfkVJeaFcQ5aIiZP9nr+VU7ctFJhhg+hqNjCzi9TqbZhgVeUgisizlyBWnG3FXFmqJqaaXNIasBjConFStUT0DGjrU8dQCpkNAybHFFAoqhDTSU40w0DAmq0x4NWD0qrN0NA0Zl10NZh6mtK771mMeTQhiUlLmmmqAjepLTlqiepbQ/PQBv2nAFaC9KzrQ8CtBDxUki09KiJ5p6GgRYXpRSA8UZpAIaKQ0UhjqRjxSVDM+BSYitdsNprnL8DmtS+uwoNYFzOZCajczkymx5phNKx5pua1SMyNlyant4fmzSIMmr9ulTOdkBJFCAKc6DFSggCoZG5rlu2wKsq9aqSCr0nNVpFrogwKgTLVchXAqFeDVpMYq5sCXcFWq0jZNOlfAqvvzURj1AcOtTCTAqDPFNZqu1wJZZeKpu5JpzkkVERWkIpDJomPSrKA1Vjq1G3FTMCTtUbHmnlhioC3NQkBLnioJVJzU6HimydKa0YFULzUgj4zTSQDml82tHcBCNpppakd6jLU0gJoVLtVhoWXGKrW8ux8mtiF0lX3rOpJxYFZFOOlJJ0q+FXpTfJUtWHPqIp2yNvyRW3BaxXEPIGahWBVTPerFtlQSOlRKd3cZGLZIwy1Bt2k8cVPcOS3Bp8eyRCG61O4yju+bI4NLLK5AzT5ovLf2qCSUDKkGmldiEWMSSD5tue9SvCIkIfDD1pLaGOb782zHqOtOurVU/1M4I9Ca0AzZVjZyCCvoagYOnLDjsassrbsOKFCH5Dznpk1qnYQCAPECWOT6VXlUr8qg/gKtsPL4DKxFW4JVVzuVNo6jHJpc7QGIiFjyvFPCcHDAVZucSzM2doJ5FOvUtIljFsT33EnOa05r2AZbPKEYMdwHA45/OpPPhb5ZMnHpUK3DQ4UKGU9qS4LNtcxqmeOvNS43dwCaGNjugdj/st1pNgwCowcVGkjZx1PpirDSzMm2RCGHrwRTd0BWRKnVKhWTFSLJxRK5Q8kBcVWduafK9Rp8zU4q2oh0aEnNWY09aWNasKnSs5TCxC0ZIqrLCc1qFOKhdBUxqWEUI4juq5H8tL5eKDxTlLmGiTdTgc1XySaeuahxEyfOBULyYNKSQKqTNzTjG4F+2uyjVt2l3vA5rk4mO6tiwY5FOS5WNM6aOTIqXNU7fOBVirRsPJpN1NNJVAPLYFQSyDFPYHFVZVY0CKF7IMGsO4bJNbN1CxBrLmgINBLKiRljWhb24I5FQwoA1aUQ4pNiREbcKOKhb5TV5jxVKY81lJEshb5qaE5qVRmpEQVHNYRVaH2qtNHitZk4qpLCznaqkk9hVQnqMz0HNbuk6S94Qzbgvrjil03w7PK4e4BjT0I611iCO1gEcWBgdq2bTNYwfUrrptlagfut7+tT+airhML9BVR5SWLZz9ach+bJPJ9Kxb7HVGKSLitn608Aemaiiz/FVhTjOKaExRGTjik8rJ61KCcfQUgyD+la2Rndlb7MRKXz9KURlT9asvnHPSmjGfXnNDihqTIgrYzTJGbNWGdQCO9R7T1Bz7Vm12KT7lRjngZFRAkN7GrLRnPTHtURT2rJo1Q6Ntrc9DUd7pkN4N4ASTrkd/rTx6MTkdKZPO8CbjgCqTIlFMoRQTwHDIQB3q/BJxzVWC+a6kbGNo7etW08vOQv60KSM3Sa2LKtmn9qiUrj0qQdOORWqdyHFoa1RNUrVE1UIQVIopi1KtAyQUuaQClNUIQmoyacTUZ60AKelV5sYNT9qhkXOaBmRed6ym6mt2eAtniqRs+TxTHczxQaviz9qd9j9qdwuZD5qS2yHrRNl7UsdntPSlcC1aNwK0UYYqlDCVxVtVwKQhS3NPRqhPWnx0mBaU06moOKeKAExRS00mkA1jgVQupMA81amfArGvp+CKzkyZOxl3spdiKznFWZXyxNQMaUTArstMNTNioHYVstQJIjzWjD0FZMT4atKGQYFZ1UBZdsCoSaHeo91ZJADdKrSvipZXwKoSPk1vCNwJFbJqwDxVKM81ZDcVUkAyd+KhjOWomOTRB96rSsgLWzioZFq0CNtQuOazT1GQ44pu2pWXioia0TEJnBqZHquachwabVwJ3bioC5zUrHimIm6pWgxyyYp5fIprw4XNNVWPAFGj1AikPNR7jUkqMvUVEOtarYaHAM1SJbsw6VesolYc1fSBQOnNYTrcrsBi/ZnHardpG69a1VtlbtT/syrWMq91YCmVYcipolZqV+tMSby2rO9xFhsgc9qW1vFjJWQcGo2ffStbCVCe9SrJ6gF2VY7om49Kq/aCnPQimmKSEkNnHvVW4diMYNaxhd2AuC8Dn5jTJyJVADdKz4g0jBB1NT+VMmflYitORJ6ANy65w3FMDSE881PGpByVNNkSVTkxkCqTAjaZ4+N24HtUkMobAAwx79jVfq2MZJp/kyxjIXgHNU0hErCQNgp1NAMiNkrjHv1qSJlkGeSR1GcVFcnDbgrKP8AaFQtXYCOXBbLMR7AVGfmTaq5x36mnZSQYI57U2MFiQgwfatFsIkjcAqXHQ556Gp7pkkgIjbPcexqMIzKA5+UfhVZ3iQkRgsfUnihK70KQsDukiybT8pGeK052WYB1Ib0qnHMjxDKvkdemDSCRVPyrgexpSuxFQNTw3pUeDT1rRjBiTUsK4pAM1NGvFRJ6AWI24qVW5qru20qy1g43C5daTAqtJJzRvyKgkPNEYiZYSTNShQ1U42xVqNs0pKwDxGPSl2U9TTu1Z3YFeReKpSjmr8o4qlKOta02A2FctW/p0GQKwrfhxXT6cRtFW1dlI1IYsAVLsojYYpSwq1Eu4m0UmBQXFMLiqsFx5xUbAGkMg9aYZR607CuQXCAisq5jGDWnNKuDzWVdzLg81LFcoFtj1ahnGKznfc2acjHFZNiNGScVVd9xzUfJPNOxxUMljlbFTRsWYKoyTwAKr7STgAknsK39Ksfsq+fcD96fuqf4fepaTLhBydizZackSiS5OX/ALnpWgDCuSI0BHOdtVJZGA3c49BUbSutoWY4LH8hQtNjrUEtCveak6uSD9KkhmMkQdyct6dKxbm5SSQA8c8471q25LxLjOCOAetNKyuyt9CzHg9BgCrMXJ45PpT7WxZ1y3yjtVg2iooBkIH86pQb1E5JaAg3AdKlRDjPp1otok3YHQVOcAgDpWih1IcuhFz/AEox8x560+RQQPeoQdrHJzgUWsJO4O5JAJ60jHuO1RKWdiMY5xzU4QkECluVsIoypFOVXUnB4pVIA5GMHGKry3JjJ5yD2oskJNsmKtg55qBlHJH5VYguBInoRxTiiNzu/HNDimtBqVtygw7gjio7pfNt3GeSO1W5YCDkfzqBgB+PvWVrGl7nH2tzJa3jRuWBz3rpUkDxq+friub8QI0F4rjOD61p6PceamxscUTjtJBF9GbIJA4NPjmIPPFVg+08nipT0BB4qLlWLZIIyOlQuartK8fTke1Il0HOGI+taqfcxdN9CypqdKrKcfSrCGtEZkvakNKKMVQDDTCKlIo20gI9tNKVPto2imBVaLNMMA9Ku7RSFaAKPke1Ag9quFRRtFIZV8gelAtx6VbwKXAoEV1hAoKYFWcCmsvFMRTKc09FwakK80qikBIg4pxFKooNMBjVBK+0VLIeKzrqXaDUSHciurjAPNYN3cbj1qS9uTkjNZckmaztcwk7g8lQmSkZqhZq2jEgc0lQs2aQtSVolYYA4NXIJapmnRnBokroZpb8imlsUyI5FElYW1sIilk4NVicmnv1pmK3irAKpwaeZDimhaQqaegDWOaVDg008UDrTGWwx200PmlTlajk+U5FZpAT7htqu/Bo8zimE00rABpAcUUlWA/dmpbc4ODSRwlhU6WzA5rOTWwFoIHXGKfBbDfgipLdPWrarg5Fccp20ArXNipjPHNY0llIrcCupPKciohEj9cU413EZjWUbJ96tFTinSxqhyKhMlJy53cRciYU2eRh24qskhDVNI+9ajlswJHRWhz3x1rIaXbLg1eEzBdnaqE0eWzW0LXAtrMCnFLFebCVJ4NVYvlHJpXjDc0cqAvm8wuJEDr696oySRsx2Hj0NTxxo8fJqtNGiGnG2wEkSxhwxAyKvC/iUbXArILKTw1QTNyMZrRRbYG9Iyj5wm4EdqzmupN5x930NRJdsvAY/Q0SSK3OOvUUKLW4gWMtKJYhn2qeR3VAWTFNhmEcRTbkH8KjZtx2kkL7nIpbvUBvm8MFOMkHn2//AF1Pc6iJhtJIHoQMVSYopI4JPegRk/N0I98Cr5U9wI2PUKuM+lT28yRpt2MXJ6AdaqySljyc00c8mtLXWoF8tMXBaMqp7YOaRokk4bAPriqgnlAKrIwXuN3FN858ZzS5H0HYuKiRLjcGPfANV5AFbKnj3pwkY4LLzSO28YKkUJNMQCOgoRVxUFDR8dKjnGU1OKlWSmSrg1EW4qrXAnZqFbJqtvqRGp8tgLIpG5pqtTwM1nsIaM1KrGmEUA84pPULFpH96nVsiqampUaspRETSH5az5TyatyPxVGU7mq6aGPtz84rorF8AVi2kBbHFbEMToOKq+pSRrLNhetNaf3qll+9Ly3etOZDsy0bhe5qKS6UDrVSRSO9VpM0c4rFiW/C96rPqXpVSXqarMannJsW5dQZqpSTljyajZqhZqaux2Jw2TU6dKpREk1dTpUTVgJFFXbGye7lCjhByzelS6Xpn2sGSUlYgfzrdURwx+VCAiD9ayZrTpOWr2IljtrRQIIwG/vHk06I7yXc5AqGZQ64zS7vLiAFI60ktEPllDZH86ZeE/ZhgcBapyzdccmpJ5C9mhPHy80+gHPwfvr3A9cZrtNMt4441lkwD/CDXLaJBvleUjq2BmtTUtUEcnkQjc4+XP8AntWq39DLob76kqEgEYFU7nVYXIDNjPQiuQu9SQIQ0zyy9MRnao/HvVD7c6svz7l9M5xV2k0ReKZ6PbTqDjfwRhferJfLHngnFcRY6scrvOQOg9K6qxullUc59zUX6Mu3U1B9we1MaIZJ7mnnsp6UHpmtWjNMhVAh7U6TcFwPxpxAOCevSmvzkfw57Uth7kDy7VGetZz3KEtuP0OKNRuPKU/MeDXMXmosSxB+vNZttuyLVktTXm1oJJt3cdlHeprfVIWI3MQf9quJDvJKZHVnUdQDipbfUri3YYO9AThH5FW6RPtD0qG8WRQD8ynjNRzp5THHKnpXGQaycfusqOpjbnH0P9K6e1vFvLDfuyRzWck9mXFrdGT4kh8218zHKn9Kq6C+VIxyRW3eIJ7R19VIrC0MEA+3B/Os73hYu3vG1uOAQeo5FSwykoV9KrE5PPWiJ/mx0zUM0LLPxjtVU8HjpnnNSt8ykZxnvVOZ2XjH5GiwGlb3GPlI4+taEfQEdK52GZ93png5rStLplOG6e1VCXLoyJx5tUbC07FMjYMoI6VKK6Vqcz0EAop1JTEFIRRSZoAKKKKBjTSU40hFIBKWkooAWkJpaQ0CIz1pVoPWjNAyVaU0xTTiaAIZelZF8eDWrKeKx748GspMTOfuj8xqg7Yq7cn5jWfIeacNTBkbMTTCDT+9O2cVtewFfFLipSuKjaqvcBppB1oPNOVc0xlqBuKdI3FMRcClfpWPURXY5NCjJobg0+IZatOgEqJQ8WBViNRiiQADFY82oGc64NMHWrbxFjxUfkMD0rZSQySHkUskeRU0EWBzVjyc1i52YGQy4NNrRltDyaptA4bGK1jNMAhj3EcVZ+yg9qfbRMuMir6oMZxWM6lnoBDb244zVsQ+1CECplbK1yyk2wIcbTxSiQjFKwz0qKQ4FFrgWDN8vWq5m+brVd5D2NMXLGrUAJ5psiqm8k1M6HFRD5TzWkUktAJFfHWhpsd6iY5qKQHbmmopiLaNvpJSAKpRXOw4NOkn30/Zu4yZCC2KmLBRiqkJ3Nx1pLh2VsYIpuN3YCxvPODUMqlgTmmRMXBpw3Z2kU7WYFQgg8U5ck8ip54/LGfWq6u2elap3QieOJZCQTgirKWg8vc8gHpRbadNIPMciNfepJo7dCB5m7HWs5S6AVzKFcqFU47gUyeXC52A/TirXlx8FOM1Wuk+XA+Zs9qE1cZTZy5GQFxUhww++AvYVHsZm2hcmpXt0hXMr5b+6K2dgFgSI5DAFvUnApZxCo4bcf8AZFLDbF08xgQp6Ad6mgtY5QxbORxgVDaT3EZ2Cw9AKkiVSQOr5wBVqSzSMFi+4dh0quEAbKjG3nIPSrUk1oO5MUEYIkHPsahPIIXHHcd6mVzMTuyfwqRVjjUKAWZu3SovbcRb8vmnbOKkbrTa5LsChcpwaokHNasq5qsIMt0rohOyGUthPanopzV82+B0qIx4NV7S4MYoqVDg4o8umchqncRPTNuTSqQRSkY6VOxQ5V4p6io1apkNQyRrjiqu3Mgq7IOKrBcyCqgwNnT4RtHFayxDFVNNTKCtbyvloRsloUnQCq7MFNXJlxms64JHagGJJKuKpyyjnFMkkPNVnOTU3IbGytkmq7Gpj0qIjJq4iIGqMirohzSNBxWikh2K8Q5rc0nTjcnzJcrCvU/3vYVX0nTGupcvlYl+8fX2rpgAqiOMbUUYAFZzlqa06d9WNklCKscaYVeAoFVg7lsscD0qztReckk1E43DI4x6VnudOwhbjrzUVxNgBR2oWPb8x6ntUFyTu3Y9aaQmyIsSTngVJeOFsl9h2qsXycGkvmb7KwB4GP5VVibi6XP5VvGQOc5rP1CGZp5WBOG649K0LGErbxkj+HgVauLZWUOEJyOgOMVUXZtolq61OVERHG0keoFJgLkAcn1HSt37KrtgIVbrj0FWIdLizyua09oiPZs56FTvwuR6V2Xhze64ZeFPU+tY0tgBPH5fGT+tdVpUQRMDkevAzSdpNDXuo1A25j/DipcfL9aijQ56Y9KmcbEGTg1ZBGR94frTZY2KYVuhzTt2ByelPU8Yzmp3K2OT1VJixLKQoOM5rBlt1k38gjoDXd6hbCUMBwSKw4rN85cAqOgAxxxUX5WWlzI5ZbW4hc7NpWpkslYAsyj/AGVBya6w2EbZGwc85qI6eocNEMEe1HtfIPZ+ZlR2L3EajygkY4VVHP1NakFubaJgowp4xVq3tzI22QEY7kVNeNhVjXGB6VDvJXZSsnZFJcjIYHBFY2loUNx7Pj9a6RU3IOmD6VjwwmGa6QdpAwP15rNbMvqTyZV9v51ESfNBxjj+tSty5JPqKay7nUUFExBORUEgGGBH/wBapgwDEdzUchDDj+VFhEETckGrcWO1UFfsVJOetWIWJ+lJoaZq29w0Tc9K04pVkUEdfSsONsrg81Ik5icHPFXCbRE4Jm0aTNVoLoSDDdanLCtlJPYwcWtxSaTNRmQUwyj1p3FYnzS5FVTMPWkM49adwsWywppYVUNwPWkNwPWi4FsMKXcKo/aBnrThcA96VwsXQaDVdZh607zRRcBzU2kL5oDUgJFpxpi07tQMgmPFZF82VNas/Q1i37YBrORMjAueCaz3OWrQn+ZjVUx804OyMCNFqUjinBcU1jgVV7gQyVA1SSNmoTWsUACrMK1WFWYTmiWwyfbgVE5qY9KjK7qyQiq55p8B+epWtyRSQx7WrTmTQy6n3aikPNSg4Wo2G41gtxDo1yKsLEGHSoIQVNX4xxWc3YZEkQBqzFGMdKUJ3qaMAVi5jENsrdqryWYBzir2/FIzDFLm7AVEhUdqHVQKV5NpqCSYHvTSbYCMcdKaJivFAIak2/NWmnURMrlqZMaeFwM1XkY5xQgK7DmpoQAeTUTHHOKas2DWtm0BdkIC8VnyN81StIWFQFSTRCNtwHbqXIIxUDAipIwSOatoRXlj+bIpQmBVllBqFgRVqVxjrYlZBxmtGWFZk5UZrIDlGyKuR3cnGRgVM431Atw2ip1p08SRruqnNdP2qMXEjjDdKjlb1AbdsJAMGmJEdoIpzR55qaAZGFPIq72WgMfOZvJAZiB71QDhTjrViWV2kIlOaYyIAWFOOm4h4zgFTwahlklGQSQDU9kjSBiDwtQTo6ud3I9qaWoEIcxnINBLzsTTkCscMOtTfZQv3Jf0q3JIZdiEqQKZSoOOAB1pvmOrbguPXiqZL5CO3BIGc8VPMY4V4PTooNZOOoiSSRJkIIxnqKqw2pDZDj344xTY5ZTkqMmraTboghTJ9BTs4qyAiCrEAo/i6nrVy3cJHtPB9SOtVJFbG4rtx6uM1WaQk4HNHLzAajSUm41ArEnmpgtYtWHYaxp8RBNRuMU1WKnNFroRcbGKpyff4qbeCtV5B3ogrFDxzUUi85pVkqTG4VezJK+cc0/fkU2RCBUIYg81aVxlgHNTx5qsjZq1FWc9BMlK5FSW1tucHFIgzWhZqMisr9Bo07KHao4rRC8VBb4wKtjFbRNkVZYsis64ts5xW2ygiq8sYINDQNHJ3VuVOaosCD0rqLi1DZ4rOmsh6UrEWMUk0KMmtB7PAqq8Ww0xWsPC8VcsdPe6cEqREDy1Gk2xu58N/q15Y10TOsahEUKq8ACoubU4X1ZCEWFBHGoVF6VEXHcgnsKSaXcDg1DnGT3/AJUjo2JmYY+b/wDXQrDYVx9c1Ch55/CpjjywaaExkoBXJ6DmqU3zRqQands8Z4yKq7uCp9Mj61QiH268UXYJhdBzlQaMkA0pH7oE/TNMkvhAkKrxwOoqaL/VYZTjp1pgx5gH3iO1WVH7s7vqaIBIpSjy3AXAzycc08SLJ8inkCmzLlgQpXA4xU1hbM8mT1Hb/P8AniqcSUx0doXmDErhPat62VUiVRxjtUCQiNCAAWPfFPUlEAzye9UlyibuWBIA+QKmzvXd3qtEVUgkY96seeoU+gq15kPTYjwCcntTwcDjBqPeshyvBpynBqdh7iMN4GcEioDbjJAAx6YqyowScZFO2ggcde9O1wvYzZI2Cgr1HWoGkAYbWz3wc1pzQ5PPTvVR7f5iyqTj9azcC+cdAQwyep/GkuIt56Yx2xipo12LyOtDkdxnPam9rCT1uVdgHQH8e1Z1xHi7lOSdyqea0nO0kjj0zVG6INyTk8oP51jY2uVnwXOe1AwXGex7U+Qct600LgZB6daRQjjaQx9TSHDE461JIMrwM81EUOd3QjqKBEUsYDZI602EhT+PBFTv82AcYqNFCn5efb0oGWkIGCentUhKlOmR61CDgDI4oZioIHXrSGT27jJHQ1f3kR5znHesq3J3kkZzWluEcJBPGCWPtThoyZ6ogkuQO9Vnux61iz3/ACQpqm91I3etznN979R/FUD6ko/irCZ3bqTTeaANptUX1qM6oPWsjFGKANgamPWpU1IetYW2lANAHSR6gD3qzHeA965ZC4PBq3FM6jmgDpVuAT1qzG+a562uCzVsWzZApAaSU9uBTIulPc8VQmVLhuDXP6k/Wtu7cAGuav5csRWUjObKZGaaUFOBpGPFRqZELkCq0j1JK2M1WZua3ghjWNMNKTTa2QwzUsT4qE0A4ptXHYviTIqWHDGqCOau25OawnGyJNBYQy1BJEFNWEcAU1zuNcybTArE4pFIJp0i80sUeDmtLqwyxGoI96sJgVGoGKa0hFYPUC2SKDIBVUS570jSGp5AuWWkz0pjScVCkmTg1MU3Lmi1h2uVpJM1Wkanz5U1WZsnFdEIiLMUuKkMmOlUgStLvNNwuIu+eSKj3gtVXcT3o5o5LAXyqlKpSKA3FAkYDGaidyWpxi0MnUACgYJqEFsVIikc5ptAPeINigx7V6VYiXIpszY4qLvYCrkjrTGOeBUxwRUQG160TEQbTv6VaRV2inqqnrTtoxxRKVwKtxwBimiUbMd6smDfUEluFUkU4tbDGCUtwKmjLRHNRRx7RuqeGRWbDU5eQiOXLvk4qVI1aIoMZPepjFD5gLsAtVTGwY7TxngmpvdAOhilgVs9D6GkKhjl3qPMqvyW/CpW+4JDgBjVO4CtaqxPl8MOlNRgGMQiYydyxzQkxVgUOcdvWpJXHE0fBxg0lfZgQSRk5BOD/u1D5GDljx7VIZpZB8wG0dz1/OgFi+IzuU9yMVaugI/mRxhTj0Iqy23GUPXqKbt2HLj5fTPNRM0Z4ww+tG4COu9vvYPvTSnktjdub0FOlClgR908gCiIIGy+AMd81XQC6Y8GpV6YNWHipgSuNyuBC4zUZGKmYc1GwqkwG9uKVlytCDmpSMCnexRSA2mrEXNRSA5p0Rwap6oRLLGNtUZEwavueKqydaINoCOJTmrkfAqvGKsoKJu4iVWxVu2n2GqgFOOR0rBgjoLa7BwM1pxSbhXJW0jBxzxXQ2cmVFaRZrF3NMHIppGRTVYYoZ8VrcsikQVSmQc1bllGOtUZrhRnmkIqTLgVl3AGauXNypzzWZPOAc5osS2dDpFu1tYFpF2tI2ffHapbklgcHApYboXNvG6kYdB+femOd6HPVeDWbOqOisZkjSK3XCjinwynd8x49Kbc8Nz09Kg8zJBPApgakbJkZIye1K8gaPPbOBVGOVSCQeenNSLKpPI47U7BcUkbs+oqtI3zgA9DU0xAB4qqQTk0yQx+tKz/ALn2U5qNyQOKUkNEw78GmBqFi20r9cCrMT5VgSCBVCxkU2gct0Xb+NTRyDLBTkGhCZagTzJRnH0xWpbQrGp46mqGnqZGLYHHetIttGPTitYmUh+C5O0fhTXKoCTjI7VFd3iWdtvb7x4C+tZsNw11kyrubrtzim1pcFq7F0TMxJyCKhlml38OPwp6xIvQcelKI4juPlg+mKztqbcqSJLa45w2M1oRlG/i5Ncvc35V9iLsIOK0NJ1ETSiKQYbt71pyNamTaeiN0jgY5oUjAGMU1icccU3cA2D1pkk5IP171GV5xTSxVhUm9WXnqKBFWX5Omf8AGoHYEdc56CprltvzAnHes+SZVYAE896xmaxJp8dQMEHrWdcHN0wUD/Vg5Hfk1YNwNhGQc1U8wveyAYwFQcfiazZqgcsGbtzihiXjIQdaZMxMhz1PSnrJ0HI7GkMcFIGM9s1C7MsxAPBFSjJPXrwaTbyS3pxTAiYjG7ofSkOM53dqSbCnA5GOc1UkcgEZwV96VguXA5P+FPyMdKoxyg8E8+tSozElRkg9KTQ0y9ar8hJ9aZqkrR2DKDzIcfhT1kARUGT2xVXVTuUDsowKqC1uTN6WOe280uBSucGometjEeTTS1RtJUZkp2Fcm3Ubqr76XfTsFywGp4NVQ9PV6VguXI8VaUDbVCN+RVxG4pWGWIF+etyzHArDtj89blsflFSxo1EIAqKaXaDzUYlwKo3lzgHmpbE9CG+ugFPNc9NIXcmrN1MXJAqkwqTnk7ihqRjxSDikY8UWJK0vNVmFW2XNQsnNbxYyDFLtp+3mpAoxVtgQFaZirLLUe2hMdxEHNXYBxVdFqwh2iom7gWg2KA3NRhuKjaTB61hy3EXlUMKcEGaoxXODjNWVmyKiUGhkxO2oXagtmmnBpJWAbuwafuGKhkwKj83HFactwJvM2sKvxy5QVjl9xqzHKVGM0pwuhp2H3mDyKqJyakmYtUSgg1cVZWEyVwMVCetPJJFN2GmtBCrwaczgCmHgVGWzTtcB+6o8/MKnhTdRLAe1PmSdgDjbnNN849AKQxMBT4oznJFLQCeCRlHNRzSBiakbaFxVR/vVMVd3ABIc0F81GeKWMbq0stwLMEmRg/rTyfyqqPlbFTGZVTnrUSj2GLJKUHFMWUsuGqAzb2xTiCV4quW24hS+AaiEnNJgntQANwHrVpICZXGOaQMCwxnHele3YAY71b0+3f5l49yaltJXAZI8pjEa42/TmjA+yhH5xT5d0THjI9qikfIz2JqEwK06sr/3cdBR5xAwcgVKRuI35PPemzKuc9frWl76MAR8DsQe1NMibiqKVx05piq24FBke/SpSqZyRg0aICMu31pwTzVwH57jbSGBsbk6UkaO2SOg6npT06ALt8pSCT17jFSArINoINNhgjDM05DADgButDCJziOLae2GodhnQ7QTTWVadnmhwMZrjEUpcA1WLc1amHfFU5M5q4jJU5NTbc1BFzU9TLcCGRKiI21aOKqzHmri76Aw35FRNnNR+bg07dmtOWwhUbDVcjNU1HNWVOBUzAsrindRVbzMUol96y5WBZRgGrVtbjbjmsLzKelwwPBpWaGnY6pboAdaR7kY61hwTu1XQGZa0jqacwlzeYzzWRdXpOcGrN3C3PNY1wrKTWvIyWxJJ2PU1WeQt3prMaaOTWijYRv6DeExNbMeV+ZP6itcTBiDjhuD7GuTty0bq6nDKcg10C3AkiDjhW+8P7rVjNa3N6U+jC8UqTzn3rMd+TWpN++hAHJXv6isqZNrEd6lGrHJIWIUcCr1ucct0xgVn2wOc45PFaCrjaPTpTEhzgbjjn1qN92OnsamZdrGmkYDbjxnNMCs4IYnOMihcAMOT+lKwyM4pp+XNAh9pKSHTOFRuAO9TJKRg574qnasondT/EtSy46Yxx60xHUaZMiWg2kbu9WY2LnOO+ea57TpndSq/wANdHbLshUMTuIya0i76ESVtTlte1by72RfvGP5UXsPU/nVDS9XIlIlIyehqDxHBLDq07OpCu25W7EVkAkHIrV66GcXyu53r348vII5pkmqrBAZHOABWBDOZLVSTg470l5HJcWaiLLHdyPwrFLXU6XLTQjn1uWeXMgVwOhxg1c07UQ9xER8rBgc1z5RlOCpB+laejWclxeQ4HyBxmtW7I50rs9RVdyYB59aikBAHOCKfCflHb0pX3HqePWpsNMiDj2z0qATAZ2nnNR3LNC5A+63fFQBsHkfWs3ItIluJh5YO4c5rEadpZFbPC981PqblVVVBG7PBNZqSAHYylT6+9ZNmiRoqSWHTHvTLQ7pblmAB8zA/AClgc5+ZsHHNV7Gbc0pXndKefXmkUWnA3g8ZHNAGV46jmnHgknuMUi9yOOKRQ4AKCDSbAQR2z+lOGMEEZp4K7Rn3piKNxEwPOcetZ8oPRhjtmtt0yuM5FUZ7fcrDnNK47GaPlI7g9xV2KUxLkkbh0zUKxBBlzj0qbT7KW+uPSNfvH+lMnY0NPVrgGZ87R92oNSHBraaNYogiDCgcVjagPlNWlYzbuc5OcE1TeTmrdyOTVButbJGbAtTcmlxRiqEJzS809UzT/KOKAIxmlyaf5ZFMIpDJI3IIq5HL71RTrU6HmpYI1LRsuK3oGwornbM4YVsRyYFZyKRdeQY61k3khY4zVl5az523PUMibK7LmmMtTEjFRvzWbZkys3WkxT2Wkq0SRsoxUD4qeRsVUdq0grjEzzTgeKizTgeK1sAM1Ip5prU6MHNPoBajXih/lqWIYFNmxisL6gQ+Z2qF3NDdajNbJIB6NzV6EnFZ68GrkMmAKmohlumM2KN+RTH5FYJCI3eoSTU/l01o61TSAYlToeKhUAHmrCKCKmTGBpuBUrJgcVCcipWoDwAaU4FR7sVGzEnina4h7kGoiOaftOOaOKpaAOhbaasGQYqnuxSgk/Sk431GWGkUjFIkig1GMUkq8ZFKy2EE0nORVfeWNGCetMbg1qkkA9jSocVFktSZOcVVgLsSh+TUcsQ38nio0LgjGalkRzg1Gz3GCRKGGKnMZTqOKjRdgBPWpJLjcuKhtt6AJHsyQaglULJxTS/ORTwVIyx5qkmtRDzOdoXHNS+aQuM4BqBQCCc0xVaaQhjhR3osgJnOV+VyTQ1sw5LfgafbhIHO9gyHrjrSz3KumxQo9wOaWvQCIwy7flbJHbOagxK+QxIx1yOlWYJAYzvyCO+KatwrqVY/lTTa6ARJ5yJhW4/3ajzMzjd69xU+4Y4OfY1G8voMEepql6APdR0B5FMD+XgHPPU9qkSeIookyxA6bcfrThdxJwsVLXawDDt5wV+oPNN8/ZHs8tf94dacwSWQFiVB6kdqkaKON8KAw7Fuc0adQNkEHrSnmmEEUhbiuQBsoGOtUXwM1ZkaqMzHJxWkFcCRHxTzJVISEVKpLCrcBkvmZprDdSIDmp1UEVL0EUzGM9KUKPSrDpTNuDVc1xjAMUpbAp22mODRuIaXpVJNRY5qxEvFU7IaQvNOXrTttIODWdxNWNKwXOK2o4xisKzk2HmtqGZdo5rSnYaZFdRjBrAvYxk1vXcq461hXkgINbiMaVcMaEXmnv8zZpUFS2MmjGKtQzGFvVTwR61XSpDWLFexfMpjAZDlD0P9DTZ8TrvUYPcVVimMRII3KeqnvV2EBBuUlo26f4VNjqhPm0ZHCpU8CrsacZxzUaxFW+vpVlh8lM0IHGcnPWoiSFIzznvUrNgfQcVE3LE+opiEUcEVGeFNSNx24phBxg0gIF4uFxjBHJNWmBwNuCfUjiqVw211X8amGSgyefTOKsgu6UxN+ikM+eCe1dZuDdO1cnpe6O+hZxySdij0x1rqvMUpgY96uBEzG1+xN7ABkb15A9RXKJbxx7hIvIPSuv1BtoLg5yfyrmL4xtKWRsEnnirkTB23K8pXYQvpxVrTboRYVzwazSxycimK54HpUct0aqdnc6h7i2cbzbRucdx1PrV3S4I4ZBIR85GQO1c3YMpdWlJYA9K6CwuEmCxhtufujuKaVtwnK+x1MMmV6fNjOBUh3EDA49fSqdsyhVI57Z61Z8x+MKevOeMVRiVryP90u4jIPJqqE5q9KPlO5gSf0quV+UBsZz1xWM0bRZh6mfn2sMqKp24DjKndV7Wl8m6YjByAQD0NZ6u2d21Tg/kPqKzsXc0AoWNpDgAcdelZ2kuMOP9s8Ut9cKLYruO89+ufrUeiSANJGTz1p290L+8bRUkdM0FfxpUY7SvPrSn2rM1GLncR17ZpynJwVpWA6jr1pSOR3HvTEOC59xSFQWwfSnjhaAvcdKQypJYi7nRFXA/iI7VuQW8dtEI4l2qKbaxCNM926mpj0rWKsjCTuyvN0rGvx8pral6VkX4+U0yTmLpeTWe4+atO6HJrOkHzVohMjxTkXJoxT4+tUIsRRZqwIeOlJDjiri4xTEUZIsVTkXBrVlAqjKmTSGQIKlQc05I+KeE5qGMlhbaa0IpuKz41NW0UgVEhMfLNjvVctk5okBzTM4FYvUybH0YzTA1G+psSNfioGNSucg1WY81pFCEkOaqt1qwxqJhW8dBkNOWl2805YzmrbAcse7FWI4cdqIgB1qwGGKwlJjEwFWq0zVYdhVKZqIK7EQseabmgmmk10JDHipUbFQKalQZpMCwjk1IDTEXinkcVgxDwwpJCMcVXZyKaZDTUBjmcA1LDKKqnLGp4kxVSSsBe3AioJKCcCm5yaxSsBGQaFXBqbHFRMcGrTuIe/Aquck0rvSxkGqSsgG49anhTNKiBjVkIAvpUSl0GV5RjpULt8tSynnjpUDniqiAwGkKFugppOKmt3APNaPTURGsTDqKlSENzV6N4yMEVBKoDfLWfO2MQKM4AqzEFYYNVhleaVZivaoabAfcxbehqnjBxViabcvvVMud1XBOwglBB4qJiatMQUyetVnznpWsWMs29wiRbWXLU0kbt36VBHgON3SrCyRrk4yT0pNWegmTwQSXBGOE7k9qmZord1jj2uO7kd6qbnaMgNgemamtm8tSHXOe/pUPYAeeSRWHmIoHXAqiELZIHSrMrITgjj3FIrquQMDI9KcdFoBUOQanhiaZckAj19KmwHByM1EokDbIwFz3zVc10Mc0Pl8Rjcx6n/CnCNPLKsCD7UJEsbbpGLN22tUcj5ceXnPpS1YiSCDDAMwHOcnip5lPUTKw9DVZ8gAHv+lSA2sKcsZX9hgUmm9QNpuRULZAo8yjeDXKBCyFs1BJDgVoKBTJVGOlUnYZleVzU0cfFOcYapY+gq5SdgEWOpQgApwApe1YtiIHWkWPNSEinR4zTvoA3yuKrypir56VVmxRCTuMoMDmpYSRwaUrSYxW7d0NMnzxTM80zzKbvqVETLUchFWVumUYzVFDmpT0qdU9CQubtugNZ8kpc8mpJ+9VCea6I3aGkSCpFHNQK1TRmhoZYQU40J0oeseoiM9avabMBIYW6SdM9m7VnsaWNyrqwPIORVWHF2dzqBGQoyOaZKvUD0q1neFYYwwBqCVdrYHOeKk7dymw5xioyAM/pU0o5PGKhIz9aYCEEke1MPXGOlKx471HnaCaYmUbkb5Sc8CpLdm3AHp0FQqck+uelWowNpYDtjNWzMu20rC5Rx91SCT610oliZMgD5h19a49SyLyMr1I9f8AP9K6PS5FmsFZ+SpI5pxeopbEeoBPLYA9OMdK5e6H71mz93GK3NVuVjDYHHcnvXPTy7i5698VqQiH19aRCpYL61Gzk444oUhQfU0hl63T94oB4bitjTJSrKR83GRgdf8AOK56OdkMeM4Xk5rQtL0JKCFAIPFAHdwSkBMIRnrgdKs73xwnfvWBYal5hYJLk7zkMe3tW5HMCPlYEfXNAhQhAOeSetV7mRYsZO0VJcXIjnhj6lyaoaoQ8wQ5+UZxWcy4lXUGW7kAYZCDArOljihUkpgVaMbKAFyx9AMVn6gJivEZRT3PNZ7l7GZeXCtIdhJHbNNsJjDdo56E4NEkW3ovPrULYUEjqK08ifM7BZCWDYGD0xUueufTNZ2kyi8tVLNh0HNXRkAEAla55KzOiLuiQZBGBx60u45wO3rTGctxyAOmRQhLHC9QaQx6uScdOatxL0z061DEv7wZxzUrMI22A5x1NOK6kTdkXVbilJ4qssnFPD8VpcxElPFZd7901pt81VLiHcDxRcDlrocmsyQfNXUzafuJ4qudL56Vakgsc5tPpT0Q56VvnSh6VJHpgA6U+cVjGjyO1WEc1oS2WB0rPkQxsapO4mgbmojHk1ImSasJFmk2BAkXFO8r2q4sGBThBk1nzDK8MPtU4TFTrFtFNfgVnKRLKM4AzVRjzU9w+SarE1K1MmBNGaYTSVdhEh5FQN1qbtTcc01oBEFzSFOanApGwKfMBEI6fswKA1Iz8UasBrNtpvnVG7ZqPvWiiBZ35FQSdakQZFI60LRgVjTTUrCmEVomNCoOasovFQxgVYXiokwJUpx6UwUpPFYiI3XNM8upgKdt4quawyBUwamTik704Ck3cYpOaFAFFJnFIQsjYFVydxqRhupUTNNWSEQtGTShSoq0ExTZFwKfPfQYkJqZpOMVBGKVmwahq7AZIahKlqkc5NTxIClXflQFRY8nmhk2EVK3yyU51DCq5hCxkbak61GgwKJHAFZtXYyUgYpoIHbiqnnsWxV0BTF70OPLuBXkCv0pixHqcU8DDU7knGeKq9hELAk8VLBbrMSGOKZIDGeDQolxlePeqe2gErRlVOFDKvWmDyW4ZcH1FT/agiBSvbn3pn7iboNrVCb6jJbeFFQhiDnoaSaMRqTyQfSq7vs4zn6U6K6AG1ulFnuIhZRK4HK/Wop3dQIyBgDqB1q3P8y7lqsw8zr2rSLGRxvIeFJzU1tHJcSFfM2kDPIzmmqgVSBxu4J9BT41jRw4mKkf7NU32C5LLBJGR8gcDnI70/zYWPyoM45KrxUkc6yHCMXOM04RkKQI8A854rG/cCq6g9GBH90DFV2AU8qD9allAQ8gA/jUDvv5HatYiNo8GlU0xzQlcgywvWiQcU1c09zxQBTdMUK2KfIwqI8imtQsSeZUitkVVGc1OmcUmhCtTo6Y1OQ0ugErN8tU5W5q0+MVUlXNOADVOajkbFSAECopRkVqtwIWfmnx81Ft5qeJa0eiAnSpe1NQVIBkVztgUrgcGqJBzWvJFmq5tuelbQmkhlEVNFVj7N7VIkGO1OVRAEfSiQHFTqlK0eax5tRGc4NInFW3jqIpg1qpJoZtaXd+dD5Lt86fd9xV9VLH3rmYyUYMpwR0Irctb4XCbRhZu/uKk3pz6MJ1wo9RVfOM+tTt8zHk5qFxknH50GpFyeO/erlvYefbSSkYUDAHrTLWzknk2qOD95vQVvYjiiCKMIowBTEzhiuyUg+vWr8X3eBT9UtwsxeMfKeabbDIwe/rVEiuAB7VpWk6w2BJOFLYz71RkX5CcfUVYso1njktXOBIMD2PrRF6hJaGff75T13KBxVWO3XOXGSa1pIxZp5Mx3epFV2g2tuU5U9KtsmxRa1jB6ECmCGFCScn61qjAHOCaXYD/AKLhYyliibG0H6GpFtv4sYFaWxQeIwDSkblwRilcLGYhljkBBOcnPvmugsLqcovyZOO/GTVGOJA3zdK1YSBKir8qIuc+tFwsU0lnm1WJnJDeYq7P7uDz/Wt69hWSYtgA45NV4LKO41Jb4uQV52468Ec/wCe1W5yXJ447Gib0HFalMQOOdwPueKp6gAsB5GfUmtFwNvf6nk1TuIw8ZGDn3PSsb6mttDmJRuBx09aoygA7R1rSusqx3HGPaqO0NJ/nNaoyZa0y6NnLuxlW4NdRG6yLvibKkVygUKctwPSprTUbiF8RIzR/wB0VLXMXF2OnVTjcfXpT44uQw/EVW0/Uba7kWCUvBKeArjrWne6dMYGWCTZJ6kVHIU6hnXF3HbkojBpemB/DUUM57nJrN+yzwSlJR8wPWrUatUt2MFJt3ZoLNxU0cmazwrAVZgzU8xVzQTmpvK3Cq0RPFXozxVxdxkP2YelNNqPSroIpCRWlhXKRth6UfZxjpVs00nilYLmZPAADxWBqEeG4rp5xkGsi6ti7dKadhMyYY+avwxZqSO12npVlI9tTKRJGIuKcI8c1MBQRxWVwuV2FUrp8AitCQcVmXKk5o3EzNlbk1AXqWdcGq5FaRRmwLUK1MPWhRV2ETBqUGmAGg1NgHM+BVd5Kc5wKrMea0jECUPQTUSmnjmqsAhNNHJpTQvWmBYjHFK/SmocCkdqz6gRPTKVjTa1QEqcVOlV0FTrxUSAkxRijdxSBqzAnQcUNjFRh8UxpKmzuMfgU9elQKcmpgabQxT0qM8mnsc1GeDQiRcCnKwFRM2KZvp8twLLSCoHl96YWNCrmqUUhjlfigtmnrGM0NHgUrq4DFGTUoYoMVGoINBbnFD1AjlYls0K7GnuoxQFGKq6sIkTpSMoI61EzkdKFZjS5eoxEQCXk8VakICjaag2t1xUyxll5NKTArlmBpGf3qZkUHk1FIqAdapNMCPeWYZNXAGCjaeDVGJcycVolh5QA6ilPS1hEM0bgZIqGIEhieMVaExZMNzUDZ+6B1oTewyEcnBNSR7A/PanrbsImLKd3UVCYpCAcZzVXTEJcSsWwDxUZlOMKMVOLcg5c4FKIF5Kc4/SqUopDGhvLdcjf6ip2EUgyqgj+VQSKUQntnmn28W9d5baOg4yal7XETwNEjAlM4GAQelTSyoVOx8H0qlt+bBHzexpwgmPUjHp/wDXqHFN3bARpVPDD86PsoYfKygUxoQgyzr9KdEGI+RTz0ANX00A1DGSaesRzmpFYEVIuMVy3Aj24HSoJWYCrTECqs7g0hlF5fm5pwbNNdNxpyrgVtpYZMgzVhY+Khi6VaRhisJtgQsmKaODUzkVATzQtSSQDdQ0XFMRualJ4o1QFdkxUEg4qaV6iPIrSIFYjmp4hTWXmposCtJPQCVVqVFpi4qVMVzyYClBimFBmpiahd8VKuMTYKXaKj82jzKuzAlGKQ1FvoD0WYD2WoXSpN1NamroCueKaHZWDKSCO4qRxzTCOa1QFyPUCy4lTJ/vKcGr2nBbuYRgNt75rPtrKWY/KhxXSaVYm0UsRyaL3ehrFyZcYJCgRAFUelVLiXjA6n9Kkmcs+3PAqjcSglgvTHWqNTPu58nZ0X+dRQdcdqWdS6BI1JctwB1NaVnax2kO+4dGkIyAx+XB/rVWuJsYYD5W8464I71WBMb7l4I9KddTCV+BGQv3R5hNRrIeA6H2Oc0NdhJ9ya4kW5ALfe7471BORAmGycdMVKAp5XvUd388IHUjilcdjImu5fODrlQOgzV+zvhMdrfK386ovFg01IypLenNVdEm7uP93j2qOSVEHzflWSJpAQNx/OpUJccnpSC5O1+ocZT5R+dadvepKpjTOWyCfSslLcSEZrW061w+Auc96TY0jf06Hy7c8kn3qbYSCDT40CQBTxSq3FJ+ZRWddvXIP1qvNhYsKuPXNXyqnk1FMq7TxuP6VNirnG3oLSsvU559qpHbEC5HNa+oQeUZGOPxrnpWaVyT0B4rSKuRa70GyytMwK/Ko7ZrT0zgq1Z4XArT0xS5VQOp61T0R10YcruzrUtbe4gCzor8dxyKilmvNKAbebm0z/Fyyfj3FS2pK4Vs1adAUKONyMMVimYTV2QSxwaharcwEGqSw4pmgMYb+7swcxj5l/PFaM0YVzxTauYtFQQ81NHGBThinA1PIIeABUiyCqzyYFQmbB600ijTEw9aQyis1Zs96mV8itCS15tG+q+aXdilYLkjc1GYgaBJS+YKT0C5G0YFROAKmklGKqSSZrJiY4GlNQq3NSg1AkI68VVlhGDVwnion6GhDMK6h+Y1QkXFblwmc1mTR9eK0WhDRRxTlXmnEYNKh5q7kEmwYqJxU27ioZGqVcCCQVWbrVluaruOa3iMYDUgPFR0oNW0A40imkNJRYCcPSMajBpT0qbAIaQUhoBqgJlqQGoQ1SIcmoaAkoHNPUZp2ys7iIznFRk1M4wKrP1qo6jJ4xk1ZVOKqQNyKvqeKznoMj21E4qd2FRHBpJiIdtJjFTcYqCQ4q07iA4pQwUVFkmkbpV2AlWX5qsBgy1njOamDkUpQ7AT5ANNbGagLbjTlNHLYZI2SKYDgUjEjtTCSaaQEqlWYVYMSgAiqCkg5qZZjjrSlF9AL0bIFwcVFNIAcKaqtIaYHJPNSodQHuSepqNsbKGYE804KCtabAJACWHarpjQjAbn1plui7Tk4pqsu8/NUSd3oBHIjxtweKaJX3gr1FWy6Fdrc+9R2wVJ8MpYU1LTUQizzsxGOCMHNKrsuQvepbtsyYWMgL+tV9+WztIpb9AAwvLIPMbC96JJY4gUiPHrUTMx4OQKb5a57/nV27gPHMbKTndzTU3RjIJzSqu3GBk+pPFNZiG5xwaYEyNcFS6ZUeppZSXABlZiOuc0j3cjkICG7YxgUxwwIII46mlbUZA+5TzUsNwYgducnrUqMHUkqCF6ntTI0RpQAwUHue1O91ZoDXiOcZqfdgdKgiXIqU9MGuNgRyy4FUprgA1ZnXg1lXC/NWlOKe4yysm6pdwxWfG5Wp/MyKtwAtCTFSLJVQHNSqahxJLG7NNIpFNKeajYBV4NOYnFIlSZXFSxlWTOelCinyYzTAwFadBAyimdKkZsiojTQyaN6mUmoIhU46VnIQ8moJKlpjilECvnmnA0hFArUY7NIKKQdaQiQGlPPSprezlmIwpA9a2rTSkQBnGT71JcYNmNBp8s56YFa9posaAFxk+9accaRjAFSbwao3jTSFgto4wMAUs7YXC8UK9Rzcj2qolSKTn5WY96pTLxjHWr0vO7iqqIjTmST/Vx8tVC2HW0It4vOkGG/vbTlPQfjVK6vmZmEbkjPAVwQPwNRX+peZIRG3AGNyFl496ymnzx1H51psZ7lh5csc4PqWj/AMKDMq8YQnJ4JqqJFByePpTt2eckk9qQFmCZo2OASCefmzVppgyjHAPrWcBuHIB7j04pylgxCggFQcUmhpkkuxjnOajbGCe1MZjlg2cqcUx2JBx0pWHcjc5fipoThvWokTPWplUhhVElyEjcCDxW/p5RSMHt09K5ZXaMgjpnpWpZ3QYZJ6AfWpaKTOqEuRwfxqRCDWRb3IIB3Aj9RWhHIGHbP1pFFkgdqhlzj1/Sl8xUHPHvUTTo+QGyB1I7UNCTOe1xdgO8qS38INc7t9BXbz2VtdSAyDODypOBj1P+FLc2MUtlJGkMSDGASOc9sfjVrRWLjNROJVCx2gZJra0owWSkXUbqzdGpbLTGA81vlI7VsmISW4juI1dfpUuRpOd9EQ/2zYx4BduB12019f8AOHlWcLux43MMAVRl06KG6Vo8lSfuNyK6K1iiRF2RKpx2FTp0M9SHRrBrdnnm/wBZJ+gq5ffKAamjyD7GoNSBEIbsKaIkUd9OViap+bzVy1XcBQyUJIjMKpTb0NboiGKp3dtkGkhszI5avRNkVn+QwkxV+GMhRVXJJt2KRnpSvFN207gQvKRUZnqWVMiqMgKNWcmSWDIT3qNmpgbimlqxbBkqNUoaqqtzUoakJMnzxTTzSKcinYpooqzLmqM0XWtSRaqTLxVXEzFmXBNQ96uzpyapNw1aRIaHbuKic04niomPNUkIXtTGXNPXmnEVV7AVitN21ORTQOau4DAtJt5qcChkpcwEGMUGnsMComqlqAhptKTSVQxympk61Eo5qdKmQidDUlRIKcTisGIG5qF1zUm7mmMeapaDGRgg1bRjioUFTAUpO4wJzTGOKkxTHXipQiEyU0ncaULzUwQYq7pAQkYFRnk1Mw7UqxjrTTsIZGvrRIAKkIAqF8mhasY+NNwpyx/NU0EfyZNIRhqly1sAjoMU3YoFK5qIyYNCuA14yegpnlMKm80dKGb5apNoCJUOKa3y0vm9sVKkJlHpVXtuBWVDIakIZeBVoQeUOOTTJFIGcUue7AjjU5yx4pGeMHBH4imliBUeCeaq1xEygE5GaeZtnfn2qMT/ACgEdKeYlbJzUtdwFS9cHk5HvUgmDAlThj2qo8RUU63hMhJzgCm1G1xjyzA84pywM/zEqoPrTlSFCDJuLegpkjpzsB/E0r9hE8dqCu4vkegprxxqeIiT6moFmJUKARj360+SRmOSQPYkUrO4CLGzNldqY79hSNtY7cjjqT/hSCRj0Xd9KAGcnjaPT1qvUBURWXDSBFH5mmP5K8RhnPcmklVkGSOKdaYLkH0p9LjNmHg81OQDzVNZOealDk9642A6ZQVrKuUrScnFULnODV03qBS6UqvzTTSqpJrqAsoadvxUajApxrJoCZZM1MpzVVTip42rOSETDjmmtJilY/LVOZyDUxjcZI0uaZkmo0JNSqta2SEAYjrRuBNOK8VEwApKzAsxsKsK2RVCLrVtDWc0MlNMcilJ4qJyW4A5qYoCNm5oBqaGwuJz8qED1NaMPh+Zvvtj6CtClFvYy40aRgqjJNbun6SMB5Bk1ctdJS2AJHPqavAhRgUjaFO2rI1iSJeBTTIaSWQioN5NBtYsb+KUGqwcipA3FAE27FOJ3LzVdTuNSE/IaqJMitO3BUH2zVe9Y21ptCyB25LIQM+1WAueTjGe5wKyb51klYssSjsd5I/Krj3M5PoY8u6RiCSfXJyaiK44PH1NaghDp0yM+m0e9V54D8wQZOcfKOh781oQUNp7jNPV9o5HHTmlMWAMgfnzUbgjH070AX4Wyqn3GfX0/wAKVcny1IxnKcVQhmMRw2dp/MVf3qV3ryMhsj8jSasMSSJjFvUZIAOPXtUUZV4wOhzitOOMEMAPlU8nPY85rKNrMyGeJTs3krQgFyN+OmRkVL2U1Va0uFYE5OOePSlJnCbGXnpTsK4sswXbz1NRC62HK9artFLkAqaTynDbSpzTsgub1nfoduWxn3rZt9RThHPPZq5qx015iCASAMkhSa6qz0+CFI2kKtjjLp+B/nUaIrcsRyvLkFCEPfGQfSlMYQAKB6qoGB9f51M8Kon7pdgHdCfr0+tQy3ClGDTcbc8L82Bz/jSAQbWJJ5U8OQOW/CrUJfcmVBkYYA7KO/8ASs2K5RW2/KMchf7g6Z+uKkiuozkA/u2bOMfNIx/pmgRNKqxXHqrc8dKlRR+dK/76JmYqzLzhR932pI8KSCDgHvWctGbRd0EsSSkNt6c1Zj7ACjGQCBzT1UjBoAeg5x2pl4Mwsp71KB37GorwZUYq1sQzEeHBq3afLih4jSRfK1Lck1EI21DOARSI/FMlegZV8rL5q1HHxUakZqwhFIQx4+Kj21Yc1XJ5pgMdcVm3Y5zWhI3FZ10eDWchMrBqC1Q7qXNZEMkDVIr1WyaA9IkvxvUyms+OXmrKSUFJk78ioJFzUm7Ioxk1SGZ00HWqEtsSTxW+8YNRfZgT0rWIrGAYCB0qrLGVNdJJajHSsu8tyueK1JaM1eKeTxTSNpppajcQh5ph4NPzTGqkA9Xp+8VVzS76biBMxzULClDZoNC0AjIpKcabVjFBqZHxVenqaTVwLqNkUMaijPFS4zWLVmIYTTGPNSkYFQucGqQE8ZzU6jiqkRzVyPpWc9BgeKjZuKmYcVVlGOlKOohM80pkwKiGaDzWlgE3kmpkJxwKiUDNWUIxxRICM5700jmpS4qF2GeKSAnWYBahaY7qaATTjESKEkgF3gimlc96jKMpxSksBVW7AJjBpXJxTNxzTw2RzVAMUAcmp1nI4Wq5OaVRg5oavuBbYvt3HmovNeRgrUC5PAIyKsBEO16ztbdAVJUIb2pi+lXJ2DfdFVSjIc4q4u6AcIM5+YUmNnQ8VaS2ZlDZ60kNqWmPmEbR61POu4iJWyMMKTlHwvQ1ekWELiPG6qW0+YctyOuKSdwGyEbSW6jpTCm2MMx69BS3DJnCjn1NQElupzWiWgxWbpinxCTdvVAw6c4qSCOMDLSID6GpJZRu4fcO2KHLogJU3uwVmVQfQ9Ka6EOVVgwHfpTQJCM/dHqajeQA4J3fhUJdhE2xsfdBHemJEEl3DgelLA7Y6EDtnvU20P7Gpba0GTlcmpEWoQ2Wq1ERisGANGdtULpcZrVY/LWbdZOeKcHqBnheealjTmgDNSJwK6GxjivFRtUuKjcZNQhDc0+NsUxkPanIDVO1gJy2RULoTU6D1FKwArNOzAqoMGrKgVC+M1JGacu4Cv0qs/WrbqSKqSqc0QAVDVyBS5FU4kZmAAzXVaPpWVDyjn0py3KjFsr22ntMB8v41rWmiRx4ZgCfetWKGOIAAVIWpWNlBIhjto4xgKKlUKO1JupCaVzVISYAis+QFW9qvsciqc5GDUt3KRVkYGoScU5yM1CxxQA/dmnKag3U9OTTJLAbFOzxg1Dmnp196pCYyViqu2cADj5dw/KsNpNz8N3JwsVbGoEJbE5AyepYjNc4zjn6Y5JNaLRGT3LRkGRvUn1Lt079KcCCB/GFH0XPrVAzovQY+g5pGugR8xJ+vNMRoEQNtTzRu6DC/Kfb9DTJYonJAGxh/A3f6VQN6o4wzDuD0ph1AYC7CVHQE09Q0Lc1rGQ23krwVPX8PzqskbwYZTuibqPSo/7QY4BQnByDnkVMl1HJkHK7hhuP1p69RaGrp7qzqWIK+Wc/hWtFHElqiKpxhZVBHvyP61za43oI5PmzkkdCK1Y70q8GHBWPPQcmoaKRseVC2cYcAb175U9RmmS2Nuy8KjFVz9U/+tVOPUPLMS7D+7zk8HA9Kkju8CJWYjJYYweVPrmkA2bSbcvkqcJ1I7g9DVS/0eP7QgXAYLyAOD71ox3SrKqltygmLnuDVS71KVJzbIhaSIBRhSxPfPFUrgyW1j+zwcoGI4BV+cdOn0oa/AUYZ4/ZkyPT+lY8y30+547Igd2PFQyWGssT8hGeyt1/xosK5rNqZKn7oPqjbf0NRy6gxGdxODkB0B/WsVrPUYhmWOUZ9RmlihnPBVvp60WC5ZNw2W5IDctn+I+/+FSQ3Uqzh8kMOM4y2PT2pn2dtpwCp9ByTT0iMZ28gnqijn8TQM6KwkLQhCixkDOwNnH+0T/SrcXVt3IzxVOwBWEReWgK87F/DkmtCJdykVEkXDqSR8deR2qUnaR6VEifJkVPtJQfSkhsVTz14qK5IAFIzlcYqGSTd1qkQyKRqhJ5qVgCKhYYoESo+KczgioAaa7UhkwIqVXFUS+KUSYp2FcvNIKiZxVYyHNJvJp2EOlk4rNuXzVx/mqtJFk1nJCZQzzTxk1ZEA9KXyvQVnyMkq4NLtNWRGc9KcI/ajkYrFLDA9KkjZqsmL2pPKx2p+zCw5GNTLmkihJPNXEhGOlHIVYgFPC5qXyaUIRVKLAgaPis69hyDWyVqvPAGHStUgOQuoWVjgVVII610tzadTism4t9uaexNjPPFRMc1LJwcVC3WqQgptLmkzViHLTjTVPNP7VLAjNNNONJVDExTlFNpwNDAsR4FTZ4qqjc1OG4rKSEOc8VVdualds1DjJpxQD4m5q/GwxWeowanV8VM1cZaLjpUbjIqLdk1ICSKi1hEZTFRPkVZOKjcAiqTAq5OamyQvFIAN1S4GOKtsCvubNOTJPNSiMUp4pOQE0UYPWnthRimRNmklGay66gGVNRTYxxTkXmmTelUtwK560AipfKyM5qN4yprVNMBnel6UmKCKoB6OAeanDHgDpVWNN7gVcbbGAM5qJWARuADmnDMo4HSo3YEe9TWuU+hqHorgOSZgNrDGKieXk5NTypkFs1TxvbAGcUopPUQ9ZFCN8pLHvTOgzyD709pdgClcfhUbuxGcGrQDDC+MhWI9cU6CM4dyuccAe9WIppHGDGSB3FNlYqRwfpmnzPYZDHbPI/KnBPJq00UcA3KpLDpnpUYupAoVRgD0p0Zknzktj36Um5dQIHkZz835mn2rRuxV1yOxqZbVGAaSVAPQGrtnbQ7WxwPU1M5pIChJaOhDQninbwpw3ytVmRGjLbOVqqyeYCwqVLm3AtbKli6801CGqdEBNZSYDyflqjct2rQCDFU7lV5qYbjM4dalC4FMK/NxUg6V0MQHNNJzQWpvTmiwDg2KcCKgd8GkWSnygXVIokcYqBW4pGqOXUCN25qeFhVcihX21o1dAaO4YqB0yeKhE3vU8B8xqz5WgNXRLISSgsOBXXRqI1AWsbRo9iZrZQ5pnRBWRJmkJpCaaTSNBSeaaWppbmms1Qy0SBvWqtx3qRmqKU5FRcqxnSnmot3rTpzhjUDNVkDi/PFTxcrmqW75hV6MfuxVIQ6nofmx2pg4HNNib94c1RIurKxswqls56KP51yrREM/OfXuB+Ndbqa7rQj94RxwpxWEoDNs2jODhOy/U1qjJmUYyccHnt/jTfKZhx06Z/wrW8oEHjKrwSOrnPQe1IsIDsDwQMnH8I9KYjIFuWOGwMe1WFsD/dDfQ1oyFE2rlVJz8pGRioWkQKCVQkdSpIo5h2IFhRSMb0OehGRTmjU/eVCcdVODUEl4E+WPJ9yTVZpHc5LE0tQ0LnmxxsMnP1pwnDSFiwz2NUdvFLsJosO5pCTjrx6Z4/GpBcyAff5PGe/wBBWUAy9CRUizSLznP1pWC5rQ3BebkZO4ADH3f/AK9WhrixSGOSIxqrHY+Oc+/qKwhdOo4GCPyrZhaK6iAlUfdDE454OD+lHqBaXXFd2dWVZOOhyrj+hqeLV1Bzn93t+ZMcofUetYmoaAyK0ttllVipH61kxvNEeGIPpTsTc72PUBIdhCu2PX76+o96sxpbTxj5VZX5GR94defpXDRXcgIJyCDwR2PrWhbahIjHBG3qVbOPc8UhnUSWEWwqoVfXBAzx/wDXqvJYgYZOeeQq9eveorTVgUUGaFT3VELGrhnDNhRNJjqT8q9KABYxFGE2gAD7i9RwOpqW3Y5wfwPrUQmSR8KwK5wAOB+fep0UgZU8qelZy3NIbE6fL9Kl9u1RRuCc9/SpR0qoiZWuDtVh361SMmRVq+DAgjoazJHKtQvisJ7E27Jp45FVFlOalWSrsRckKioXBqQvSFqLBcrtuoWpGIqMuAadgHAHNPC5FReZThJ70rASCOl8selIslKXosA0oPSmiP2oL0gejlAcYx6UoQUBxS7hRYBRGKPKFAcU7cKLASIoFTgDFVQ+KU3GKLAWTTeM1Va496aLkUWAucVG1V/tIoa5BFMBJ1BU1h3ygZxWrLPkHmsm7bdmkxMwpj8xqAmrNwvzGqrVUSBDSUUVYxy0/tTBS5pMQGkpc0hNAhDRQKdigYqnFSB+Ki6UFuKVrgPZqbupmaKdgJA9OQ5qKpYiAalgWI1zUwXiohIAOKXzeKxabEEjBarPIadK2agOa0jEBd5qWNyTio1QmpEAU81TsBMTgVFuyetLLIMcVBuqYoC2suwUxrjJqqWJpBk01BDLZmwOKZuLGogpNOwVFFkhE6y7eKa7hulMjQscmpCoUVNkmBXYnNNJNSnGamihWQc1fNbcZDAhZqmkiYc1LGiRMOammnjEeAOazcrvQRRh5fBqy4KrgVWD87gKkM29cd6ck2wJBudcdhRD+5c4I5qIuyDr+FRBmeUAHk0uW4FueUY5TJPSocEsFJ5P6U9mKcEU1XHXHNC0QiPbICQzNT2CIACc/Snxh2ZiWVE9TUb+Vu4O79Ke4ySGGKb7rnPdcVZkkRYPLLfLjGO9ZwkfdtjyPQCnzMyqA4VT6DqfrQ4NvcC5b28YTzZ1Kr1U+tW5NRSZBEoVSv61SikaaAGTmOP+H1qokbTzHyxgA+vSo5OZvmHsawkBQg8VAGT7o61Xk3w8btwqMSAurEnipVMRoIhWpkcr1pO1Mc4FZtXGWhMp4qC42kVTaUqaRpSw61Sgx2GtjPFANQtuzUiKxHStLWEMd8NSFwRTnhJ7VGIXz0q0kOxG7UJ1qb7Mx7VIls2elV0CwwHAo3VYa2OOlReQwPSoCwzrTGU1bWA08W/PSlcLFNIWJrSsbcgjNPjt8Y4rRt4to6U9xqJsWYCQCp0lGazlm2rtp8bknNZnQjUDZpaqxScCrSsCKBkbA5pj9KmYcZqJualoaId3FRs2M05/laq8jioaLTK05yxqswqZ+WzUbirJZEo+cVor9wVRQZcVe6AU0SNc4WmWnzz80sp4p2mxkzlieAKoRauFLqykHaRjg4rnHUpIykAc/cU5LfU1005AB9awr9Od6ZBPUAcn8apMlrqUzKVJAPzAYLDov0phmVWB4GPug/zNQO/BBI46AdqgWCWQgnP1qiSy10qKVDZ57dTVSQyTZParKWJJHBz6mrX2Qqo44FFwsZZgI6jmhY+ea0Wi+X3qHytuOKXMOxB5eT7U4R8E4yanWPJ/SnmLB29u9K4WKhTI9zSGPsKsFeuOmcUuAOvpTuFioUAYVdtJTGnI4AI/A1EyfOT6VOiYX3BpiN7SrouSGPLIoIxnBBx/hVHWdJEchmgXg8kDtUunEJJuz02jAPv/APWraDLdQELls7vfODQnYVjixCoyOgAwTjoD0pyghwByfVT/AErdutMMTF4g23syjPHoRVCSzO47hHkdSV20wK8crq/32G3p8+CfzrShlJdXyjHOMySFj+QqibeQYGPycEfrVyxDmXaCVUcEjAz+VSx7mxAQwJc7j27Y/DtVpTx3B9RVKMg5wMHpU0YOecj+VYt63NkrKxaVmJz+ZFWUb1PNVV3DkjB/nUqDnOMfjVJsTQs/zAjFZM8X7w1slcjJ61Qulw+auO9yJbFDZinintikFaGQ2gmlIpMZpgMbpUTZqxtpCgoAqMSDQrmpmQVGUAoAeJOKN5NMxUipmgCNmNRNIQetW/JzUTwA0AQiY+tP84+tJ9lOelOa32igQCb3p/ne9Vn+Wo/MoAtmY5600zcdaqGQ0xpDQMstN70wze9VHembjQBdM3vTDce9VMt600tTEWzOD3qvMwao91J1pWAqTJkmqbpg1qumRVWWLNJaBYo4owaseXTTHVXFYg5pamERo8qncLEGaSrHk0nkn0ouOxGi5NTiEkdKkhgOeRWjDb5HSlcLGUbdvSo2iIrofso29KqTWuM8Uh2Mby+adsxVox4J4prIKLhYqlc05UNSFcGnrgChsTRGM04A0pIpM1JNg25o2DvS5xTWejUQ7hRULvzxQzE00Lk1SQwOTT41BpGFMDEGnuBMYhUiQAcmoFkOanWQ4qHdADlV7VE0gpXOe9REU0gJhMMU15MiowtPAFOyQEeakjkYd6T5aTIHSnuA95Ce9RliaVRuNOMZHNGiAtQxjyfmFEYhTJPWoRMxGypREMc9aya7iI5nVjxVfo2RT3Vg2MVNAgA/eJ0q9kA63SSckk4UVHIu59qcVP8AaFjPyLioi6yPnofapTd7iAKq5DSZwKgbknAzUkiKP481GC2dq55q13GPtYfPmCbtvf61el0/cPkxSw26IFYxHf7N0p0rmP7gYt6A1lKbb90BkS+VE0TDmq7hYznaPqBVlRJcsRkIwGTzSPZyqRucEewpJpPUCsX34680BdvUVZFsQMbQf+BYpjx8YHB9DT5l0EW4t+easmLcOlWRCB2pyr7UuU6OVGa1pntSCy56VqbBnpT1iyelUgsjI+xnNTLbDFahh/2aTyx6UWuFkZrW49KVbUelaPlA0+OMU7BoURajHSni2XHSr+wYqFhg80WDQqmAdMVGbfnpVvcKcgBPNFg0Kq2w9KmFsPSriIPSp0RR2osFygsKr1FTKABgCrTIpHSoiAAaGgTKMjESVbhPyiqMx+ep4JOgrJmiL2SozUkU5JFNVgyUwDDcUijQ3blqPdio0Ygc1WluQGxmmLYmmIxWfO2M1K1wCOTVadwynFKw7kUb7jipdtU4yVkq+nzCkAyOP5xVpuKYq4OaVjVITIZulWdMUCN27+9V5BxV60AW2GOM0yRJeeo/KqdxDuB75q8zjpzUbhSKBmBNYjl1GfWmxKU6gEVsugHI5HpVaWDKEx/iCKVwsNhi3/xY+lSvbnGGk3AcAVAoKEByyfXpVoAkAkgj1pXHYiazWNeeSe9VZrfZk457D0rRRwHAYZB5GelTOqTAbRwvU07isYXklcHpSlOvrir00Jz8o4HQ1F5O3JPQ8VQiiU44HeomTj61fKAKT3JwKY8OQ2OqjNMRTxlyfWp4hk/UU1FDSD0xU8KkuDTESQbo2yowRtJ+m6ugtSI1+YNsViyuBkc81gupR9yHbxycZ/TvWhaTFFDKHUf3ojuB/wCA0xGwY/N+fAY44ZDg9O4pkiBUAJOP9pc1XN4jrw0bDnIOVJqN7sQrkDPTaBJntSEMvSscRVQhZugMXtVW3jMY2p0PX2NQzzNNICxcjOQDzVyFQiKM81nKVzWMbD1ibJZSSDzxVtG2jcOh6g1EoKcqMjuKkjIc8cGs7mlh68nKk47VbjB4/rUSRdOKsIAntVJMTY9hxgnisvUW2EVq5BHX86zNUwI+g61qtzF7Gb5uTT1bNQKDmp4k55rQgkUZp3AqQDiq8pIFAClwKYXHrUHzueBTvLbFMQ5myaFXNNVCTirUceBQBEFFOGAalYAVE2c8Uhi7wKeqg81CFLNVuOLNIBu0CmSgYqw6FRVWRSaAKNwBzUCx5NXXtyxyaVLcZqhFF4OOKruCDg1ufZhiqdxa9eKLhYymGaekWRzUzQEHpT0hOKYFd4xioGStIwECq0kRz0oAp7KNpFTFKAvPSgQzbxUbJU7IQKZtLHFFhlZkFRlBmrrQnFVyhz0oARYxipEt99PRcjpVuBcdqQFYWgAyRUbQgGtR8bazZ32mlYYRqBV6AYqhC3OavRPxRsBcUAiopYd3alWUVMrBhTuIyZrT2qo0BU8iuhaMEVVltwe1FhmG0JPammEitaS32jgVA0XHSgDOaI4oSLJxV90GOlV+FapCw3yBioJIsGrodcc1XlYGhA0isEyaGG2pAaZKaolohZqZSmkNUIUHmn78Co6KLAKWJo3GkopgLuNGTSUUAGaM0UYoAfGxVqseYB1qpnHSnKrOeOalxTFYtRsm4cVbkIKjyxk1QCsuMjFXdzGIADAPRhWUkIrHcHGSB9ancxonL729BUKIDOFl5zSy2siv8hyp9e1DtfUCLcHJ3DaO2KUFFGM07yXHBxnGabGB5wDDpzg1egEjQ7gGxhfepImaJcBAfemzTFmJAP0PaoRIzcYNRZtaiJ3umX0Hpg1GrTMSwHyngk8ChECyBnAYD+EmllaWQ9RjsB2p2S2AcWYMBHkDplc0Spco2GJwe+eKA7LwTk9BnrU0srtHggHjmpvboBGrPjlsmmszA1GJexBpd2QadgOtRd56VOsQx0FC4U1IJVAq7G1yBowO1EZGcU6SXg4FQbyOcYNFguWsjFRnG6q5uQOoo87dyBRYCbjd1qWMKD1qmZD+NSxNTEW9qmo3jzVi3jElWWsuMiiwXMZ4wvQUxTg1fmtyvWqjR+1ADw4A605ZwOpqAoVFMAOeaYF3zQRweKicgKaVAMUki/KTUvYa3M6RsvTi+0ZFQSttepNwaOsTUsQ3uODVyO4DGsXb83FSrI6VNirm4z5Xg1lagWUbxT47kleTTLiQNGQaYdDNa9JGM81ctpQ6cmsa5G1ziprG4IfaTVtaXIT1NPb+84q9AOKqJyQauxdBWZoSmomqQ9KiNNEsjYkkCtNEKxBegqhCm+4XPQc1pON46HApiInVqgYsOOlWNpHbFNcEjlfyqWyiIb8YIBp8ca5yCM+lKqZ+vbsamT7vJJagYptlmTBUAmqElk9uxG3K+/Sti2lXAVvwJq08asMYHParUVJEOTizmHQjHqKkRmz179PatC9thHllXms1VIJO7PHQVDVtCk7ljep7Z9KbJCrkqDwDmgKQoOPxodW5IpXsO1yhJDsPPrTSQQSOSRgirUihwcjJqhKCjdcVopXIaIkUAmrUKcAjoKpLNl8E1p265QY6etUiGJKmVxUUe1XAIDP0GSVP5jrVtlJ7VE8PpxTYkNa5dBlnLZzxkNVd5GdAe2eSB1qU2pyNx49PWntCVdFXoO1ZyZcUMjyQrDk56VcjO5AcEEnIohtirDC/KePxrRisN554HWs7N7Gt0tyrHk96uQw4OeTVgWYUcH8TSMm3jdmnyNbhzp7DlBHT9akXA+8aagH0qUAdqpEsQ+hxiqN9HuiYdavn9arTrlSp70yTFSMkVKoK0+NcE5NJL8oNbGI4SgConYMarF2zxTTI3SnYC2hUGlZhiqQMg5Bo3u3U0AWk5bip87RUMC8VYK5HJpDImfcfamsaVhjvUTN70APR/mq/E4x1rKGSetTx7gM5oaBMvSyqByaqmVSetV5pW6VV3tnrRYLmmpDU7AFZ8cjVZD/LRYC5GQRRNGrLVaOXnFWN2RSAotbjNAhAxVhgN3Wo2x60wI2Tiqs0fNWz9aYU3UxGY8ZXmmDr71oSxcVRkjKmmgGtSR/eprZpAcUxEz4xUAj3PSljUsRAFIYCIKKcjAGkkbioA+DSGXCQwqB4QRQsoHel80Y5oAgMYXmjzdtSsN3So2iOOlAhyTc1bilrMOUPNSJMRQM1hLTtwas6KbPU1OJMjrSAsMoaq00POQKesvrUqnIp7gZU5I4NU3ya17mHdzis94sGkMqEkConbNWpF4qqynNMQ3NRtk1MFpTHkZpisVaSpWXmnJCWp3EQUVYe321CVxRcLDaKXFGDTEJRS7TS7TQAgGTTyoAqSNAoyajfrU3uwI6lhmMRJAzUVFVuBO87SMOKtQzNGm1lXDdVPAqjEcOKsyzIcYHNZyj0sIlkKMOCVPYnnFWYWLqFkGG9ex+lUtxZegFMR5A/yZ/CocbqwizLw+1jyp4pMK7qTkEGiUsUzJjI796YrKy4DjNJbATskRjIcHjpjrVcMyMFSNcetWVy6jcuG/z0pWjB2BVzjrxzSTtowIltskvNcJGp5wDuNJK0QGIQT/tNR5URYsdyr1IHPNKPLyRGFyT1xnFVcRHskGC8bkeoGAKUzoq4zk1cGoloxHOASvG5RxWfMFaQsuFHr3pK7eqHoJlTIrFuM8jFKS8kpZYjs9MUi3KQn5IlY+rc0PfTSdSAPQCtLMDuC2RwKgOd3JpwbjpikOKoseoHekdBSB8Cml896QyvKoBpoyKnCBjUqwAjimBV605WANWPs/rTDbjNAFizufLkHpW5HcIyVzyQY5qyrlRjNROfKXCPNuaU2x+lZ08eOgqZGJ706Rdy1kql2aSpqxSWPd1oMIHapPunnil3itzAj2gDpTJFyDUjPTM0AYV5lHOahjm+XGa1NQtd8ZcdawGyjkGs3E0TLqy4PNTrKHWswyZp8cuDU2KuaIRsZBqKViFIJpq3BAxUMsmadguVZssaiiJjkBqZnFRNjrVohm1bSblBq9FIK5+C42kLmta3kBAOaykrFpmiW4qIHk0ivkUwthqSGy3aZLsfSrhfPfFVLToatbcnGBn1qhCqmcEEn60/Yp/hII7ikVQAPmxUiLzw3FQWIEBxyGFP2BQMDHtShc55FGD0OPzpARk7SSSCPQ9qs283RT07d6rOuQQT+NRoDGeO1NNpiaujUljWVCDzmsmW0EUnyDg1oW0u7vkfyp08W457egrVrmRkvdZmlCMjoaaFII44qe4+XnGQKZ94AL0NZNW0NUyvLGSMgdPSqU8bMpK7TnrWljBIORUU0B6gc+opIGYn2ceYDgZzWrCmQOMcVHHbkzcjnH51fht2wARitoGUiEREnofrViGBcgFc1bSAAe1SpGAeB1q7EGfdRKE3bcAc4qrboZUUuOc5rSul3YTqKbbxhAARUON2WpWRYgiWNexqwtMXBFKWwOKu1ib3GTSEAjpVcNz70+RsnrTQnBJ/OsJttm0VZD0kAPzVKjgnA5quIyPm61IARgrzSTZTSLO4YNQSkY6ZqRWGecg+hqKUYz3qmyDIlysjemagkfdxVudMsTVMjk1stjJ7iFeKBHkilBNOXrVEjxCMUwQ/NU6nIqWJRnmkMg2sgpgmPQmrU6ZU4qktu7HrQAsjnHBqDDE1b+zMBTPKZTQAyNOetWgoC1EsbZpXyo60AVpyNxFRBc0rtlsmlVqYhQh7VKoK9eaWM5+tS545FIYIMkY4q4q8VTWT0qwkh4zSAJYxjNVJBt71edxjGKz7gkscUDIDIwPWlEjY61EwYnpTSGxTEWQxbvUUq8VJAuTzTrhflpDMuQ4NRjk0+Tqaao5qyQYUwMRUpNMx7UAGdx5NPMQIqMcMKvRqClIZQK4PWmk+9T3K4PFVuaQFiEZ71cEYKVTiBqxubGKBlW5j9KrYIq5MpIqqwOKYhol21Mk/pVVhk0gU9qLBc0VkB71YjkYD2rLjYg1ZSX5cZqRluWXIxVR8Gg5I60n3etJlEUiZHSo2g4qxnJp5QEUCM5kw2MUmCeKu+VmmNGF5pgUmi56VNFhRzU3ykdKjZQOlFxWGTsCPlqmVOelXCmacsIx0p3HYo7fanqoqw0Q7VEU5ouIYUGaQ4FSFeKjZSelAEbOaaTTthz0p3lkdqYiMDNBXFShacqK3BouIgRSzADrVg2jqNx4FSxRRxncTginSzM4xnIqHNt6E3IthPBOBSifyRhf5UEnbkqcetNVUKkkcUvURE0rO2TSl8YyAT/uinbNw+ReKWFT5nzgjHNXdAWIQRz5gAx9KjM2XBJpSQ+dg6ds0wspXBXn1zWaQEyS9u56GoiW8zhdxx3FRjgEEkA+1CMysCCOOhqlGwAHDsc8GpRAzIcGo2aINkpn9KcbggEx4Q+lDv0CxG1uyjLkAfmajPovSlaUnr19TUlusRYb259DV6pajO48sd6BAWPFRNdAHoanhukPBGPrSLAwECojCCelXDKrD5TTQVzmgBkVqByalKqoqTzVC1VlnDHAFACvKqmozMlRsC3amFfanYVyykyHin5yeKqL8pqYPWNU3pl6LFTEcVUhkqyHyKwTNmU7lSDkVX3e9aEqbxVMwYauiEro55xs7kYy1BDDtVuGJfSpWgAFaGRSCGRCGFYGqWhicsBxXVhVAqnqUKSxH1pNXKWhxTEqaFkqa6hKORVU8UhllJDUpwwqkr4qQMSODRYdwkTBpgbtTmbjmoS3NNCHng5FXbO552k1RByKFJVsik1dAnY6OGXNTZyaybabcBzzWhE+etZbGhrWpCxCrK49cH6VXg5QDOAKnG3HzAmgZMqKw+U8j2pRkcHp9KEIx8oI/GngnnqR+dS0O4AHGc01v8ikLhepxTXYf/rqShrkfjTMjeO3qKcTkccEd6hLKRhhg+opDL6J5ZDKOD6VdB3LWVHcBY8ZJqa2uVL4B4PauiEkYSTHyqMsrdaz2YxEIRwDwa0bsEHeOgHJrOuJMP8wyuKJoUGTk7gGAyfQ0m3/9VELIQEP1z61JhVOM9ehrPlNLlaJP9IU7eQe9akcOACRg+lVUXdKMA59q0RwMY/GtKaM5iYFIwAU0meTTZfu8HpWhmU3P74gn6U5WAAyRUG752ZvWovPzIfSkykaauAKa8yr3yaz2m3EDdgU1pOQAR+JrOU2XGJb3bm559qkMmO351XiAPJOT7U8Mp7msjUmEuDwAfoacJQ3BGPwqMEZ+6KkX5jhhxTQMnT5h71HKODSqApxgr7ihzlT61RBl3XBB6Zqq2MVbuxuxn1qt5RY4xWsXoZyWpXLAd6cucdKlazJORVqG1OOaoggiBYdKnAKjpVpYAo6VDKwWkMiIZjjtU8UQA5pqyIQORUpmUCgY2TA6VXZSTmpmlUnrTdykUANijyeaSeNQDTw4FMlkBGBQBmOpLGkWJu1WWwDSo6+tUIjRGXk1Jk4pZHAFVml54NIC3HHu61Ps2jrVOKfipw5cdaTBCOWqBl7k1K6tVWQP2pgP2CghcVWZpB2NQPM4PQ0WC5fV1U02Ziy8dKorM5YDBrSiiLIM0BcymUlzmnhBjpVmWMBzTCMDimIgK0vl8U7NOFAFeSOrNsDjBpj4pYXAagCWW33CoTbDFX8ErkVWkD5IpDGxwAHqKn2KPSqbO6GmtJIenNFhl0xI3pUE9ou0npVZbp0OCKfJe7kxQBRlQI5FIAKJJC7dKFpiAqAKiZiD1qRjTAhY0AWIGzVjyi3WoreLHvV4FAnPWpZSZUMW01PFGG60yaRSRinwvjqaQCSqE7VnzEsTir07FhgVHFBuOSKYFNFYDmnY5q60Q7CoWjIYUgK7oW6cUgJXirzKojPrVHazMcCgBppPKY81YityzgnpVzylGAadwsZXkkjNCR4zmtedESLOAKy3IYnFAEXlknKjNJIMdRipYRJEd3b0qSSYP/BUuTTJZUhCF8P0NaUdrDsBUjNVFUP1wtSt5cS/KWZqiTb2FuR3dqSQQ2faooYCzbepoaaQnio2kkzlSV+lUlK1mKxZZFRf3hx7CqbsFJCZxSPMSOSSfc0IVk4II96pRtuFiSKSNU5Jz6CmYklYlcmle32j5TmmrM0fGKF3QtB4V42DYz64qPeATx19R0p5ldxwMD1zTFVsMSpIHf0przELnPen79q4I5HcVECCfl4NSfKBh2oYETEueSOffpSeWODu4PenbU3ckkUxnZj/AE9KpeQ0BG7hVzjuBVyKxKrucnOO3also2jJkYLz0BNEl08j4PT0B4qJSb0QjrTAFHbNQMhBoEjt1NM5DZNXY0uTqGQZzTknFMLKU680kNsZGyM4oAnZwR1pq7aWa2MS561WE2ONtAi4MUhUGq4kPXFPWcelAEyw5oaPbTUugDgipX3OuQMVnNXRpB2GI2D1q0jcdaz8kNViOXiuZqx0p3LoagqDVcSU9ZKE7BYeMqeBSSSYHFLvGKjZgTWiqNGbppkLSPUTuWGDVohSKhZRmrVUh0jFv7TeCwFYUqFGIIxXbGJSMGsfUdPV8sg5p86bE4NHNtQshU1NLA8ZIIquy4rRWZBMSGGahPWm7iKTdzTsA7dil303INGKAJ4JtjCtm2kDAEVz2CKv6dOfNRCepFROPUqL6HaQMQoHt0qwsbHk4xUEH0yfarSHaeRzWLNUOwQOmRTgxC/dI/SlVuoxxQWO3vikOxGX3cN+vNRNlc+lSSE46Aio2XI4yRUjI2fGccCq7zjOMfl1qYk9ByKqTHax28EUhjwwyeRg80kkjQuJB901mTXTqQpH09qe92GhCk8gVpFamcmdCt7HcWxJYBh1FMaLJGTxXMedz1NaenX+/wDdTN/umtr9zKxppHsA/wBnpRIwYegPUCgSAg8//Wquzja2Oo6ik1cEy5poLTEbuB0961nHAHrXPWku2XIODW5FL5kQyeacdNAlqMJx3qC4k2xk5pZGIbPYVm6rc+XAwB4PeqJKb6gpeRV544ohkyuW6d6wXkwcZq8k22AHPJqWUi40hL8ZxT4nVWB6+oNUYJmkbaFyTV5IXBHOO+KyaNUy7C4zwAPYGrAYsPkyaqx7iSAScdqsR5HzcrmoaLRYUEcnIqRWXoahDknBGakAwenPpRfsBZTkdabLjb1wT+tIhPB4p0oyhq1sR1M6c8evNMRsYzVm3iE8zRt6VHNatCSD0rSHwmc/iJI3SpQ6DvWeoIbrUhPFUSXWlUiqEwDsaUscUwHnk0ANSHB61K0GR1prPjkUv2jigBghIPWpoocmoGn61NaT5PrQGhLJDtWqEpIJq/dTYT3rLd8k00JkbliaYA1OLUqn1piG+XI1MMMgPIqyJlWka4Q96AIlUg81ft9oX5qpK6lquBlKdallIWaZF6mohNGe4qrcQFycMap/Zpd3DnFNCNF2QnqKTy0YdqpfZn/vGpRFIq/eNAE6wAHjFTtMEXGaqIWUYJND4agZFLLuckVE7nFPO1TTWANMRGCzdOadh/Sp4sL1GKcZY89RRcVim+7uKIyFOalmdT0p8MO7rQMsQzrtxStIpNAhRVqIhdxGaQ9SOZ1piMpHUU+SEN3pUtBt96A1K0u01CVBGKutZkfeqEwgNigBbe1EhFTz2qxr0pIWEfFOupGdMA0AZEuAxxSJIFPNXFtVYHPWq8lvg4FUSOWYdjTWnPSkW2ap1tRtyetIdxkOZDzxVwRbVqqv7o1Mk5Y4xUspD9hpVO3pUyqMAmmTKqJuBpAKo3VHLFlsdqijuRmkMrs/y1QiVo1AFNWIKScVNEjMRv6VHezxwjANKwxocBsAc1XupmVwafbyoxpLnYxwOvrSAqS3Dy4WpERQoyMmp4bVc5qYWBdtw6UxlcopTgUiwAj0p1yTbHBGfeqi3uH56UgehK0ITkimAbzjrSTXQkGF5p9uCq5YUAMlConofaq4BYH5eKthPOlwwwK1Ira38vbxmi4rGFHCCDuUYHrTZNg+6CDV+6gRJNo6fWonjSKPdtGaRLiZ/wA7HvQD8wBG4+lSp5krED5RU6w+VgohdvWm2kRZIgYBfmcY9BTDKZcR52p7DrUrQgsWkVgaevkIuPL3Z6kv/QUk0FytIhQEIQB9eaiA9TViV4wcpGAf5Vah+y26eY8gkl6gAcCqT0EZ5Qg4c7OM8ipImgQb3yzdlAplxKZpC2KjAHVj+FVa61GXRKChkkbaTwqjk4p6QAx7igTjv1qrblg5cIG7DPapZbmXkFQB781m462Qjq2Kik2luvFS/Y2Bz1pz28irxyfStLmhCUAqe1nEZwRxVKUzrwVwKjCzNQK5sXNysiYWs5Iiznmo0t5OpJqaKKRWFIY+SLavWmQ4zjip5Ld5U5GKqSWrR/xGgCwQqnPGatxTR7fmIzWN5bnOGPFV2Mit940WuCdjXuJY85FVxOM9ay5JJT1Jojdu5NZSpmsZmwtx71Ik+TWYkvrVhJBWbgzRTRpK+aRmqmZ9tC3AY4zU8rHzIs+bTWkqEsajMwXrRYLlgy471E8mevSq5myeKZJJgcmnYVxJo43zkCs24tUOcVLLcZOKhaXjNWrkOzKElvtNQtGRVmaYk0xBuPSt1cydiuQRSqa0haCReBVeSzaI57UxFfFTWRAvIs/3hTCKls4Xe6j2jJ3Ck3oUjuofljB7n0qwi8fOSabEjEDjj3qwkWBwK52bIVSoHHNB6HmlKk52gfSoWQ5zgZpDHO6r7iqwnQsQD+Qpdhzlhx/Kp0jiUbto+tOyC5SmweVNZ07ndg8n1rcY24JLKARVK5mtSrH5Q46GlZCbZzl63HII9Kqm4+UD9Kgv7mSadtzdDgY6VWDnvW0Y2MnK5oCSpEkwQRVBXI+lSCTGKdhXOltb0FQGPOOtSeYCc9DWBBMQeDV2O5z160AaiuueeDWnbXKsNpbGB2rnDP7jbUtteIucsPoKBG3NcDnniua1W88yXaDlRVi71BfLPTPoK5+aYu5OaoB7SZYD+VXGkUIo6gdazEbBz3p+8nPNJq4JnS2TwJEJFxmr8U0bEnHtmuTtLgqdhPHat2xkHViOO5rN6Gi1Nbyvm8wEKT2pyOMc5zS2rBjlv1qaYKwxtGKnfcrYb24b64qRRjmoolwMKM89TU65xyePSs2rF3JUO49eKeeVP+FRIMf4VL95TVRYmV7FgL0/Q1ozRrKhrGeUW07OeOKnttRSQ8NW0HZGU1dkM1q8bnHI9aquJFOM4rRu7pVQmsea8DMMDNWZ7E5WTbyaaiux680xbz5CO9WLeZW5xxSGC27sRk09rTI9KU3JHCqakimJ6ii4aEJsTt9afawCMnsasPcLtx0qq0pLGgVieeJHGO9Umthmp13GniLdSuOxRa2WmmMIOtaDWpP8VRvZEjrTuKxn+SHzmo5IQvStJbMqOtR/ZmMnIyKdwM6ONy3SrYt58AjpU0n7kZC5qJtTVVwVOfpQAGNwDkc1Vd2RsbaH1Q8kjAqs94GbNAF2JZJCDjAq4yBY+QKyotQYcKhNP+2SzHbgj60WC4kzHdhaVbeV14JoEbE9auQXAj+VxQBkzRSIfmzTUJH3qvX8qs3FUGbkCmAssnHWq5ZjVlxlKg2nPSgCS1Tc43HithY12cVjqGXpU8dxIowTSAsSq5OAahS1kLZJo+0tnJFON2RyB+FFgLIt+Bnk1OiBF54NZ63UjcgYpWuJm4AJoAtzHIwKijtd7ZNQB3FWEeQjNLYZO1kuATTJIAEwKI5ZWOCalPyg5oCxiXU7Q5GKp/aiTk1tXNqkwLYrEuIxG5AqkxWLC3KlaR77AwOlUfm7DimFSaLAXftSkjNWYS5GVWslV2sCelbVleQomDQBKDIOoomhMidDU6zRzH5amZR5fWpZSM+C0VRzzUoiSNs8VKkZJ4yc0kyYXnrSuMEIkNRTab57E5p1tEzcg4qV7j7PwWFMRh3VrJaS/LkipI4wwDM2D6VZu7uKXOTzVJIpHfcrELQw2LwU4AVqnWSSNfWq6hol3M9LFOZQTn8qnUdyd0SWIl8Z9Ky5baMNjirMrykkLmq6xSiQMy5p7AOt7ZFcbgKmuJIl4XH4VNJC0iApVZbBnfG760ANQgkdRVuGJDkq+TVbUGSCMRry1Uba5dNwQFmNMllqdXaYjk4qC4dkwB1p7STqfmIXuagkEsqGTGEHc96jVsltsrvKx6fpV60LSfJgKcd2OTWfvGMKv41ajRGA8y4VCeyqSaqUVYVi6lkoJaYBj2+YmqlykZc+WAoHXB4FWEjjZD80hjHV3bj8qpTzxlwFUCJeijv9aiN2xEQYhjt/Omsxc4B+pNTGUCIkIEU8Ankn6VUJrVICQ4GdvI7sR/Ko+p4pxYycYwo7Crdi8EeRIAG7MabdkBW2zRjhW9zinROWb5l3cVoyywd5h+BqlJtc5jJwe5qFK+6A7+W5ReKWO5jI5ArPS1kYc5/GrK2pVMbqZpqSSmFwTjNQxqu/hTUkMPJyOfWlaWOE4JAo3AXcicY/OpFMfUgZrOmuBK2FOR7VJEHJA5C+9FguWnuI0POKjuJUkiOACcVTvgMZB59BVH5lBIY1ViR5kKEgmoGYsSaa8p6H86jZwB1pgOY0sShnANV2kFPt1dpARQBeltwoBHFREhelPnMpQDqaplZmODwKQFhpgR97mohIynI/Ol+yttznNQyo6jj8qWjHqi39pOOTULylj1qmnmM2KsJbyEZo5UPmZNFIB1NOkYMOKhMJUck1CXxkZo5UHMxxUZ6UhjBNRFhnrSmQKKdhXFktQRnikSDaOKPtK4phuQBTAlD7D1pZJBImKpPPmkEjEUCFWMs+AK6TQtNzIsjDheaoaHCszkt612FtEsMYVBWctDSJOihaduNL/Dk5FNP1rCTNUMdvT8qbnjPfsKSX7uRUSnPU1BZLjB6ckUhwuc9DTic4A/MVWupNqj86skpXjYDAN7iufv5NkbANya09QmAQ561ztzLvOM5NVBXIkym1NxzTjSV0GI9G7GnkelRipl6UACMRUwmxVdhg+xozSsO5Za4bHWozcvjGahJqNm5osFyR5WamDk0g5p4FMQlKKMUq0AC8c1q2MxwBn8KzduRU0DGNlPboaiSuVF2Ous3O0MTn0FaG7OPb+dYVncbtvYCtaGTcMdcGsTZFgsFzjH+NLEciqsjnJUc81Ztx8oyeahlIsrxzmpl5qHoQP1qVfrTixSMbxLbSm1E8IPy/fA9PWudtBcKQwLAGu+YblIIyKyJ7aKIFUXHoK3Ri+5VjUzRYc04WCqCeKY8ckIyPyo82XAyOKpEtirbKTjircUUcY5NMht3ZdwNKIGLYYkUgJQY+eRVWa4UPtWnzWrIMqTVZLZjKC3Ip2C4u5uuCaGWUjIU1qxeUqDIFMkvYI+MCjQDM8ySL7ymnC7ZRmpbi4W5UrEm41mSs0fyuuKdguaMd88nAqwbvanJH0rCjm2HIpz3ZPXpRYLmmb7Jx0qSO6XjJrKkuIjHx1qJLnJxmlYLnS7oWX5sVSuI4WPasiS7dB14pYpnmGQ1FguXpLeFh0FNSxg2cgVR89y5QAkiiWeaIZbKimLQvx28MYI/Wq0rKH+UCqn2qQjviiLzJjkD8aANG3IJ+Y9avizSRd1ZMVvNuBJwB1rWguUVNmeaAMTUE8mbAqvg7c44q3qu15Nw61TEw27cc00IA1Ln0FTw2nmLneBV2BYYUIYrn1ouOzMrefSgEmnXnyuWXpUlrPCqHf1ouFiEmrVvZPOuQQKqTyozkr0p8F9JDwpGD60AXVt2jbZ1PrUjKsAy4qGO+G4EkEmm6hMXTNIBz3UZ6YqaC4i284rn2mCk5pouB607Bc3nvI0c7aT7dG55NYQnX60GcDtSsFzofPiK9etVJlg5Y4z71lGU44zigShuOpp2C9yaZ06KKSGNGUlhSJGznpxTpLZkXdnigCF1XeQOlaEMdusPbNZecGnJJtYEnigDRSGRTuVsLT7m6McYUHn2qjJfvjapGKgSTfIC5zStcadjorNsQB2zkjNLdYkhLDms5dRVFCZ4FTDUonAUc0gG2dy4JQ8fWlltBcvl3/KnqqP8AMBjFRyvn5VOPegZA+korbgxP406XCRbF6ipkjkRM5z+NQRYNyWlyBSDYqqk7j5+RVu0zGDhDipbm6t4xgYJojvNygRpx607haxJuVxnofSkJ+UggfWoHUbt2ct6U2a6UR7AcN0pAMn1HyT5cKlsd6pLfzhiecntU2wqC6rvPsM1FDBN5wIXLHt6U9A1GN50rb2UmrMFwsGP3RJ9cVNulyYxDlv8AZFT22n3Tfeg4PrQIzbqRrm4XjA7irFxchI1QplR6VpyWccabWAD+1UJbBG43mgZkkl33InBNWRFsw0uM9hV2K2itwd5JA6VQnZFnLSZCt0Hek9dCWV7mZ5DtL5Rew4FRIFz64p7Mjk5GFzxQgQhscVS2FYiLb3y/QdBTO9K3XHpU9vEoQzS/dH3R6mq2EEMLMuR36A1L9nVOZZAPYcmoZJGPIGAKImyHZjlgMAe9Q09xBmEviOMsfc06dggCDr39vakhHlkk8ueg9Peq7MWYk9TVJagehNeDqoP1pjXjdCKzs7O9JJITgj+dFi7mmtzweCfpVOcmRicHHvUMcxB56VJJOJF24OfagBsQ2sD1q+sylO9Z0UUhPGau29uxU7zQwQyRA7FqTyRtPGafcIsAByMfWnxToEAIJ+lIZmzW4LZIIqGS2HY1tvLBImMYPvVNo49/XIp3FYyWg+bvUyExqMcmtONIQfnxTHjh38FcUAVEuiD84qQzLIQFHWpXhhI4K1FcBIIwyEZpARPO6Ntxx60xXMh24qeKaN1y/WoEuUScntQAqKsbElRmkkvQvCgGkuGExJU4FU5ImUZA4p2C46S6d89qrkMxo5z0qRMk0xEBUiozn1q9JtZfeoEjy43dKAIUTJ5prxkH2q/PAFwVqq6MTg0AVwpLYFWggSPmlgiCtk1JIQ3GOKQzV8MwszO5XCL39TXVJ161l6RCLayjUDBb5jWoin8axk7s1irIlLgADNNDH2pkhO7bimk4AO79KxkaxQ2d88elRr+lRyv1PenRnJHGalajehOueq1UvujZ6VdTiszWLhIIiW6twK0sRc5vVbj5xEnJA5rKCSNztP5VphV3FzyTzmnLKFxxxWydkZPUySpB5ph4rQvkU/Ones/PY1adyRQealU1D0NPVqYidcd+lRSjb06UoahjuXBoAh30wnJoPBpKYDlqUHiohTt2KQDmNIrU0nNJQBYR+acWOcCo4l3MK1YLZMBu4qW7DSJ9PyQu7g9xW3GSlUY4lUo6jjoavspKZAzmsmaocXU9xmr1qfk5GKyCdgAPatGxbcg56Vky0aCgdKkXP4VCOnX86lRuuDTiEiRvu561mX7iICRuQDgitFjlec1nX6+ZbOp5yOPrWl7MztoVvt8DD5sUyS9gI+UVi/vmfb5RHuaXbKr7SOPYVtYyubEWphHCjpVt76HAORmuWknkQkeWT74qVI7qRAwQ80WC5uz6lGYiFPNZ8N5K77fWqzWV2ibyAc9qs2lm6sHlO30FKyHc2YMBPnIJrO1AxhjjGauqgWMsHzise4+eQnNCBj4Lkw5wM1FM7TvlgPoKQKAOKTJqhB5Y9KPKVzgDmmmRlFPhfByWxQBHJbleowKdb24eQDGB60s0rynaDke1SWs4gJDrkHvQBaubGNowq9/Sq8Vi8LYU5Ddqha6m887DlKmS6ZZVd24HalqGhfSxS3HmSEZ61DdCCcYJAqTUkkuLQSJnOOgrmmW53EbXBFFgubgS3VNuQanht9sZdAMVy3nMrfOxBHrVgatKibVl+WiwXNeS+WMspxkUW99bsDuxmuda4DsSXzmlWVAfvYp2C5t3hib5kI/Ckt0hk++R+NYxlVjgSGhZtvHmGiwXNW5GwnyZSB6CqjXJ8vG75qgjLTEhNzH2prfKxBBBHaiwrjjI7jDHNNIbOFGaaJFPSnxzmNs4zTAchJUqRg/SiK2kYk7+KR7rzD0xTVlPQPigBTHJG+7fwK0rdkuI/nYcVmSEdN+aQBccMR+NJ6jWhpLaWzMSzfnVeSxtw5w1NFjL5YdWODSXUccKrhiW70AOS0jzheTU8VhGZAJDj6iq9rIkb72b8M1M4lu3LxsVUehpWA02tLNIxkrWcYbUz/KwxVW4trlULMxZfrVGNmZ9qBiadgubrpDGh2sM1JGivancQTXPu0qPtYOD6VaSW4VAArEe1JoLjru3KcoM/SqJ61u2kvmLtliIA7msy7jAuWIXCnpQn0ApmgNUrRc5zTWXPQVQhOcZqWKcRg/ISaiIO3FOBYR4x+NIZfsZZZXAbAUmta4sWaMNGwBxXNxTSIRhjjNbaamrRLGjfNikxodaQzvJsJBHenan+4ULHESfUUltcSxS84OasvdhZt0mGUCkMyXtUa3Ekgw59als3EaFAM54Bpmo3SzSKE6Z6CmyzbVUKvB/SgC3dRpbwjyzulescWs7OxdDnNavlrCDNLJgBcgVkz6hcOcqcL1oQM2dLR4VkEgUHbxmmJG6yllGSx5PtVMzPCIJS5JYcqa0zI8kKi2Qu5wcDoo9zUjJn1WO0QiK05HUnqazp/Ek8h+RTHirp0+SaVWY4HQgHp71WuNMUsRFJGWz95u1Fl1D0M9byeTcxc72PBNJLdXEB/eDr3pL+CS0KsJlcjnIFNupZpIVaRMAjgkVasSRNe3MnQYBqvLvd8t29aQHsT0prO2euaYhCpPepvJYLwpJNDqbdxuHzYzj0q3ZlB89zIQT91fak2BnGNkJ3g59KerdDIeOyiti4lh2ARhTist/LBIYce1JSuDjYawaXCoufp2FRsgQ/eyR6dKnef5AigIpHIBzmqvLH3qlckcG2g/3mqMjFSMpUgfxenpSEEjPpTA6yWPezMudp6ZpPKQJ8zc/WrALG3ZHAVl6c9aIrDzsOXGMZ/GlcZQfCn735U6E7iXzgCrkWnRFCXOWB/OorpCw8uFNueCaLgRHVo4uBjIoXU2mbbGc+wqrLob+UZBIN3XFGkypYu3npn3xSHqSTXwB2ydR61GNQVeh4rQZbS9cvtABp/2HTxwcEUxalFdRRlyDzSi73tgcmrI0i2aTfCQVqeKzt4STkcetFxlGS58sgOtRrK0p+UcVcmaKRiNoOPSo1ZF4AFMQ2OKQnFSNYyMMk09ZdmCafJcsVyh4pDIItPy3zNUz6XHnJYfnUKSs3O4inCVpGxkigQGxjAxuH500WaKMbs/jSTlohz1pgkBQsaYDJLNFbOf1pjW6hCQeaTduJJbA7VIlu5gMm8EH0pAUHwg5PNJHulICjNWY47bYRJy1SW88UJPyUXGJ9lnKjIGPWq08ZjPr9BW4l2JFAx8tR3HkYz1NK4WMNcnopzUsUbyOo2Ecjk1cWSLdgoB70sU5E6JsGGYDNO4JHRwhVCjqcVeT5VJ71TVRhcVcTLLgdhWFjYjZjnk1A7DuOaueWqjHUnuaryKVHABrKSNYsqOVyByAexq5DGqqMVXk5UfKd1TQNuUDmkgZKee34VyGuzfadSMBchYv5117sFWuC1COW41GcjgbzzXRBHPNkRmEZKE5x3qMzZyM01bZmlKodxHWmXMPlkYyD6GtLIm7HmQ7cE5qsetL8+M44phNNIVxSaAcUwmjNOwrku6lDVDupd1AXHPTKXdSGgBQaCabRQFx2aUGmUoyelFguW7dgDk1eSTn5TxWUkcp6KatR21wwBPyj1qXEpM2oblVTBbPtW7DkxL9K5ZbQ27qXcMDzwa6i3OY1OOPSspKxcXcguoQOQck1cssCMDr34qOcbk2jqakiXZhSc5rCbNoIuKxyDzmpgFPfBHrVdOBwRx61JGct14oixtE7khfeqc33TmrTH5DiqsqfKTWjIREBA6gEDNQS2qo4IOc9jWS+pmymkXIfDHAqCfVpZpkkHy47VvZsw0RsyWaFMtg+2KtQQwiAP5gAHaqlvcefHuR9zAcisi9mkMxUZHqAaEDN+a4iC8OCKUtbyxjc4z9a5sT24gO5z5mehpouE/56AfQ07CNXUbtLciOM5B9KzzdID0NRq6SE/MDijbk8CnYLk9vcwSSCNztB7mn3UsFvMER9+fSqm1TkEc1ItlJ5fneSxX1oETwq1y+ETA9TRewC1A8zlT3FNhhuWy0O449Kllsb66Qbxx6GgCkk6ZCx55q8kDNCzuNqgZ5qI6fPBwxUemKRzemPYynaaBlIXoLkICR7CtBLV5IBKx2jsDRZQ23lsJFZXHfFSXFzaeSIl3mUdM0CNiBmS3XcQRio1liUlmRTmsgi58tf32AexqA/a4X+cEj1FK1x3sbD21ncOf3S7j6isXU9JtzJsiIRvaiS6Z3/dSENUqkRkPMQT3oWgPUqWejNGSzgN6Ur6DJM5YMFWteK4gkwQ2F9KFuUkuvJ2MsXdj0ouFipa+HoohueTcxqZdEtICZZsHParV+0MLoIZdufenXlsjWyEuzFvSncVu4y3W1ts+UqANUkthC0ZcoNzc1QNqkBUnJ288mn/2rcNkJAzovGRS1HZGXc2qCUhRioPsY6g1dudUJmEf2bYzdzUfn4Q5A56mmgZV+ydxTTZY781YknO3KKDUS3TF8OoFMRD9lIOCadHaFnwpqVnkLZUDFRh5N2Og9aANBFnjj2eYij3NVZLdjIAXDFj2qJVV2yzFj7mpWUKAVYqaQFm70xFVPIBZgPmxU1hZuoIlPlp+tMtL2SzU4xIT3Y00X00k+6RhtJ5HYUagbUdj5kJAPmDtmqapbWhI2DzPSnWN/mSXdKVXooFMmNkuZCzlz0z3NSURyRLKwkdVApZ3EcQEaqM+tUy0hUnmnNKpQFuSKqwrlgJLIMFkXI6CpTZxpB/pGGPoKzHnHVc5+tDXMhXG8mlYdwurRAV8oYLdqqzW7wAFxgGphMySBwSx96lmvHnXbKgI9qeotChHGZ2IQZx1NNkRozgjI9qtrM0cRjjj2KepHWlgKSXCK6nZ6dzRqBDZtbM22VSxPQVZka1ibaifP6VYhs7WO5Z7pxGTyqg09YLGSQnzVdj3z0pMaKMK3FxKuSEQ9KtT2cuAo+b39KqvexWs+Dl9vQL0qGTVby6kIhXaCOMUhl14YI0CQr++xyzU6KzuPssoZVMhIw2egqrYx/a1K3ZKEHIYdTWmLNIgJDcyNGP4SetDBEV1ZCSCPMo7Bs96IdOthMPnGOmDUV29uylxFKWJ4PIAAqlFcyBJGbKKeBmhAzRuoLYMVZwVX8cVpxJFa2iHouAelZkcAaBB5YUfeyerVZvNVgktjGp3SMMEAfd+pqX2GiRruNrhUTOJBz7Vh3dzJYXEsYj3nPyk9AKekjF8RDO/GGHpWl5cSQFrgB3QZYnnBprTcPQwY5HvdzzkschVA4FSXUjuDGzjYOBn0qxcT8hkQRgjPyrwBim2tpJPAZZJB5ZJzkc/hTEZbRKpA3Bs9MU8W5j3SbTtVcgkcZq0qozn5BsUEkn0FTQWUswE945jt+qpnlh2AFO4rFaNZWhEhjBZuQxHLVNOYHEZddhC/Nn+I1ZnaVsMFjjjXhAx5H4VSupJfOaVo0LHqcZ/nS3HYqkfvsphx2C0+a1OWclVXrjdk1be7iltFMyKr9PlXBPvUMYSZSpfaRyQ3Q0xWKmxCQIwznHaplijiDOSwbOFVsZqxODbwKEULlgOByaoMWdzsTBJ6nk09xNWGc7iRyT0NPMbA4kIX61OscsKcbNxHU8kfSiRZhHHcuq4YlVB9u9AWOtuFjYlmO3PIBNQLJEp27Tj1Bq7aWtnbWyGZjJMBhsnPNQ2unWqzGSWd2iJyEx0pXCxXMifwZ+gNLINwBVyc9OatX62ykm2j2nsR0NU4rW3UCR5XMhOcA/douFiBnAJDEnHoaa7eYVjjgJz6dauT6bazJJJHdlZOoU96jsY5LSXzPM3MB1Ip3EVha3IQ4hbHarttbRrCRKD5rDillkup5Dliox2OM1Na20ZAkmnYMD0JouOxWSWa2DRcDPPNV5CxYlmzmrOol5Z0W3iLDPLn0q1JZqwBRNrAY9jQBlbtuRg0pUhN7KQPU1ZSxuXGXCjHbPNLJa3EiGNmIHagRSLAgHPFSMjFAQjAY64p0WnTq43DK46VrvCZLdUbdESMHAouBz7s6JuyCKRZPlznBq3Po8iyDyn8xD1JqZtHXyflBLkflQBky3LH77Zx61JGBcwgxuEYcEGrdp4fEjN9rJAA4weKvppkMZPlx/KRg570rjMeVYoogrSAt3FUjIEyokO307Vuz6OshJZArDpUa6I7kKiqfY0xGLDNF5nznI9qe0qBujY+lbFx4flgVXQR5BqfygAFMIyO5obGjPtLCaVN+7Yh5GaLmE20XmHL5OOKuzywxJh5io9BVF5I5mVC7CMnmp1HoZ80m8ABSrVPbyFGjLYIBHNPvhCjrHAuRjJbvUMMD3EyRICWYgCn0F1O4tl8yJW6A1aOI1xjj86itYPJgjjyTsXG496lLHPT6Vk9DVCMpKdcevHNVXJWPAJx61ZMmOpyPpTGIPIxmodmaLQqYLg89u4pi7ozx+verLkKCehB6UwqeT2NRYq5BqM/l2rSAdFzxzXLRyx8rMrb353CukDSSyyRFP3QXGc9ayZLTZC8iRAMP4Qck1vHRHPLVmMyCC5BjlxzU0scUilnmBxUY0+4kJbyXAzySOlTw6K8pwZ4l/4FzWhBXSODbjzOpols4AhZWB9s1PdaUlooZrhXz/CnWoVhg2/NvOe1MDPePcwVFHPcUG0lGcrgetXPKA6IRS/Z3boHx6ZpiMzY2cYp6xFunWrptXHRDzWlbaLatEJJ7varDPGBSckgSuYTW7rjpj60sduWzuYDH61qvoF4Q0kKB4hyp3DJFZjRuhIOQR2NMQ42ypw3foaYLdcnc2BSZPfNI2OcE0DFMKo4+YMPUVMVVSCi5HvRaWb3THZ8oUZJNWmlhjgaF9rMOvHekBHFdAIVZcZqYXREYjLkjsMVmMrY3bWC9jihVdvu5JHpRYdzSEwJ+Ztv1ro9LnEkWAdwGBkVxgjkMgRsgns1djo1otnp6DB82U5fP6Cs6miLhqy+o3Pn8OegqdUKk4xnvimpH0PP1NXF4UE4BHUCsOW+5vzW2GCPgHII9QOKesbRr6gmniMYyDz/ACqQ7h1G71qlElyIgC1Q3WI4ix49qshfmyRjPasnxDdeRCqg8twKqxLZkxaWl8ZGkGyQscEniq9zodzbuipskDd89KiS6bHUnJ6Chrlj/E351srmLsbNnpU1tCzvOFYjovSqTadc3E7MAc9jjiq8QuLhMoX2+pbAq5I0qlY3ZztGMxdvrSGMHh25kcEMhB+8cVEdBSOZjLkqvXHFaVjc6isZFuiyx56ynBFLqd/GbfyQys78Mw4xTuxWMtY7dXIhQIAMbj3pZWVFAwCfUGqoOeAxOBUXzZJ4x39qYA5k35HAq6ut3KII40UY4yehplrZ3F0rmFNyp1IOBVOY7XMbKdw4I9KLXC5ajurgO0ivtycnb0q9FfXPBD5HvWSj/L97biniYk4LnHbFFh3NR7qaT5nJOPSoXuZD/EarC6ZVx2pyM0hAQF2PYdaLCbHGeUdCfriomZmmBP3+3FWEsrtnA8sjPGGIq/bWLqwNy0caJzwec0xEEBu3URywNnPBK1pNcpGhSYADGORzT7m5lWQKJtkZXlmHNYL+WeI3Z2JyWbvUDLaQWjAlWwxOSW6VSu1UHK8mmkgMcg47Uzr95eTTsA62CmQCZcZ6EVt3Nkqx7y3CjhW4FYW0kgL19Cac4eUKskjleoBcmnYDZH2Fo1clC4HShriOQqySqm3+E1kMHQBQrYPQ4pjF0b5l5xmlYLmtPdh4yrRqxJwCDyaLVoxGyqQhPUE1iGR1GcDr60LGQfMaLb/tAUWC5buYEkuy802Qo+UKOtZcysJmJVtuegq08gYjG9sdhmiOfy/mRMMODuGQapaCZT/eHG0bR2zT3gl8reVHXt1rSiZ7+VI1SLcPfaPpUmqy3EWIZI441b7uGHT8KLhYyI7fzFA3EMTjBNSm3kifYRg+vrSC3mkVmjViqjJPQCoNz7gCTQBZa2bcAn3van3mm3VqqvM2N3qahUv1Un2IqcRPdIz3F2AU6B2Jz9KLgUyJhngNQonHVSF+lSi2k2b0zjvSmaQ2xjK5XOd3ei4WJrGQlzGG27+MhcmtB7dZCI5cxsg43fzrKs1Zp0ky+FOW2nBx9as32rLMPLW08odnZySaTQ0yE218HfYQUHT6VEReIhLqCeyjqavpqrx2yqSH5yV24P51Ue8Pm74w8ZxyCc0AUPPlY5CcntVyBmljx5Tjb1OOKksriCK6M00AkOPyqV76GGR/ssUihj0Zsj8qBEPkTiTb8oXrzV57XEcccS+ZK3LEdFqK3vYi7PODjHygf40n9rvGCIlCjPfrSuxkwsS7iN2AbHT0qWK0jRJI1kUTE4VsdKoJrEitl4EckYJ71cF5CsKTGMO4IO3OKLgS3GjGSMssm98YGax57CaEjKDk4+U5rShuoZ7mQxh4yVz8zdKjljumUGALkHC/40XCxlyWxVtrDBHrUXl4I2nGPeppUuPPxJGSSeeCc0yQHzNgCjtwaadwaJUuYopAZJyCOqquasvrdvGgESsxz0PArNePA+ZfxpHjeSIJHEFjHUgZJNFguaQ1e3kULNHIxJ/AU+5hOBJAjknkbh0NLaWry28EuInEbD5Rw1bY1JntZEeNYv4VULnJ9KWw73OcDySyxCS5zg5OO1LOYo8Qxhmzzhf4vqa17DRFmsWuPN2Mc7VABA+vvTkhVMtNDu4AUY5J9aVgvcy7y0ljhKxsqgKoPP44AqF57m7wHRI1HCk8An+tPulZZWYQtG4BOwD/ADmkumtzY2o3H7QoO4Drn3oDqOWeIgQzkSqAd3GMe1VLjUmZ/LgXaoOAF9PQUT28sduskkyqSMAdzUulWjK6TOoIOdrY6f7RoSG2VofLWUm7L5xyAM7frW/a3VgSS7o7AYXPt0AzUV/NcMkkAt4GU84z1H+cVn/YS4X/AEYA92OR/M8U7isy5JcW91PIZVaNMYXaCCPrWNIircMGkPlk4Gc5b61fl0yQKWNwibR90N/OooolmTygGuHJ+XyzjFJDZNAkM9kCoVXVwpdsHn8atPYxyq4cAZ+6UHI+tYz3LrEYkQAFtzZAOTV20u590cLRuqnknIBIpiGXVuk7pHHdK7KMBRxj3z3pLuN7SxhQOp38FQvI981qSmONnlhXEu3Awcn8zVGDWl3OLqPdu7nmkmNrqVbGwub5+P3cQ6sR1/xq1emCwjVIMGYn7x52+px0p51gR2yoIgOuAGwMfhWM2ZZDI2WJ5IFG4tjrbmF4RGZXAZuQcjDU2GOWZysbc9wTioTA0kDXEgYDd97HHP0qEmNXGGGCMgEVQjQkRIQN7b27hHUkfhmnWtv9qBKOq8Z2s1ZgmDKRjEndQM1MwGxfLimGTg7+fw46UAXprbycbmXGM/K2fxpQbaMq32je3XAQ8VnJGzOFRXVCfmydwFTmELEWwQO4PP4igC895algZNznpkDrQL2zB5ibHsMis9lxsO0Op6tnnPtTZ51gcxOjFmAII5BoA02v4E/5Znb2PGKtWt1ZzRu2WypxgdqxdPimub5UdlQ4JCsMjI//AF1pQ2SWsjC2kjkk43LwwU+hqWxov+UueDkEcEUzyoe7HNSm8mYCNbaFdw52vux+AFV1YzMouU8tt235TnH19KLhYkOIyrIm/nkH0pl9fmNc+RlB3YYxUd1YTLOrw3RK44UnH60xYJo7lxLcLIzDCoRgf560MW5ZgkSaBXZQhPbNSfL1yAO9U20qARxmWSUvnIYNwp9aY9hdZAa781mHVNoIFIZPNHDMQu8n2BxmkeRLdNqKz47Dk1NBpgjQCWcSSAcNjnNQW8fk3LxveLIT/ASMjv0oAr297mcQvHK/vtxxU1zerDMv7liDxiobq8MIK+RKp6BmGPyqk928kbSomUQYZjyFppWBu5oSanGqPHHAXbqCTkVl3LTSMWeQR/Q0pMT7QbgBycAFcVcn061jtkM1yBO3C4OQT6AdTT0QjEkxIu1pWkY8dKUWVyjIgjdi3IXqR+HatvTNDkmXdLCIwTlZNxDD6CujsNPhsVO0tJI33nc5JqhHL23hq9kwZHSMHu3J/KtnTPDyWUpmeTzZMYBIwBW3xS5psV2VmiIHSoxGSSMVdPNIFFQ4plqbRRkhKp05NQBGXIxWmw/Km+WrjpUumilU7mdOdyA4wQeahVQRhjjFaE1uAGA7ism8nW2jdnYLhcDPr2qJQdy1NWMnUtQltYS1vC+JHK7iOh+lZX9qSEk+SC3Q8kGtjTb62mtBINztEMPkck4pmoQW1yEngj2FhuyONwqk0Q7lBruaSIZZ1LHjFUyCWAw2c45reuI7JoIztG4EbgOD+VVjDYTzAhJoyo4CsMfrTTE0zMZdjMrbxjr8tMkZozxDISOoIxiukgSEhgjfv1IIO3k4+tNlgF6rSHc5IwVC7WHrT5hWMJJ1ZFKocGj7SrErlsjtit/+ybJljSOGXcq8qG202RrdZFS3gLhfkfA4HuWouBip5koxHG7D2WpI7GWVwrReWM4LP0FbCT2+nJ5cixyCc5JVssv5CsyXUmYyIgh8tsj5sgj0OaLgMurR7SEtJMFXOFUnlh6j2qn5cMmBvIPfI4qTcyMhUK5Qfx/MMdxzxip5LGaKISviJDyjKQx/T+tMRBJG80KQ7E2J0IUAn8ari1ij3eZGW47HGKt3YtURTDK7t33gD9aihungcSQkI54BPP8AOgLECxojhoyyc9+hqVbi0Q5ktI2PUHNJNuLlnkTcefu4/lSRTJE5LW8U+Rj5+gpgMubw3CFNiKuc8VUK7SdrFc+hqxKBLIxVUQf3RnA/M1EylR90H6CgBQkUkYbzW80H5sjtXaWIxBFnp5Y4/CuIkt5oQHaFlVj8uetd1oyNdWNsxGPkGTUTTZUGkadvCHUMRhafsQAhQW+lWljGAD0HapFUAdKfILnKSKVORwB2NSbgTwatFVYcikESY6Uclth89yq4rlvE06JcwrLnaVJ6e9dm0KkYrL1LRo7zDFUkK/wv/jRy2Yua6OLjksyBtZxLj7uMbh7VDJKkY3SLKmeA22t648OmM7bdgoHaTkj6U5ICG+zXZRh/CCmA3HOMinsLc59buEqUyy5GT6VdsopbwDyhIcnllU4ArVg02EDNnbIQCPmI3EGp7qZNPtnQgRuBkHado+mOKAKMpk0lIws42uCCjckH1rO+1xOWCJuOeeOaHu4Jrk+avnAj7qkqfwNQzR26qJcyxxsfl3jOfXkChASmKdnGyFxnoTjn8aEs7phlUPJwQcDNW1gv4YI/LBWJhkYUk/iOSKjufNtnMdxHGXwDnOTg0aj0EgF3bwSJGh56heait4kkvTHcHjjJzjNXZriSzjXytR8pMZCeQAP15Pelu1JtvOmcTtIRhhGBjNK4WGajaRoiKEjVVOQQ/wB4VWZLRrZmhZkuFOQpyQwqQXbW8agwQAEYHmLg8e2aja+LnDrHjH8L4/rTCyIAp8re0qFv7mCf1qQROp42gEc8YphjjnBCM3AycY6U+NCvypvJ9ME0xE0caLtZQN4PUGr1lcxYFvPCTnlXLZOff0qs2nTxBZJCVQjkjOV+oFXorKEpHLAvmrjDswB/HFJgijqS31uDJPLGIWIVQcEgfhWR9pZJGEJQgnAbb1966a6gDWyQtcSSmRs/IMLn6U+3jdEKDcjHA3ypt/kKSsGpyizXJVVUbiwyFAyTSo95ISsUbHacFcciupitXhug9x5cgx8hRSfyp1xbBozPJI0YI+6jY57UX1Gcm7zxnZ5LrIegwakMd/JGGWFwAP7vI/z611MMdvHJ9pw/mFADzuB/EnNRofteXDb8r+6gDBcnv0z+tO6FqcyzalbAKyudwyNoyD/9emL9rlciThsZCuQv8665bJyrNK/kkH5VAGT75xWXdabbTsyyyOZOisHBGf8AdxkfnRcRjqt95vlfZ5XJ4G3p+dW4LIzRF5meF842AHj8+tXBpE9hCkiXjrGAdxVs7mPTA6VPDBejzASZcqArAYofkCKUWmRGFmlmlVsHYoODx396qrZKwQrK+Dz83WtmOzmMLJNcSw5yPL6kj65OKzDE8MhRs7MkoS2SRnvTQEQsRuGHfI59aWC0jSYPcI82OcMeakUtywIABx1qQNz95aYiWaUSxmHyysZGNqNtqhHYLFP5pVnxyoZh19/WrZbaMgA+9NMxP8J496LAI9xNHbmMQCV2zhjjA9eBUTxl0XCeWAMYxxUplO0g5wfU02NicADr3xRYCEIFOCgOO4NRNGCwBJAz2PapyrD5d/60wqqLl2xzxz1/nQMjMQwVB69CRmklhdDtfhsZwy4NTo2JUlXa2zkDH/1+aiuZ7qa4zKqiMDCg5O0etAECXhglIEeNvQEZpiyPLvKoSV6+tX7eR1idVZCT93KZ5/XFWVtpjER9njRCN3mDGfy60mNGTEks8MkscLuifeYDpUe6PYC2Q3UKV7VqxzX1nbyLHA/LDkJnJ/yK0Fit50ha4tYkdwWwF2Dj1pJ3BqxiXUEtssfmxbQ6hlI5qB1MRzLHIhIyu5cZrp4rQz24W3+URjCN2IzzzVf7K0wBfUQWyRkknOO2KLgkYsckrBUSEPkZHy0l9bS20wSZdjkBgF5wK2oowwAlLrJ0G18j6k8/lUrb45gI4Jrg8Dc52jH1xRe4bGdbedmJHjREcbdw5JH8hWtFDFZoXbzNo/ibgZ+lJMqwDegQT4yCh3Ec5Oc1Tjs59SkFz5hGOo3DB9hnoaHrsHqWbm484AIFUYOQHzuH06isr7LazQKyLI0uD91S3etE60LUKkdkQQdgIbjjsOKtLqEk0axiQRyP1RDuIHckjpQByUiywOY5E2sDgqw5FNy4UgNtB7A1r6rZ7c3EbPJuYAAg8DHOayjhsnH4A1QhEmnhA2Oyj26VoaZLGZ3lu7sow4Q7c8461m7l6d6U46kED86AOmgu9tuYobuO4TPzMw2849B1qhczCIFZ7pvMwQMYAUn0ArPsoknuoozv+Zxwoz/9atufQSm4tKJVDcKEOfxqbFIzIDFHIrvM5UpmRs5/AfrVqRVt4RdG2lEDfx7cN7Z9qnMCxTB5lJUdAV24/wA+lT3dys9o4nYbWGF39AfUDuanmSK5WzInvkkx5MLRZyS55Jqyl7BLZGIwpFLgbtucOP8AGq0ETLOglQr5Z3B9pGV9e1XGfejyeTbhSxO8qVB9+vWhsS3K0UgZWCqd0SkAN3yfWrO/Dr5rIVAySDgewFU4Jd0oMlvAqDkkEnP05qI3W+6/dWsPPGGXj25qbNl81hbllllkKwllByGAJ/D3qCS9aMFR8rnrgYIrZtzLvwba1ZM8su44P0FLcRQs4ZoIkJyAepx71SJKMcVmLZS0ZEm0NvBJJPfj0qoWmdm8lCQ3U9//AK1aM9tEQGjSRi3G5eQPas2aNkctDECBwcqRT3Faxfa4ZWihSAg+/Aq02jK0G+ZI13c4wd1UrdhHEDFMyuzYZQThfzrduJpHswrlDMBwxOAah3Ww99znNStY7OUwKMqygg91FUI4gk33+ByfWr920k94ZDJsfA6cjiotgZgWmQt0ztq1e2pLR0k9mswIS6EgQ/dwWx9P8KSTT43cujRpGynmYn5ffr6+taLQWEcp3XTvHwVRS2Bj6GmSvpyuFZCXYgAsSSv/AH10ocktBpFG3WOS7IiaGbavz+WCqn8RyTVjUJ797bE8iwxOQNvIOPc8mrcU0vmBUaLy1HMhT5R+NVLmMTM0jXEtwH6LGgHH4/0pqwMqsbfeiJOrqo4PYewqvJexuWTIIB4VlNQG7eybyo7UgdN7IrsT2q/DqsjoFlT94pGd6rwPcdM0XsG5JaWs98FlcAWwYnczHnHbA/r6U27a2tHU28avKpzuLkgDPamXV1Ncv8ziOMdFBH49KqiD9595Xz12kE0CJn1W6lckThOc4RMcfU003UyymZZXBI67QCfXoKYwREYl8joecY5qD7QgXcF3K5wMnvQBYSeWKTzQWEhOd3Xk0972VnyZiS3H1qsboAxkKgyOSQOD/WpA3nNswo454GD+NAFiO+uFJPmE+u41Kb6VmjE1zwnK/Lz+dRC3Z1VDMSQOOelQXEDW5DNIHU8kbTkD8KdhcxfM8MhIkvJGzwVKcGlLxQHIa5aM8Djap/Wsw+WYypVsjv8Ad4/Hir9pbzPD8se6PGBuUAj8/wClSMmN5sCvHJO4XqGOCKlEcksoKQu8jLuLeaRge5FVWmubSIxmLYjA43Dj3xjiq/nKFAMincPmHPH19aLAW5TuVo5jEoB6iQsSahdBsGJlBHQpF1Hp1qqzoY8lyMHoG5P4dqZ5ayHqQB2zn8+KLAXIvs+CskbMWwMMo5P861dP06GW63PZqoj5RimM/pWIYbNcKZTv7Acf0rqLBFsrUAbizckscmmgNUgKtQqzSOR0UVBJers96nhO2Mepqrk2sSNx3qGWYoR3JNOZuaqPmSfjovWk2NIuhy1OBIqGPK49KmY5WhCYrSKMDue1AbHtUEfMpY8+lTtyKYDXwea4vXSJdSkR5tipjapUnNdlngiuX1qWNAZ3iD7SVLen6UmCMWOBkLMHcIerBaRWIOAGbb6DoKsq8M0G82+9WPCKCpH4imyW0GGKh4JSDtWU8EYz/IYqCxYkhaOTzGdXIzGAowfr3pUTB6547daS3gfz9jTKoIB3HgVYnmt7Zmhlc4bGCB049aYD7bazqPLIIxnHy5GPzHWr0k5luFhjwiJxlz69OmaalncGFHUBc7RtPp68etLq19brF5MaJvPXDYwe2fWptcBbl7yNA0LbtxIIQjKgdOtY9xKGX5URWxhl3HIIPoc1XdcAkyoCoyAozx9aQiZsM0u8N3zk1SQrjpVmkIaSIktzkk5wPwphgYoZU2KIgDhnGT7DnmkZZkSMtKrh+QobJHt9elEkMbPjGAe+4/8A6qYixAumSwRxvcMl7L1C5I5PGeMdKrySiOZobe6eYNwcIMH6ZPNPmMEkaj7NFG+fvpu4+oJIqPywYyoOCPWgZH5CsFKlOeORj86la1XzfJd0Ujo2Dj861luNNSL7MkGCRjdsJ59cmslERiQyYbooJxn86LhYDGFuE3L5oXBbBwMf0qW8uY7hI1WGOFRwdoAP59ah8nEYJ+VmOcEcD8fWliRuQY2IBwWVgRigCdLWzWASTMcnOFQ89fc0+301Y4xeojmMMdsbcsfQ+gqqLJ3dlXbu4K9z1q1dqbc7QXIyA4yM49MUCJ4bc3+rCMPhVUGUBenX/Guyt4Y4YlRFCqowAK5fwyJZGlmkPDH866oEKAapaITFlYImTxQjbhx0qne3AJRc8E1MJCqjApXCxY6dDUD3kcUwiY4ZugpoaT2rOv1/02GRuoFK40jcV9wBFKWxyarwSAoMGpsgjFUmIrahaC9tyisUYcqw6g1ys1zqVjJ9nk2lQcKXGfxBNdehxkZ6VT1e2S4snOAWUZBo0YbHLPqF67LJvEZHdBjP1ApJ9TurjAeYOCMEFRtP4VQEjINvr17UqXBAZEbarDBHqKVkMljcwyh4winGCQAMgVoRRvcWZ/fFVUMVQAY47DHSszap+8CO4weack08I2xPJsPY4OP0pNPoNW6kkV9cxbQJpOucBuvt7VdS/wDtFyHfTpFcDAdpzwO/PYUy3v50jW3gt2VSAMY5J9c1JfR3c1oYnjLqzbm3MMqfzoESTLbQyR3N3HHJG5AUGXf/AD7Vd+1adPfx7JFZgvKqcqew9qwVsmjszMoVXQjEWOT70sKq0waZ2Q5zsRcdPU0D0OhvLK2uBtkEao2AVUY6HOc1QbRtOhRZPKkcKxALD7x6Ywf0p1qba2UGS/Z3zuLMBj8AKH1pZWdPNWNUf5X2lt457dqSbG0hsdqscUktuh24K4ChSPwqhDZvbR+eipGSxAYkMT6461ctdZKvLNNJtP8ACu0nPt7UtzrFvN92IuuBubofwouKxWha8upQhYHOeC2AT+HNNknuLd2gyEwwJ2KOvrmm6jc2Z8r7CNjK2XY5BIx2qgHBkVS+Fzz1JFMRrWT3zTBzKiqpyAxCBhnnFWL2+8tFilCurHqku8gjBBPpVdbaR9kdpcsQ54BOMDHoKqX1kbWTbI4LPwrY6/8A16NALU94iqDBLhlwQFOST/8Aqqk167SHdJIQCcKDioleLepkcsARuwe3fAqTdpT5YS3EZXj54gR+hoskPVg97IVZSTk/Xj61Hbu4nRUcIx4DFugqIGIMxEwdcnJbjjp0psqwvt+8qydMrtyOmRTEaN+0sAI+1SS/3ieg/WqSJbytJJdB5WbhSjY2/XP8qgjKI6qJSyJ/AzHn2pGmiPzDIT0PT6UCLMYXYqRMWOOgPWpIpBGARFEGH8RGTVJJYQzNGpXjJPTBqS0uFlmCeXv9QOM/jQM1bA3l/PLvuohAp3PvAPXPAqnqU8cbqVjTg4O08bfTBrdgMENu3lW0DqOoK85+ves+e2gnh83yPKkkUrtVfu+/tSHYo+ZhfugE9MAULKW6vg+lQQREIpL7iOOwAp0gkZRkjA9smrIJmbnb1OetK/HDkqQOPeoFDldoYL3JzkmpYmEUZAXceR0pDELSI2Bux0Geaa5K5LDPc4+YH+tKuNuWbB9KST5yu1ue5xTEICDjBP8Au5/pSso6AZPqODTXaIDEjAkds80qYaIliCMf3u1AFi3gAZEkfy0kP3iw49e9XJtNt2iMtpdRzdBgEA/pWSqsww2dvbPep2FtAU+xM4kUfMwHDUncaRY/stnjLJKjSDouMH860dLlEGnbLmEg85xkMcHjpWKb6fz403oq7gWbByOa6KI2sk8ksVyrYGCpOQD7VOvUehTeTZL5tqcyDlYnJJ+nJqlPqbXV3HJPZPvQEBD0PrWlfXUTP5dvbo0nRpGGBx2zUVvKJlNvKhKKMYzkj34pW7DuQTPFdqA73MEf3doXcM9eME/ypsenWuS5vQCg4Zs5/FeOadMstostzafKCuAjsMqBnOMms6eO5uQs7HexXLDGCKEgLVvcW9rOwluFkgVSNiJ948d+1WhrlsZdpOxBjnaTn8BXPLukbYqjzDwFAqMkpneOh7jH6VVhXOln1i0mVkQHgcGRcD8M1Cs0P2iB4thJHzEOcL+X8sViecc4K8Y6EU7dIoHkt9FAyR+NKwXNt7vz7nfb+bM6nG7oB+dX0uMy5VhEQo+cE4rnLa9uLfcsreYWOSAeQaZc3glYYRExwQpyTRYLnRm5uJ1ZZbdXIbazBgB07jv+Fc1qUKwfvIlzGew/ho3TRLksUBGMFyMj6Cmx2wlA+b5Dxk8AfnTSsBUjkEjbQoB6kmrY0+VoUdeS/wDD0wPXn6VasFtYJHEqopbGHXnH55q/PbSERyQ3EcoyMLIoHPbnkGhsEipZtdJdC0LKoVAQE+79Sa0ZJZJUVYp/NUZ3eUGy3PTJ4xQba5uWw8qjt8pzTYvMth9nPzMp5Zn5I9hUsEU7yJ2nMsEcjQqcOiscA/hmpfMiEfm3MYbccDJOfwGP0qexmhkcyyHy3jPqQW+o70vmw3T+Y04j2sRt2gH86CiRbG2u0WWWIpnpukOT+FJ/ZNi82+Q5xwE3cVbFvDHGWX94xHVjms2a5sbYlZGckHKjqAe3FAhLizt0nfbC+D2Q4Wks/Ms0Yb44t3JGe30NSSX52qxi4I4K4B/EVF58F7cLbSptZuAXAP60DGQ31yqzSb4XjQ4wiAEn14piXWn3cDI7SROTn5+efY1d1bTXsrdUtQnk9CuOQax47OViHaFYgDkgng/hQBdC3zALAilMZ8zdxj8agn1G9t7k/Z8SRdCCMgmpp52dRk+WewTpiso3LxsVUn5TnbRYC9/acbYF1p0YYn7ygirdzBBNCJJo5iuMjBLUlqyXCCVBuYcnIJp/9qJuKqrMRwQoxTEZxsopYwbW3lXB5Ld6hm0u5RCyRYHoWqe71q5hfaI1VfQmqcmpXUwLl9q+goA6AadMzhyjoAOpPT8qmayWOMmKf94B1PT+dRuA4B3siD+8+ajaUqB5MfmHOFY9KYDHTaQtzdYRR0H8R74NTQ3O+5jjhhP2QMBJ2z7k9agOnXl3OmdiDOct0HFbENi0VuRLASQMFsjDD8KTfYaZHqFnbqso01XjlaItlBu+g79a599M1GYAPbyBiQRng8+tdhYRb4fLSR4dp4VWJ4/Gq8kU8EgMzPIvQBef/wBVFyepiQeGr/y97zLCR/Buz/KrMej38cBMy7vmHzI3UdzW+kknkF1QjPTdTGlYIqTOFRjwFbnFK47GJp+ixGRoZ2MbdVfGR36fpUkvhy2t3djK7QqM429/XIPNaJkVcIfMk28ZBBLfh2qd4lLIm4BWGSshyR9KExtHPWmlQSF5LiYzI3KiBdwHP55/lW+qWsaKnkDy1GACM4/CnmJdkeBhUP8Aq4vun0zSTXTRrHGlu07nILYBx9aBEUUFos+GiB55Y5A/wpt1o1tJKWjKxZOXZMA/Toc0yeK7FqzEpGwGCccAZzwPWqpubryozvaaMnBGAMe5ouFkXP7LtQjeSskbsMZbDE++KguHhdI0w8nlNnEmckjueeaiuNWkRhsbcwGCxGPyrNk1KdRiM+WD/cHP59adguWb5nmcy3HGR0PYVSKxgE5Qj8KjeUyHJkkLddzGkRQvzszMffmqJJNy4AA9+Kc9uBbJN5md5I8sPyuO5FM8wMBwc/SnO9uLSQsWMuQEUcCkMtaTbtcXSOYx5cZ+8RWxf3giwo5PTFY+lalBBblHcB+y+lM+1/aJ85HzHAqHq7FxsjUsy93cg4Iij6+5rWa42g+1VYglvbKBxgc1UjuxLciMHPeq2Qt2X5r3yYyzjFNt5WkhLL1bnNUNcnWO3we9Q2+pxwWihvSpuUkjZimYfKT0qy0uIWbOcCuas9VWd2wDya2YJN8Z9CKaYpRG29xIU80ng9q0YJQ6A1lzsILVsdBTtMnLpk9KEKS0Lk1wse4k4rLGxVV5DjJLcjOKp6jeqLmRGOMHrngCnyRDck4k+ZlIUg9sUSethJaAscGWaHEcj43EfLvx/k81PcQrc3lsrRZjIZiwONvAx+fSqMV1FLiNnXzSOpGOauW95JAgDIJGyANvAxS1uPSwybTFAKTyl1JIXYMFR2/nVeLTY4mEd0ouYR/q3bjHqD+lXZ9RgnmS1yCxbO1OSPrUsYSGcxTSAo3IG3PHpT1EQX17GLR40lTcw2qcZC+/HpXPyxoIvL+0+aWO4kLjn/Cty806GRHubSRZEzkooH6VlyRTORHtIyOMdqaQFU5QIRHwMncecijcfIH3T/dIPP5VI9otqjNPMRxwBUISFiu3YVI+8vWgBAGySTgZ5GODTvJR12qXXGWwBkD/AAp0MMCsF3sw7r2rTFlaJarJcStBHIcrtzg0AZC27s+UlwMdTUxJiTaVDN1GcgVoWptYWeNgJom5Dvw34VNYWUFwJHckRluAG7elFwKdlBZMDJfTtFzhY0Ukn371b/4lsM8ckUEjqhJJlYYPHpTdStrOFRHBCUZTnO8nIqG0haYsPlYIM+UO+fc0rjKbyIJGZPlUsThScAUPtdSxIY4J3AZxT90SyEBFPPY8L7UwlZC0cRVS2Rk9B70xEdosUt20kMx3Jzgnac+gx1FR6rFLLKr229wVAfc2SD9fTpU8NlIoBtJoHKjEmeM+2aRLa+lfKllix8+75VHsPWlsGhu+HAUtYgWzhTuPvmtWS4E0wiQ8d6yNJje2tXEjhhngjoKfp8yvdyvuwBwKL2Q0rsm1BW8+COPqW5+lX/O2nBPSqSzI1075ztGBWZqV86sRF+dJMbVzfilMuWB4FZ+rTbZIW98Gs/RdQmYGNlyc9adrMhM8KnuaL3HazNu1nDoCvarcc2Wxms6wx5ZAp0UmCTnkGhCaGajetBc7FOM1ZhkaSEqxzuWqOs2/m2wuE+9HyfpT9OnEkKkHpSvaQ7JxOft9AupLtvtCssSk/MG5PPaluPD10s7lHEsQGVZmwT7GuouRLLE2xYnUc7H/AIqoWNwJJZreYhRjds68dxVcxFupz++WKUxsVcocdeB7CnfaWYZOS2exq2bzTbW4kkFg75GFBOVznsKxp5DLcSSRL5UbHKoO1UBcNwFcZzx3FRtdtvJ3kDOetVACxO7Oe1IIyTjrRYC49xuU/Mc55FM88eWQcYP5iolRRyeDnpUg8occnvxQAGTzFAHUU3a4bkDn1NTRqC4YRMR2zSuioAZQQeuKBEA+U9sj0pDI34e1OaRcjC8ds1Hkv2pgBbJIbr60qDJGDj8aTGTzSrjcB3oEbkeIbaK5hOZD8oVm9Ov8qLi+hurALdxuZW3bCRwDzyDUthbZiiEDgtJndv5XHfFXtQ0y2khRUMgXqfL9fXpx3qEtdSmcbFZztIdwIUDkjkDt+dbIsrmS2CWqohYlQWPBHc0+GyBEtsXysmAAfvdetWI9I+ySf6TPK+zG1t+NoobAp6dpr2NzO9xGsuCArDkHrnH6VZurazuGie9uAjopUIqHA54qdrW3aUDzPNJb5Q7kKM+w61Nb6XZgYkt4yX5yexHpRcLGcdF0yFVlmErK3+1gD06c1WurHTlHlxQs3OAdxzmugaxbAUOgweHdd39apXtlDcRDfJ5ci9ZF43f/AF6bbCyMqWwtIIyIldXyNys2QcHNa9np1vanzAkUkcuCI2GSvB5B/KopbQxCExwxuq4PUsT+BHJrQkubKyCvI/7w8Af09qlN9WNpdEAkjk3Q2eYyoxleQKa5uvmRBGSq5yD/ADrNutVkiR2ggijLdwOT7mqsc2oLZNcqVMbdSD81PYViLCbWAAwGIH50zaD0A+hpiu21mZcHdk8YppmVZM7uO/tVkj168cewp5B3ZI3D3qHz0J+VvelEuUIBbHfAouFiTGTjbjnt0ppXAPWrNhbSXb88KOpNGpRC3lxGGKkZx1ouFiriMfeXJ+lEjqVADfL6YqeOCUwfaCoC+hPNQgIyhlHB9aAGYU5JHA55p2EZPvHHbtiowUBO5lB7Amkd1HORjuKLhYUJtzsAH1HNRyW5ZsuSxA45xUgYOAM/TFIZI0P3uaAEhSSZhFmdj2Qngn69q0EOq2siwoPNDDJyBlR7mqi3IADrJtYe9X01mBLVQ+93z8xUdaljK5luWnHmxbz1zwRmny3Op3cbJ5kcIOQFIwa0be5tJ1VmYgHnZ6/WnXFvbtKsjHbgcYPFLQepzem6fLeXe1mZAudx9KsXGmm2mEksyNGD95uufeuitri3aXy0KhsYCqP1pk4hj3CZkLkcAjNHNqCRzBNrHITLM0pbpsXA/M1E0sZz5KMhA/ibJrY+y+bGkvlxsVOQT2/CrU0NkyASwIrEYyOKoRiWNtPebmhePenJ3nrUksFysg86LZIw42IBn6Y4NXpoLazVTbeWWPc8kVPaTwu3mTz/ADR87e31ouKxiRo+X8zBdMEKycmpBJJdyrEGGPp0rWW7t3kP2h4pEByARzj60s15p9s4ktgiAj+EZJpXHYz1VoSEijC7v4mHP4Vfjj3yIYomldFG/d0+uKrRalbSzNLJhNhyPXPrUxv4XJYSEFu9Fx2LF3ceSpKptI5O3/CsQ39yHaRX2t3yozW2sieXlirE981UuEhYsX2/MPSlog3KEGo3K+YTscSHLAoOarRT+UzlQNzdz0q1O1p5BRUZJV5DDo1Z5Ic5A2Z7dqrcWxaS+lVNuwdedpxTJLjzryKWRCETjGaiQNnB4+tK64OWINOwFm+JuNoSZTg5wpqbTURPMWchg2MHriorSWN32mNERRyw61bsrK3lLTeeVOehpaBqPupWlVgHYgdeT0qvbzRFHjebLL93IJFaA8uMt5ZTJ71HOivbkeWu/HVRU2S2K5mUId0xIYhT2xzTmhMU4YRZOMbqs2enLEVlUsxPUHtRfyTI6iOHcooDcjJjt4V8ucrI3VSMVBcedcRbrYE7T8xFXNQLT2CFYwJU6gim6OHtnAnYeW/Jp2FeyKIso3QNdSFmI7dqeYYViZIlH41r6hFp8uGjYbx6d6qSW8EqBYjtkPpQBpzRQTk/Zim5ecE8Gn2bSSFlkRFx3FQwQvbMHaP6gVeMlqYiSCp9AaQdCOdZo282NkIA4FVG1S9Yld+D6AU+K1Zg0o347DOaoyxyBjhdv1oAmS8uosBCFx/d4qYalenjOT7Cq0ELSOo3fXNabWgiTMbEt3oAqNqt6mUJA9SRmqjmWRixcgnuDitu2s43jLSLub3qL7Kse5jjjoKNAuzOsd1s5J3yA9QvH61ZLESGWWZwp52g5NPGox24KmMOf9mqtr5l/cFC21D2oDUebp7hyIHkAHbd0q3Fpl2sHnCZwSMhdxGalj0yGy3sgZi3JqtqGrFY0ihJBHU0BckuEe1tA15OzFv4Ac4rBkmdmOGYA9qfPezT8SOSPTFQ7XY5yapITYp3sMndSKjHovHvTwp7saHVgBzmmIdBINrI0YGe5p4aJVwTz61W+YHJNJISF3E5PYUWAklnC8r0qo825vSnvHK67tpAqPYAOetOwEJYhs96lsJvJug7Hgc80ySPbz1qrIG9aTQXN6bWmkypbgVVi1IxXAkTrWLuYUCTBqXEtSOgvLt7xl3nr2qC6uNoEQPbms5LggZzyKhMpdiSeTSsFzfsJ4Y1A4zWtb6kI+CflrjFl28g1NHet908g1PKyuY66+1KN7PCnlulLpV5GkDBm5HNcndXLzbAmVVRinWsknKlzg9apRZPMrD75/tV7M4c4c5xRHHKAAXfA4608RpnkjNTK8fdqsgjEThsrIc9jTwJRn9434GpAwblSCKeFwBzigZBEJoiWWVhn0p7vcMf9axPqKkYhTzyad5nmNkjj2pAVw10udszDPXBxR+9/idj+NWWRetIUDEfNigdyCRjIPu/nTY12g9cetWym0gfeJ7U4pgFMAnvigRSEmxcDJoa4lYBWclR0BPSp2jVX+ZcECqs4CsDg4oGKolndIUbJzwPeny+fakweeQAeVWq6Sujh0ypU5BpcPOzO0mD1Oe9FguXLi9a6hjDxhRH/Gq/pVcMc7ldlJ64NQtI6rsDZU9hRhtucHA9KLBctJNGijLMQTyBTbm4GTs+VT29qihYJhzyQeBU7xiZN7cfSkIomV8YDFRnoKieeYrsMrlfTPFWHtJfKMoH7sHrVXYTT0C5sWWoCPTfKz8wPNVftrqTscjce1ZpDqcDqakkguIlV2Q80nG4+Y3pb1reNAp5IyTVGfUA/wBazZbuRxh6jDA0uUfMb2l3qxycnAzWjqUgklicc+lcoJNv3TitOC8MiRhj0pWsO5rvfvbREqefSmafeucs56nNYd9cl5cA8Co0vGjXANKz6Dud6LqKaykXIzt6VzlpqHkfKGwM1lxanKAdpOcYqC3jmeXcw60+VvcV0tjfTVy+qqOSjLtIFTPcQwwPcMh3PkK7dfas7TrVVn+0SkhY2AJXt71qayYf7MMaDlWBVm/ip21JuYJmYnklvrTlBfqcVWUvkjqas+VKse/bgeuaoQ51VANucmmRpvJwQCOeaRSGB3ZBFDsIyCR16GmA8Rsc96sQptHzsPpVVZT24pSxY8mkBotMVTEUhB78VT2tu3OS2fXmiKYxg8A/WnteNgAgYFAEbKJGztA+gphGPwqQ3jE4wBnvSxwqzZd8CgCEg4yKVMZ9KtNDbkEK5BFVEBJweKYjfsYy9sRAdj5Byelan2dIgJZ7kgn+EH5aqaEiy2pEhzwVx7Vde2GRCo3AD+KoKuVGvrB5CqyKZAeDjvWRfakLhHURuCwwSTVrUrJrSFFjjAy2S1Uz9nbO5vm7iiw7j7PWDb26QvCrqvQt1qd9c4Bjj2Y59ayiiyHavY8VZ8lcBT6UWQXLR1+eRsj7uemKaNXQMzfZw0jevSqogWMZPSniJCOgp2FclfVp1YsQAvZR2qsb/e4Z1EhByM9jS7EyMc49aQxjOcCiwE6akTJudBsJzjFSy3rOP3KIqemKpBS3AFLscDjNFgKt2lw53F8Z6AVXit28w7xncMc1pLbyMBkE+lOELswXafrTERixKqucMccYqW3WOJsSNgegqwIZI8Eg4FRSQk87OaQG7brbmHegGD6VHIbVQZZApx61i5mVMKxAHYVDtWR1WQsQT0zQM2bhrWW2EiYxjpmsa6s3iQOMGNuRg0+SJEbbzt9KGWIKAGY+xPFMRkzxjcMDNSRStGp2gHIwQRWqmnwvgs2M1KdJiAyr9fWgDCQ7CSo2/SmMAzFjyT3rb/seV1OwioH0maIAnBHegDK8oc4OackbAYPQ1Za3O/AGTQYXj5I4piIdpB4LZpcOy8u/0zViLyGU73KntVdpEViAePWkPUaiNCwkVnVh0bPNOknlY7mYvnvml8zenqKbtYfdBxTAYZHXozY9M0scs0sqoGZmPABNSHC84zUaMqyBxwwOQRSAv3GmXdtbGSVVweozzWYVOflPWrt1qE92gR5CQKjt7hII2BQMx7mgCsUbIB6mr0mkSxwCXIbvioIpPOl2the4pbm6njITzTgUAVym1vmprDnjpTjIXJJGfWgOmOaAE54wzD6Gtaz1Zo9qPFGyjgk9azFZOpHFKzJ2oA6UXsE0e/yoyo46c1IsNg0e8ohDVgabavduwVyqjqBWwyRpGItuNvcVL0GrMqXtlHCQ8Q3Rt+lV2sAyg7gAa0mjMkQVDms/UEks9hLHB96dw0IWt/LUxqy59fWjzJVj8sKtViyyHcCQadls8tkUxAqysCwOCDyM1pWcrTyLErAMOuaz1RTkh8NTQ5jbI4b1FFgudRHCVkIEgz3Gary+czsqL071hJdzKxYOSfXNWotRdT8wJ980rDuaItrgbt5BVh0NPS1hjh2OMn61RvtTLQqsRO72rO866dxuZuPekM1byGFVBQhTUNnL9nRi4LsehpA+6H5lJPqaksACT5hA9jQI6GaNrhgynavpSRWyqCGUH3pkq3G1VVtoFTbxDD8xJPrQA5SqfKGwPSoZ4A5zxt7mo023TYRsGrTCKOMxyuCfekNlaGG3VwQRU8jqv3CKyL9wsZW3Y59BU2lxzsoabr6Uh6EsuoNHME6jvgVUuLe5uZtyu4iPJFbCQQtncozT5Zo4QASMCgRmw6ZFsJlJBPaoICum3DMFLA9Ks3Wpqxwi9KoySPcN81WkxXsW7jUpLhCPuKe1Z+0E9M1YSAEcmowu1yPSnsSRi3B5PFL5aipGJPSmgE0wEZYwBUbbc4XpUu0EHPNMaMYoAglKg5qPKEZzg1fg08TgktgVVltljlK9cUCIxyMF+Kiki6DdkVP5K56U54cKMKQKdx2Kvlr2pjW4PUVaEfNOCb22oPqaQzNe0XBNUVtZpXIijLfSuoi09pm+QZUdan+SByEQIAMdOTUuVgsccLWcvsEbbvSkkt5Im2upU+9doxCBXiiGT3pl3DDdQlWTDnvQpCaORS3LLuPSrMMBDLsTJNbX9j7ojsYLgcAU2ys5oJsyDJ7UXuOxmyK8W5ZUC8ZGahUuQSqcVvX9mLzaG4bPWnT6TaWsSeXK0jsORnNO4WMZoJooVn2l0Yc47VHAd+WKcCuh0+Fggicfux61pfZraCBgka5PPSlzBY5hYJW27IH+Y8VYvLK6tLdZ5MYPVfStyOS4LRoI1A9u1XZI4pMRS/vGPJFK47HFRyTSyACM/U1atVubqcW8cQB/vHpXS3Fgjr8ihCKrSqtkodThvancCvdWS2trGHIabPJFVVRS2TTbmaS5l3seB0FQoz7sdqYi55aknFNMGMkHmmK5UUolYg0ABgHVjk0zylI+YU4yGmM9ACGKMg4Uc0xrdXbJWpVYZ+anl1pgVBaKO1TEkWxhCAKe9SO61EZKQEH2dQKcsWFxk7aeVLcL1NJLDNagByGDehpiGyRnyvK8w+X1xUVukULFnXd9am3gpyDUW7PGOKLBcddJHdRPLCm105FY8t3cPwx/Suhs1KBozG3z8ZxV2HSUSRgI+SO9Qnbcp+RxDZJ5603BFdc/h9IJmdl3Bug9Kp3OlSzXHkLGFAGcgVXMibHO09ZWUYBrUuNEuYsYTj1qvPpdxBglcg9xTugKRZj3oUZPNX4tKnkiMgGADg5rds9BiQKT85Yd6TaQWZzKHB4qwk0rgIvXtiugudHtIjskXa5HBo+wW6WQWKPMgOdw60uZFWZHo9lMhd7gnaBkpnrUOtast7sijiKJGeM961rKWS3RpZw2AuMGucvJxcXLyBMAngUlqxvQVLyJUH7v5j1NEt1EwAVicdqgKg0LEM5xVkFh5ozHuC84qs8jyEZ6DpUgQ4xjil2cgUAMGeKkwzc9KckY3AVc8hdvBoGVBnHNBUkCpnhAHWmqoz1pAOWwnIDLGzL1yBUL5RiGyCOxrZTWWitxEqAkDGSayLgmWUyNwT6UAJ5gI6UBqZtqZIxt5piNrR5JI4chWIY8Gtq2klaQvIowBxWJpO8gRb8J1xWvIyJGQZdpHfNZtpMtXM/Xr1iFDDapOMVkE2+Dk81r3VuL61KlwTnhqqRaD+7OZMk98UegadSlH5QkAHerEmzbkdq0/wCxLWO1LHPmgcHPNZH9k3zIGYjBp6i0EaeNht3AGmPOB90FvXFMm0W4LqEOcnk+la1roJgiwZCSfWmF0YtxdogXA570xNUReGXNbN1pqg4kQMPUVSbS7dhwoz6YpXHYqDVgGO1OKmj1hncIsJb2FXLOwhjwhjyTWtBp1vaSBygy1F0LUwJ9adWCrEVYdQRTG1S7KbxCQB3rWvhD9o4hBb1AqC6ilMOI41x3FPQRmf8ACQSmMoyZqSxvrm6chEyo65q7a6fujMhgAPuKJLea1HnQpj1xQBFNd+Uc7fmHUVXe7WVkkKbVBrTskjny8yDJ4PFZ+rxrC3loo2ml1GLdXSsMx+lZr+Yx3F8H0q/pyW5GZj09TV28it5Yf3AXIqtCb6mFib/noant7ySNsTuWHaoiSpKnqKayb+oosO5rpq+2Mqmfqapm9uHBBl69qjtoUOQ7c9qYVCOQfzosgLMVwIo8/eY1C7S3Um2Lr6U9bcSLkcCpYYWhfclAE9no0pAMhBHcVcj0GGSfJGQO1U1vbuPKhgRVi31OaA5bkmgC3d6VBBESigEdsVTiheSEhYgPwqaS9luSCRx6VHJfSIPLSM0gMySykjLFuh7VTi06a5nKwnj3rf2+bERKNpPtTY4ltxvjbDCgZgPaXVtP5LRkt2xUx0m+MZlaPgc4HWtdxc3MqyjB2nqamWS+aTaGAXGCMUXA5ba+4HGCOoq+ltHJHvkbmtebS43Jkbhj1rPksmkcKhwKLgVpo0Ef7sim2drHdIQDhx2rSbRgEU7znvV6G1tIYsKNsnrSAw3sZWGxVAxSpp/yFZDtNakkc27K8ipRbPKnzLg0wKukwizctvyDV268t42Ktg/WootPcZLNgVXurYupCuQR70mNWCyfDEMw61PqIjntmDDJHQ1QtLSQv3x61orb4GGfIoegjmUUpkYzU8cchGcECtl4bYN8uN1TQ20bqRwM+tO4WOdOQ2D1prE561dv7BoXZgcis4GmIlBzSkkHrUQbFKXzTETxsFbcRmtC1nhY5fFY4enb+KBnRyXMG0KgFVpLIS/MH2/SsaOQq2c5qWS+lYbRxU2C5//Z;" vertex="1" parent="1">
          <mxGeometry x="370" y="910" width="1024" height="640" as="geometry" />
        </mxCell>
        <mxCell id="OH8x0ckIfO6NYU9lgbXt-15" value="" style="rounded=0;whiteSpace=wrap;html=1;fillColor=none;strokeColor=#CC00CC;strokeWidth=6;" vertex="1" parent="1">
          <mxGeometry x="480" y="1035" width="410" height="480" as="geometry" />
        </mxCell>
        <mxCell id="OH8x0ckIfO6NYU9lgbXt-19" value="&lt;font style=&quot;font-size: 18px;&quot;&gt;(x1;y1)&lt;/font&gt;" style="rounded=0;whiteSpace=wrap;html=1;" vertex="1" parent="1">
          <mxGeometry x="490" y="986" width="90" height="40" as="geometry" />
        </mxCell>
        <mxCell id="OH8x0ckIfO6NYU9lgbXt-25" value="" style="ellipse;whiteSpace=wrap;html=1;aspect=fixed;fillColor=none;strokeColor=#CC00CC;strokeWidth=8;" vertex="1" parent="1">
          <mxGeometry x="465.90999999999997" y="1021.0799999999999" width="30" height="30" as="geometry" />
        </mxCell>
        <mxCell id="OH8x0ckIfO6NYU9lgbXt-26" value="" style="endArrow=none;html=1;rounded=0;strokeColor=#3399FF;strokeWidth=4;entryX=0.508;entryY=0.406;entryDx=0;entryDy=0;entryPerimeter=0;" edge="1" parent="1">
          <mxGeometry width="50" height="50" relative="1" as="geometry">
            <mxPoint x="480.40999999999997" y="1061.16" as="sourcePoint" />
            <mxPoint x="480.602" y="1011.0000000000002" as="targetPoint" />
          </mxGeometry>
        </mxCell>
        <mxCell id="OH8x0ckIfO6NYU9lgbXt-27" value="" style="endArrow=none;html=1;rounded=0;strokeColor=#3399FF;strokeWidth=4;entryX=0.508;entryY=0.406;entryDx=0;entryDy=0;entryPerimeter=0;" edge="1" parent="1">
          <mxGeometry width="50" height="50" relative="1" as="geometry">
            <mxPoint x="505.80999999999995" y="1035.58" as="sourcePoint" />
            <mxPoint x="456.00199999999995" y="1035.5800000000002" as="targetPoint" />
          </mxGeometry>
        </mxCell>
        <mxCell id="OH8x0ckIfO6NYU9lgbXt-29" value="&lt;font style=&quot;font-size: 18px;&quot;&gt;(x2;y2)&lt;/font&gt;" style="rounded=0;whiteSpace=wrap;html=1;" vertex="1" parent="1">
          <mxGeometry x="897" y="1463" width="90" height="40" as="geometry" />
        </mxCell>
        <mxCell id="OH8x0ckIfO6NYU9lgbXt-30" value="" style="ellipse;whiteSpace=wrap;html=1;aspect=fixed;fillColor=none;strokeColor=#CC00CC;strokeWidth=8;" vertex="1" parent="1">
          <mxGeometry x="872.91" y="1498.08" width="30" height="30" as="geometry" />
        </mxCell>
        <mxCell id="OH8x0ckIfO6NYU9lgbXt-31" value="" style="endArrow=none;html=1;rounded=0;strokeColor=#3399FF;strokeWidth=4;entryX=0.508;entryY=0.406;entryDx=0;entryDy=0;entryPerimeter=0;" edge="1" parent="1">
          <mxGeometry width="50" height="50" relative="1" as="geometry">
            <mxPoint x="887.41" y="1538.16" as="sourcePoint" />
            <mxPoint x="887.602" y="1488.0000000000002" as="targetPoint" />
          </mxGeometry>
        </mxCell>
        <mxCell id="OH8x0ckIfO6NYU9lgbXt-32" value="" style="endArrow=none;html=1;rounded=0;strokeColor=#3399FF;strokeWidth=4;entryX=0.508;entryY=0.406;entryDx=0;entryDy=0;entryPerimeter=0;" edge="1" parent="1">
          <mxGeometry width="50" height="50" relative="1" as="geometry">
            <mxPoint x="912.81" y="1512.58" as="sourcePoint" />
            <mxPoint x="863.002" y="1512.5800000000002" as="targetPoint" />
          </mxGeometry>
        </mxCell>
        <mxCell id="OH8x0ckIfO6NYU9lgbXt-33" value="" style="shape=image;verticalLabelPosition=bottom;labelBackgroundColor=default;verticalAlign=top;aspect=fixed;imageAspect=0;image=data:image/jpeg,/9j/4AAQSkZJRgABAQEAeAB4AAD/2wBDABEMDQ8NCxEPDg8TEhEUGSocGRcXGTQlJx8qPTZBQDw2OzpETGJTREhcSTo7VXRWXGVobW5tQlJ4gHdqf2JrbWn/2wBDARITExkWGTIcHDJpRjtGaWlpaWlpaWlpaWlpaWlpaWlpaWlpaWlpaWlpaWlpaWlpaWlpaWlpaWlpaWlpaWlpaWn//gA8Q1JFQVRPUjogZ2QtanBlZyB2MS4wICh1c2luZyBJSkcgSlBFRyB2NjIpLCBxdWFsaXR5ID0gOTAKAP/AABEIAoAEAAMBIgACEQEDEQH/xAAfAAABBQEBAQEBAQAAAAAAAAAAAQIDBAUGBwgJCgv/xAC1EAACAQMDAgQDBQUEBAAAAX0BAgMABBEFEiExQQYTUWEHInEUMoGRoQgjQrHBFVLR8CQzYnKCCQoWFxgZGiUmJygpKjQ1Njc4OTpDREVGR0hJSlNUVVZXWFlaY2RlZmdoaWpzdHV2d3h5eoOEhYaHiImKkpOUlZaXmJmaoqOkpaanqKmqsrO0tba3uLm6wsPExcbHyMnK0tPU1dbX2Nna4eLj5OXm5+jp6vHy8/T19vf4+fr/xAAfAQADAQEBAQEBAQEBAAAAAAAAAQIDBAUGBwgJCgv/xAC1EQACAQIEBAMEBwUEBAABAncAAQIDEQQFITEGEkFRB2FxEyIygQgUQpGhscEJIzNS8BVictEKFiQ04SXxFxgZGiYnKCkqNTY3ODk6Q0RFRkdISUpTVFVWV1hZWmNkZWZnaGlqc3R1dnd4eXqCg4SFhoeIiYqSk5SVlpeYmZqio6Slpqeoqaqys7S1tre4ubrCw8TFxsfIycrS09TV1tfY2dri4+Tl5ufo6ery8/T19vf4+fr/2gAMAwEAAhEDEQA/AOGBqaOoQtTxLUSJJGOBUDSGp5BgVVI5qYgJmnKaNtKBzVgTRnBrXsrjaRWQi1dthlhWd7MTOwsptyjFacZyKw9NztArbi6V1p3RCJRS0gpaRQUooFLSGFLRRQMKKWikA000080w1SJY00UGkNUSFLTaKYh1Lmm0tAx1KKYKWpGOpc02iiw7j80ZpuaKVguOzSE0ZqNmoC4/dSg1Bu5qRTQBIKWkFLSGLSNS01qBkElUpRzV2SqUvWsKhpEjpyvimmmMaxTsaMvRTCrSyisVXKnrViOb3reMjJo1hKKa0wqh5+BUUtz71pdEalyS4A71UkugO9Upbg1VeR26U+dIXK2XZLzHeq0l/jvVVkdqjNuT1qXVQKmx8moHtVZ7yRqlNv7Uxofap9oVyEKyOzcmr0HOKqrHhqvQL0qJO5UVYuwrVgLUcQ4qcVkaigU6gUZpgBNNNKaTFADaSnYppFIBDTQBSkUoFMBVFSADFIq07FMBpop2KTFIAFLQKXFACYqGUcVPio5BQBlXKZBrKliO6t6WPNVGgyelUpWJcbmV5JpwiYdK1Bbe1OFt7VXOTyGaokXvUySyL61dFt7Uv2b2o9oHIiOO5YdatxXXvUItvanC3I6U/ai9mX47j3oln+XrVPayiq88zKDmn7RCcLEd9ccHmsOeTJyanu7nkis53z3rGXvMga7c1GWpHNMBzVpDL1sxzWlF05rLtu1aUbcVzVVqBKWAqKSQVHK+KpyTGphC4h8r81BvyaieUsakiG410ctkBKmaecipEj4p5TisnLUZVY1A/NW2SozHzVxkgKezJqxDFyKf5eDUicVUp6ASiL5arzR4q2H4qvMcisot3AqpwasoarfxVKprWSuBLmo3IoLcVC7UkgFLUzNMY0CtLASIcnNTqeKrqcU5W5qWrgWMZprAg1JEc090BFZ3swIEPNOfkUojpdtF0BWKEmmshAq6sdI0YJqlMDMZDmm4xWg8Y9KqyrtrWM7gRCpFqMGpY+abACtNxg1Ps4pAgqeYCSHtV2PpVWIYNWFOKwnqIm7VE45p4OaRulTF2GVnqB6nkqNoX8jze2cVsmhlQLipUOKUIaRxtFXe4hksmahDZNDkmmjrVpWQyYUoHNIozVhI8ipbsAgqzbNiQVHs4p0alWBrO5LOr05l2itmJxgVy9jdBQAa2Le6UjrXXCSaI2NYGlqvFJuqcHNUUOopKM0DHUtMzSg0gHiikBooGBpppxppoENNIaU0lUiWJRRRVCCilooEFLSUUALRRRSGLRSUtAAelQStipieKp3L4zRYGwD81aiOayROM9auwTDApCTL9Gah80YprTAUWKuWNwpjPVVrgDvULXA9aTQXLEj1Wc5NMafPem781zVGbwFNMIpc0ZrE0GbaUAinCnDFO9gIzuNMMZPWrHFHFHMxWRW8ilEA9KsUtFxlfyB6UhhFWKDSuBUaEelQyRCrrGoJDTuBRaPDVNCKa/WnxdaLgXYqnFQRVYAoGGaQmnbaCtMBoNOFJtpwFAgxTSKfRigRFilAqXbRtoGNFOpdtGKAGk0lPxSbaAExS0AUuKAEpj1IajakBCy0zYM1I1NHWkMAgpQgoFOFABsFLsFKKKAECCl2ilooARkGKzrxRg1pMeKzr1sKaTE9jlr4ESGqmau3nzOaqBea0i9DnZG1IBzUrIaVIs1V9AJIBWhGeKqImB0qdDiueeoBNyDWfLV+Q8VQm61dMCDvV62HFUgeau2/arqbAXhgCmFhTWfAqs0nNc6jcRYLCmAjNQhsmnLV8thkuAajOc8U8U5VpXsIYM01xxUtMY5ppjKpXmnjpTtvNJitLgIeahfipyKglpxAgJ5pytmozyakiXJrV7AS4o2mpVXilIway5gHw8YqyCCKqrUm7is5K4ElKAKh3GnqaloRMOlRucU/cAKryvSSuwEY1WmGacZPmpsjAit4qwyqeDU0TCoH60KcGtmroZfVs0hODUCycU9WJNZcthFlDU6mqyZqYNWUkImFIxoU0jis+oIYhRiUfjd0b0NaJtVFrJGh3AJnn1rIbrWtpUu5HDdVxz7VVRNK6KM0IMVDMAKlElMk+YVavcRRkHNMAqZ1OelMC810J6DHx1aSq6jFSqSKzlqItqKcVwKZEamPIrnejERCUxng1etLo7hzWbKKbE5RhWsHYTR2lpcBlHNaUcmRXJ2V3jAzW5b3AIHNdkJKSJ2NTNLUEb5FTCrGLS02ikMfmjNNzS5osFxc0hNFJQAUlFFMQUUUUxBRRS0AJS0UUxBRSFhTS9AElNLAVC0oqCS4A70WFcsSSgCsy7m4PNNnuwAeax7u8zkA1MpKKFuOa6xL1rQtrrIHNc7uJbNWYpytcqr2ZfKdILoY61HJdgDrWN9pbFRSTO3etlWTFys0pb4DvVb7cWbANZzEnqadD96iU2y1E2IpWbrV2PpWdbdq0ol4rlkdER1JipNtG2oKGUopcUuKYBRSiloAbRS0UANpDTjSGgCNqgkqdqgegCq/WpIutNfrUkIpgXYR0q0oqvCKtL0oQ2AWkK0+mk0xDcUuKTdRmmIXFLTd1JnNADxS03NG6gB2KMUzdS76AHUU3dSF6BEmKTFNDU8GgY0iomFWCKjcUmMrsKaBUjUzIzUjHBaUCkBFO3CgAApcUbhRuFAC4oxRuFLuoAZJwtY1/JgGteZuDWBqb4BxSJlsY0h3OaAmaZklqsRrxQ9DnGeXmpUip4WpEGKzcgARcVGyYq0CMVE+KzUmMqScVRuDzV6Y1nTHLV1UgI15ar8HSqUK5atGJQoFXUfQBX6VUfOatScGqshqIAKrYNWU5rOLHNWYJTxVSjoBe24FITgU5XytRytxWC1YEbSYqPfzTHJqPdg1sogWgc0jEVEr8UpOaVhCk5qOReKeBTZDgVS3ArbeatQx4xUKkZq5CeKc27DHbcVE1TMcVC3NZoQ0GnZpp4pBk1QD809TUeMU5c0mA9nwKpzS1O/SqcgO6qgkMbvOaUuSKZinBCRW2gDD1oFOKUYxTuO4qnFWIQWyQOnWq6irVsTGwYfl61EthF20h85WPpUZBDkEdKv2EkQYheM84oZWivioXKyfka5Od8zQFaMMQSFJA61IELJuxx9av200MVwwdflkOOf4e1QzNBuUJIFUEgHB4NTza7AZ0iVd0sj7Pcj+IYP86SS2eTHlDezDO0f09as6fatAgaQbWl6A+nWnKS5BnOCSp0O4VSB5qeJjmuqURE5QVH5fNWUwRzQy+lZc1gK22nCnlSKaOtVe4E8dT5GKrR1KDWUkIbIM1XIwasNUL1UQJoJSpFa9ncncOawFbBq7ay4cc1cW4sTR2FrJuAq+vSsWxl+UVqxyAiu5aolE1FAOaWmMSloooASilopAJRS4ooASlopaYhKQnFOpj9KAGs+KiacetMmbANZlxcFCeaqxDZotcD1qF7oetY0l971Xe9J6UnKKBKTNp7setUp7wYPNZbTyN3qM7j1NYzrJbFKm+pJcXTMeDVXJY808rzQExXFKfNuaJWACnrxTQKWs2Mk3cU1moFIy1tTYDC9LC/z1GynNLAp310X0Gkbloc4rUhHFZdoOBWrD0rnkbImxSEU4UjVIyNqZupzVGQc0wHbqN1JtNG2gBd1G6kxSYoAC1NLUpppFADGaoXapmWonWgCs55qxB2qB1Oas269KYF6HtVodKrwirQHFCAYaYam201l4qhFdmxTDLinSiqM8m2gC353vS+dWT9pwetPFwPWiwGn53vSGX3rP+0Cmm5FOwrmgZvejzves03IpPtIosFzTE1O35qlC+7FW1HFAEyGp0qFFqwgpDJMcVE4qftUTimwKclRZ5qxItRbKzYxoNLmnhKNtAxuTS5NGKKYhRmnCkFOFADJFyKx7+AEGt1gMVnXijBqWKWxzDQ4epUFST4Dmog1Z3bOcmGAKaXxTd3FQyOaSjcCYy01paqljTWc1ooAPlfIqm4y1SM+aTGTW0VYB0CfNV4Diq8eBU24AVnN3YEc1VXUmrDuKaBupx0AqFTmpIjgip2j4qHGGrTmuMtq+BTJGpi0khxWaWoDWPFQk81Ix4plaIB61KtMQcUpOKlgSjGKrzNzSmTAqBmyacYgIDhs1chcYqmBUsZxVSV0Bbdsiot3NAbIphXJ4rNIQ4nNSIM1EAakiPND2Am2cUgGDUvaoyeazTAUx5qCW361dj5FLIo20lNpgjGaPBp6U+5G01HGSfugn6V07oY9kphj9quy2jpbR3AOUfr7VHt+UHB5qeYCsic1ZRcDpVi1tlm5z3wRUrWrRSBX+6eh9aiVRN2AhtgzTqqja1bVksm1ppjhAcAe+altrWEgFQN+04NQXDFNOCgEs0pBHpXPKXM7BYbeQCaJ504kDcjsfT+tZp6AdmH61etrlZZZI2OFkGGB7eh/A1FDCUuYiyHaG3fXHWqWmjBu5FYXLW1wjqMgHlTW7dTpJEky/K2M4PIzWZeGIXJZUAJALEDqcU1ZJHiKMpHAK59MUpe8GxzQBqaPg05o+aAhFdjaYFqM1MBVRGxVlG4rCSAHWoytPdqYzcUIQqnFOByarl+aFkp8oyyTUMhpPMqMyZNCiIUVJE21hTAM0uMVTA3bK7AABPNbNtdBgOa42OUqa1LG6ORzWtOpZ2ZDR18L7hVism0nyBzWnG2RXUJMfiiloxQMTFGKWloAbilxS0YoATFFLilxQA3FNZeKkxQaAM+dDg1iX0Zwa6KfGDWJfEAGm3oTbU5xwQ5BqRFpZsGTipYo8iuGUtTpjsN2UbKn24FNNc9SQmRFKaRipz0qF6yTuSRmgUhNAarGSqKeEzTI25q5EAaqDsNFYwZ7URQ4fpWgEGKFQbq2uaWJraPAFaUS8VVgXpV6McVJQ7FIRT8UhFAERWk2VKaYzYoAQqAKY2Ka8uKrSXIHeqsS2TlhTC9UnvB61C1771XIS5o0i9N31mG896PtnvRyMXOaRakJFZ4us96cLjPelylKRZYAmp4FqiJcmr1s2cUrWKuaES8VOBxUUXSpx0poBKRhxTqQ0xFWZeDWPfAgHFb0i5FZV3HkGgZzc8zoahW9erd9FgGsnByapCaLwvHpftTVSBoLGqFYuG5b1p8UrOazi5q7YZYigVjes8kCtSNeBVGyTgVqxr8tZstIVFxUq0wVItAEg6UxhTx0pDQIrutRnAqd+lU5mxUlXHFgKjaQetVJp9veqr3R9apQbM3OxpGUetN84etZJuGNKJXPrV+zM/aGuJh609ZR61imZl9aVbwg9ahqw1UNp5gB1rMvLgYPNQSXmR1rOuZi2eaxbuNzuRzSbmNMRsmoHelifmny6EFztVWZsGpt/y1TmY5pQWoClqikbIpAxNO25FbWsMiXJqUDFKq4pTQ2IA+KGk4qFjg03dT5QHs9SxSdqqk06M4am46AaB5WqzjBq1EMrUcyYrGLs7AMSmSdacCQKjY1a3GHXikYYp0YyKeVyKd7AMSpPLyKYgw1WVFTJ2ArNGajMWK0CgxTWjGKSqCKISggA1M+FFVy3NaLUZKlTKBVRX5qUSYpNMCcqKReDUZlpVbJqbMRaU5FRt1pVPFNc1CWoiaFsVM3K1TifmraHIqJKzAz7pTzUdnKIZct0PBq7PGCDWc6bTW8GpRsUdLayxT2zW7AEEHFJNZhtHjIHzIetYNpctA4PbNdPb3MFzp7xoeccj0Nc1WMoNNbDRixxSW7gt90960GfzYAH+8p4NT+YkeEkQNH6+lLG0EV2YyA0Mq8E9qcrvUkbYhXn2lyoFWLyNomO7lWO78azpoWhusqTzxx3FWZ7jY8PmZZSCGBqLJbbjKs8PkyCcMpBPOOv4ipUkuWRyqho+xU9PQ1JcrHMXVVK/KCCehrPtpJYXkZWZNntwaqOq1BhJI08hyuDjGMdKvi6hdRC5xx8jD/Gsye7Jk3IiBl4OO/1qIMXTIO3P6VbhdBsIVzRt4oJxQG4qtQGFOaUZAp/WlIGKdwI8kmlxmk6GpFwaGIiMWaRo8CraqMUkicUlPUZluxU0isSamlhJNMWIg1umrAWIualZeKbGuBT3bArFvURXPBqzbuQwOapu3NT255FU1oB0enSsxArobfJArB0xOAa6K3X5RXbTvy6mXUnFFLilqihKMUtFACUuKKXFACYpcUoFLilcqw0io5GwKe5wKpXEoANAmRXMowawL+YkECtC4kLZxVA27MckVE5WVkEY3ZlpGzPk1fiQgVOlrg9KsCHArjkdKWhRkXAqsxwav3C7RWXM3NYyVzOQ/dmmOaiD807OanlsQNNN6U80wirQx6Hmr0LVRQGrUVK9mNF4NxQjfNUIPFPj+9WqNUaUHar8fSqFv2q/GOKZRJSGnUhpAMbpVaVsVafpVKccGqQmULqfaDzWbJcE9KtXak5qp5ddMIo5pSZCzOe9Mw3rVnZRsrTlMittNG0+tWPLpfLp2ArjcKcHIqYR0jR0uUpNkkb5xWtZnOKyY05Fa1mDxXPNWOiDNaIcCpx0qCIHAqwBxUI0YmKMU4ikpiGMOKoXKjBrQYcVTuehpMpHPX6cGsYxcmt69XOazBHzRcdip5NJ5PtV8RUhi9qLjsUDFV7T05FMZKtWK4YU7ktG7aLgCtJBxVK1HArQUcUhMZinCgilAoEPWgilApTQBBJ0rNuTjNaco4rNuV60JaiZj3DMWqNYyetWpI8tTljGK6ktDmerIEiqwIhjpRgLR5gx1qJSsCRBMowazpX2k1cnl681lTyZY1zTdyrEvme9Mf5qrbzmpVbNZ8thkbrTBxUzmowuTVp6AOD5FRuKkC0jLQgI0TJqZY6RBUw4FKTAiYAVC9SuwzULmqiMikFR05zmmVshC9qFPzCkJpoPNOwzZtuVFWHiBFULWXgVe8ziuKaaYEbwALVCePa1aTyrjrVC5cHp1q6bd9S3axFGcCpC+BUUdEjCtWrsgAeatRNxVAMQasJJgUSiBbzmmPIFFQ+bioZJCe9QoAJNJmqxNKxyabXQlYYoNSKajAp4FNiZIDU0VVwcVPEazlsItL0qOQGnqeKXGaw2YiBM5q7CeKhEdXbS2MwOO1TUkrXGRuhfhRk+gqlLAWJAGDW0qpGyupO5eq1PB9lkuws6DLjAb3pQm1sGxy7WssZyy4X1rQSO4tgrYBGPvL6VuXdoVjdQNw9O4rKwyoJFDBc4zjjNP2rkrNFMbHNNNJtKFh3FWZWa0QJLGeu5M9cd6dJNDt3I22QLxjipU1CC+MIukBZcqffjrWd7620FZGbJ5yMDESyE5C1PvkwPLOHHTjPNRXANvcYiJaIngNzipEkQvz8p9ulU3ezQiUX0rRvHPH0HzADB+uP6VGMrCyBgyNzsNWpwsi4bk4yreo9KpzAhdy8kdaVxlbZFJJjdsbnOe1MCO4BtcseuB29ahnc+cHKk+tT2t1FCQ6Blduq54rezSuIjINRHINWH+WoWOc0JjsOQ1KKiRanRamQhhjoVcVPtGKaRU8wAKUnikNRO2KSVwFZQaaFFRmXmnB81dmgJcYFQy5xUqtmlZNwpJ2YGf3qeLgih4sUR9cVq3dAdVpDZRa6SD7orltFPyCupt/uiuyDvFGS3J6KWjFMsSloxS4oATFKBRS0hgKGOBS9qglfApDI5pMCsyZvMfAqS7nAB5qC1/ePnFBO4qWxPNTfZxjpV5I/l6UOuBWbRqtDMaMBqY+AKnmOGNU5nwDXNLc1voUbxutY8pJNaF02SapFc1k3qYtkAp6mlK4pnQ09ySQmim5pRSsMlSrEdV1qZWqUrsCytTRD5qqq1WIWy1bpWNEzUtx0q9GOKo2/ar8fSg0H0mKdig0CI36VTmxVuQ8VQuGxmi9hMoXIGarYFTTtyahzmt4TOaSGnFFKVNN2t6VupEWDilzSbWo2tT5gswzSMaNppApyKOYLFiBMkVr20YAFZ9sh4rVgGMVzz1OiBcjXiphioVPFPDVJZJSGkzRmgBG6VTuF4NXT0qtN0NSykYd4vWqKx81qXa9aoqKRaEWKh48Cp1xTZOlIooSLipLL74psppbM/PVohnR2vQVfHSs+1PAq+p4pEMGoBpjNTd9MCyCMUuRUCvxS7uKYglbg1nXJ61ckORVGdSc0LcTKEjfNShuKUwkmkaIgVrzqxhyshlkxVKWcg8GpLglc1RdsmuapK70ASSVmqA81IeaQioTGQFealWmtxSBxVbjHkZNSpHUakE1ZQjFZydgInXaKrSNzVyYgrWfNkGqp6gPWTFOaTiqe8g04MTxWvIA8tk5pjNmnhSaRo8CmrDIGNNzTmBzTcVoAGgLQaliXJobshk0GVqd5DjrSpHhelRSZxyKw0bERPK2etCguajxk1YgxmreiAkEOF96rzLt5rRGCKp3OMms4SbZVirQSRTgOaV14ra5IwMaRgTUsUeTVpIAe1JzSGZ2wntS+WR2rU+zAHpTvswI6VPtkBlbCO1BGK0JYMdqqTRkVUZ3EQ09GxTDTc4q7XAupJU8bZqghPFa1rZtLAXHUVhUtFaisA5q1aSiKT720HgnFVEBHBqVFJYYrCSXUCeWONXJ+1cnkfLUf7zqDvAOc4qV1GAcc1Eu8P8vANTzXGWU1huI5lBx0Ydat6dcq4libaQ53AEcVTijRfnZVf1U96pE+VOWibaucqCeR7VVrga13YRyKTEAj+nY1iXJeMKQu0qeoFXk1GZlxJGT/ALQqxDNBJuEgG89MjrTTcWBmrOhKtKRz2Jok8tpNyybSfXmrAntnlVjGoZDkZFQ6rZK/72H5WPIxwG/+vVK1+wFld8IUMwaM8hh2prxsjYPflTWfGszIFEwwOozipbe4k80wyEMO3PSk4dgGXER87OTgjscVNDapxJ8vI7nNWkCM24gEgcZqrdCOIBgmcnBoUm1YClLLioQ5JqSXk9KaE71srJDJkNTK4AqtyBTTLjipcbiLhkpA1UhLk1YjJK59KThYRYzkVBLTgaa9SlZgVSfmqQGmumTmnotau1hkqGrKDIqui1ZQYrGQiGVahRctVyRcioUXa4zTiwOg0aLaoNdPAPlFc9pRGwVvQtwK9CGkTNblqio99JvqiiWlqHfRvpDJqM1DvoMlAEjsAKoXUwVTT5psDrWNqF4FU80EtlWe6D3GzNbVgihQa5KKTzLgtXS2E2FFQnca0NsYxUMzACmCXiqtzOADzSk9C7la4kG41QmkGKS4nyx5qlLN15rhlLUrm0I5myaiqOSTmojLU8rZBK9RUb80qjNVawAKcBShacBUtgOUU6kWnE0RdmIUMat25+YVTB5q1bn5hWnMVFm1b9q0I+lZ9t0FX4+lNG6JaQ0tBqgIJOlZl2+M1pTdKxr49ahsmRnyy5Y0+EbjVKRvnrQsvmxSTdzJK5big3DpUv2X2q1bx8CrYiGK1UmaciMr7J7U02vtWv5Q9KQxe1PmYciMc2vtUZt8HpWw0XtUTRe1HMw5EVYExjir8Yxio0jwasIlK5SRIDxRk0oXijbTuFhQaUGm4xS0DsPzxVeXpUpPFV5W4NAIzrs4BrNDcmr142QayyeTQWiyHprvkVX3mkLkiiw7jZWpbQ/PULmpLX79MTOhtH4FaKtxWXadBWkvSkSI5qPNPalC0gEXNO7U9U4p4Wi4iAio2jzVvaKTbSCxSEHtSSQcdKvBRQ6DFAWRzN/BgHisN+Ca66+hyprl7yIo5rPqYyViuGpxPFRA4oLcU7EEcrVXL806VuTUagsa3irIZPG5NWElIFRRQk1M0BFZycbgKZMiq8vNSFSBUTHiiKArN1p8S5Iprdas2y89K1k7IZZiiyOlEkVWUwAKjmYVy8zbAotDzTTB7VYDAmplAIrTnaEZrQmnwJgircijFQZCmqUm0MvRgbaZKi7TUccoxT2cEVjZpjRV8umjKnirB6UzaMVqpCGiVsVDK2TmptlQyLg1UbXAYvWpSQahzzTweKpoCVODVyIjHWqKtTxJis5RuBohxQXFUPO96esvHWsvZgWiQaqTrmpFfNI/IpxVmIzpVwaiPWrvk+Y9NltWXnFdKmtihtvIB8rDrW9pk2wmNuh6ViLaORuFXYlkCggcisKyjJWEad1b4G5fWqalkertpcebEY5Bg0yeEda5Ytr3ZDfciWUs3zdamZl5btVOSVVXaEyR3qRXVowN/JHINU49RCS5LblfAqrKpYj5gaZKfLcqGyKjDVvGLSEWYcxAlZOT1FS796HzAG/Qiqgw6ZzgetOWRRkSSKygfjQ431AmaSEr85yff73596SSfES7GbYDznkZqlI8f8G4UxJGDYGeeKtQuIsu+8dACf4lFLbRoh4Z9zd8YxSQR7s72PHGOmKkWMI/P4Um0tBkjyPGCwckDrzzTBMJFw+CD3qGZ+eDUcICsSG4J4ApKKtcBDICaejAiqo5qaMVo1YomIyKrSDBq0DgVBIAamL1EyBetWo6qgHdVqLpVzETYprtgU4tgVVkk5rOKuBKOTUirVWOQk1ciBaiSsMkUVKtNAIpwrBiH4yKjaPmpVoyM1N7AaWmOUABrfhl+UVz9mwOK1om44rqp1WlYpRTLxlppl96gwT3pCp9a29qP2ZY82k86q+0+tG00e1HyFjzqY82BUWw+tMkXjrS9oHIQXV1hTzXM392zuQOlbV3gA5rAu1GSaTqNkOCQ23n2MM1uWd8oA+auZ71NESKSk4g0dd/aK7eDVS4vNw4NY8bHvmrAbisalVvQmw55Ccmq0r0+RuKrOc1lFXGQyMSagLnNSuKhYYrpihk0bVaQ1QQ1biaomgLNLTVyeACTU8dncTf6uNm/CsQs3sQbsUhete28PTyczuIh6dTV6Pw/Zpje8jH8qrlLVKTOaDVZt5MMK6L+wtPP8D/AF3Ug8P2mcpI6/jmnyj9lJENpJkCtOJuKhh0yKIjErH2q0kUS8ZJNUlbctRY7NBPFPHUYUU7djrVXRXKyhcNgGsO/k4NdQxjbhgD7Yqhd2FlcggZjb1WpdhSg2cY33q0tPfkVJeaFcQ5aIiZP9nr+VU7ctFJhhg+hqNjCzi9TqbZhgVeUgisizlyBWnG3FXFmqJqaaXNIasBjConFStUT0DGjrU8dQCpkNAybHFFAoqhDTSU40w0DAmq0x4NWD0qrN0NA0Zl10NZh6mtK771mMeTQhiUlLmmmqAjepLTlqiepbQ/PQBv2nAFaC9KzrQ8CtBDxUki09KiJ5p6GgRYXpRSA8UZpAIaKQ0UhjqRjxSVDM+BSYitdsNprnL8DmtS+uwoNYFzOZCajczkymx5phNKx5pua1SMyNlyant4fmzSIMmr9ulTOdkBJFCAKc6DFSggCoZG5rlu2wKsq9aqSCr0nNVpFrogwKgTLVchXAqFeDVpMYq5sCXcFWq0jZNOlfAqvvzURj1AcOtTCTAqDPFNZqu1wJZZeKpu5JpzkkVERWkIpDJomPSrKA1Vjq1G3FTMCTtUbHmnlhioC3NQkBLnioJVJzU6HimydKa0YFULzUgj4zTSQDml82tHcBCNpppakd6jLU0gJoVLtVhoWXGKrW8ux8mtiF0lX3rOpJxYFZFOOlJJ0q+FXpTfJUtWHPqIp2yNvyRW3BaxXEPIGahWBVTPerFtlQSOlRKd3cZGLZIwy1Bt2k8cVPcOS3Bp8eyRCG61O4yju+bI4NLLK5AzT5ovLf2qCSUDKkGmldiEWMSSD5tue9SvCIkIfDD1pLaGOb782zHqOtOurVU/1M4I9Ca0AzZVjZyCCvoagYOnLDjsassrbsOKFCH5Dznpk1qnYQCAPECWOT6VXlUr8qg/gKtsPL4DKxFW4JVVzuVNo6jHJpc7QGIiFjyvFPCcHDAVZucSzM2doJ5FOvUtIljFsT33EnOa05r2AZbPKEYMdwHA45/OpPPhb5ZMnHpUK3DQ4UKGU9qS4LNtcxqmeOvNS43dwCaGNjugdj/st1pNgwCowcVGkjZx1PpirDSzMm2RCGHrwRTd0BWRKnVKhWTFSLJxRK5Q8kBcVWduafK9Rp8zU4q2oh0aEnNWY09aWNasKnSs5TCxC0ZIqrLCc1qFOKhdBUxqWEUI4juq5H8tL5eKDxTlLmGiTdTgc1XySaeuahxEyfOBULyYNKSQKqTNzTjG4F+2uyjVt2l3vA5rk4mO6tiwY5FOS5WNM6aOTIqXNU7fOBVirRsPJpN1NNJVAPLYFQSyDFPYHFVZVY0CKF7IMGsO4bJNbN1CxBrLmgINBLKiRljWhb24I5FQwoA1aUQ4pNiREbcKOKhb5TV5jxVKY81lJEshb5qaE5qVRmpEQVHNYRVaH2qtNHitZk4qpLCznaqkk9hVQnqMz0HNbuk6S94Qzbgvrjil03w7PK4e4BjT0I611iCO1gEcWBgdq2bTNYwfUrrptlagfut7+tT+airhML9BVR5SWLZz9ach+bJPJ9Kxb7HVGKSLitn608Aemaiiz/FVhTjOKaExRGTjik8rJ61KCcfQUgyD+la2Rndlb7MRKXz9KURlT9asvnHPSmjGfXnNDihqTIgrYzTJGbNWGdQCO9R7T1Bz7Vm12KT7lRjngZFRAkN7GrLRnPTHtURT2rJo1Q6Ntrc9DUd7pkN4N4ASTrkd/rTx6MTkdKZPO8CbjgCqTIlFMoRQTwHDIQB3q/BJxzVWC+a6kbGNo7etW08vOQv60KSM3Sa2LKtmn9qiUrj0qQdOORWqdyHFoa1RNUrVE1UIQVIopi1KtAyQUuaQClNUIQmoyacTUZ60AKelV5sYNT9qhkXOaBmRed6ym6mt2eAtniqRs+TxTHczxQaviz9qd9j9qdwuZD5qS2yHrRNl7UsdntPSlcC1aNwK0UYYqlDCVxVtVwKQhS3NPRqhPWnx0mBaU06moOKeKAExRS00mkA1jgVQupMA81amfArGvp+CKzkyZOxl3spdiKznFWZXyxNQMaUTArstMNTNioHYVstQJIjzWjD0FZMT4atKGQYFZ1UBZdsCoSaHeo91ZJADdKrSvipZXwKoSPk1vCNwJFbJqwDxVKM81ZDcVUkAyd+KhjOWomOTRB96rSsgLWzioZFq0CNtQuOazT1GQ44pu2pWXioia0TEJnBqZHquachwabVwJ3bioC5zUrHimIm6pWgxyyYp5fIprw4XNNVWPAFGj1AikPNR7jUkqMvUVEOtarYaHAM1SJbsw6VesolYc1fSBQOnNYTrcrsBi/ZnHardpG69a1VtlbtT/syrWMq91YCmVYcipolZqV+tMSby2rO9xFhsgc9qW1vFjJWQcGo2ffStbCVCe9SrJ6gF2VY7om49Kq/aCnPQimmKSEkNnHvVW4diMYNaxhd2AuC8Dn5jTJyJVADdKz4g0jBB1NT+VMmflYitORJ6ANy65w3FMDSE881PGpByVNNkSVTkxkCqTAjaZ4+N24HtUkMobAAwx79jVfq2MZJp/kyxjIXgHNU0hErCQNgp1NAMiNkrjHv1qSJlkGeSR1GcVFcnDbgrKP8AaFQtXYCOXBbLMR7AVGfmTaq5x36mnZSQYI57U2MFiQgwfatFsIkjcAqXHQ556Gp7pkkgIjbPcexqMIzKA5+UfhVZ3iQkRgsfUnihK70KQsDukiybT8pGeK052WYB1Ib0qnHMjxDKvkdemDSCRVPyrgexpSuxFQNTw3pUeDT1rRjBiTUsK4pAM1NGvFRJ6AWI24qVW5qru20qy1g43C5daTAqtJJzRvyKgkPNEYiZYSTNShQ1U42xVqNs0pKwDxGPSl2U9TTu1Z3YFeReKpSjmr8o4qlKOta02A2FctW/p0GQKwrfhxXT6cRtFW1dlI1IYsAVLsojYYpSwq1Eu4m0UmBQXFMLiqsFx5xUbAGkMg9aYZR607CuQXCAisq5jGDWnNKuDzWVdzLg81LFcoFtj1ahnGKznfc2acjHFZNiNGScVVd9xzUfJPNOxxUMljlbFTRsWYKoyTwAKr7STgAknsK39Ksfsq+fcD96fuqf4fepaTLhBydizZackSiS5OX/ALnpWgDCuSI0BHOdtVJZGA3c49BUbSutoWY4LH8hQtNjrUEtCveak6uSD9KkhmMkQdyct6dKxbm5SSQA8c8471q25LxLjOCOAetNKyuyt9CzHg9BgCrMXJ45PpT7WxZ1y3yjtVg2iooBkIH86pQb1E5JaAg3AdKlRDjPp1otok3YHQVOcAgDpWih1IcuhFz/AEox8x560+RQQPeoQdrHJzgUWsJO4O5JAJ60jHuO1RKWdiMY5xzU4QkECluVsIoypFOVXUnB4pVIA5GMHGKry3JjJ5yD2oskJNsmKtg55qBlHJH5VYguBInoRxTiiNzu/HNDimtBqVtygw7gjio7pfNt3GeSO1W5YCDkfzqBgB+PvWVrGl7nH2tzJa3jRuWBz3rpUkDxq+friub8QI0F4rjOD61p6PceamxscUTjtJBF9GbIJA4NPjmIPPFVg+08nipT0BB4qLlWLZIIyOlQuartK8fTke1Il0HOGI+taqfcxdN9CypqdKrKcfSrCGtEZkvakNKKMVQDDTCKlIo20gI9tNKVPto2imBVaLNMMA9Ku7RSFaAKPke1Ag9quFRRtFIZV8gelAtx6VbwKXAoEV1hAoKYFWcCmsvFMRTKc09FwakK80qikBIg4pxFKooNMBjVBK+0VLIeKzrqXaDUSHciurjAPNYN3cbj1qS9uTkjNZckmaztcwk7g8lQmSkZqhZq2jEgc0lQs2aQtSVolYYA4NXIJapmnRnBokroZpb8imlsUyI5FElYW1sIilk4NVicmnv1pmK3irAKpwaeZDimhaQqaegDWOaVDg008UDrTGWwx200PmlTlajk+U5FZpAT7htqu/Bo8zimE00rABpAcUUlWA/dmpbc4ODSRwlhU6WzA5rOTWwFoIHXGKfBbDfgipLdPWrarg5Fccp20ArXNipjPHNY0llIrcCupPKciohEj9cU413EZjWUbJ96tFTinSxqhyKhMlJy53cRciYU2eRh24qskhDVNI+9ajlswJHRWhz3x1rIaXbLg1eEzBdnaqE0eWzW0LXAtrMCnFLFebCVJ4NVYvlHJpXjDc0cqAvm8wuJEDr696oySRsx2Hj0NTxxo8fJqtNGiGnG2wEkSxhwxAyKvC/iUbXArILKTw1QTNyMZrRRbYG9Iyj5wm4EdqzmupN5x930NRJdsvAY/Q0SSK3OOvUUKLW4gWMtKJYhn2qeR3VAWTFNhmEcRTbkH8KjZtx2kkL7nIpbvUBvm8MFOMkHn2//AF1Pc6iJhtJIHoQMVSYopI4JPegRk/N0I98Cr5U9wI2PUKuM+lT28yRpt2MXJ6AdaqySljyc00c8mtLXWoF8tMXBaMqp7YOaRokk4bAPriqgnlAKrIwXuN3FN858ZzS5H0HYuKiRLjcGPfANV5AFbKnj3pwkY4LLzSO28YKkUJNMQCOgoRVxUFDR8dKjnGU1OKlWSmSrg1EW4qrXAnZqFbJqtvqRGp8tgLIpG5pqtTwM1nsIaM1KrGmEUA84pPULFpH96nVsiqampUaspRETSH5az5TyatyPxVGU7mq6aGPtz84rorF8AVi2kBbHFbEMToOKq+pSRrLNhetNaf3qll+9Ly3etOZDsy0bhe5qKS6UDrVSRSO9VpM0c4rFiW/C96rPqXpVSXqarMannJsW5dQZqpSTljyajZqhZqaux2Jw2TU6dKpREk1dTpUTVgJFFXbGye7lCjhByzelS6Xpn2sGSUlYgfzrdURwx+VCAiD9ayZrTpOWr2IljtrRQIIwG/vHk06I7yXc5AqGZQ64zS7vLiAFI60ktEPllDZH86ZeE/ZhgcBapyzdccmpJ5C9mhPHy80+gHPwfvr3A9cZrtNMt4441lkwD/CDXLaJBvleUjq2BmtTUtUEcnkQjc4+XP8AntWq39DLob76kqEgEYFU7nVYXIDNjPQiuQu9SQIQ0zyy9MRnao/HvVD7c6svz7l9M5xV2k0ReKZ6PbTqDjfwRhferJfLHngnFcRY6scrvOQOg9K6qxullUc59zUX6Mu3U1B9we1MaIZJ7mnnsp6UHpmtWjNMhVAh7U6TcFwPxpxAOCevSmvzkfw57Uth7kDy7VGetZz3KEtuP0OKNRuPKU/MeDXMXmosSxB+vNZttuyLVktTXm1oJJt3cdlHeprfVIWI3MQf9quJDvJKZHVnUdQDipbfUri3YYO9AThH5FW6RPtD0qG8WRQD8ynjNRzp5THHKnpXGQaycfusqOpjbnH0P9K6e1vFvLDfuyRzWck9mXFrdGT4kh8218zHKn9Kq6C+VIxyRW3eIJ7R19VIrC0MEA+3B/Os73hYu3vG1uOAQeo5FSwykoV9KrE5PPWiJ/mx0zUM0LLPxjtVU8HjpnnNSt8ykZxnvVOZ2XjH5GiwGlb3GPlI4+taEfQEdK52GZ93png5rStLplOG6e1VCXLoyJx5tUbC07FMjYMoI6VKK6Vqcz0EAop1JTEFIRRSZoAKKKKBjTSU40hFIBKWkooAWkJpaQ0CIz1pVoPWjNAyVaU0xTTiaAIZelZF8eDWrKeKx748GspMTOfuj8xqg7Yq7cn5jWfIeacNTBkbMTTCDT+9O2cVtewFfFLipSuKjaqvcBppB1oPNOVc0xlqBuKdI3FMRcClfpWPURXY5NCjJobg0+IZatOgEqJQ8WBViNRiiQADFY82oGc64NMHWrbxFjxUfkMD0rZSQySHkUskeRU0EWBzVjyc1i52YGQy4NNrRltDyaptA4bGK1jNMAhj3EcVZ+yg9qfbRMuMir6oMZxWM6lnoBDb244zVsQ+1CECplbK1yyk2wIcbTxSiQjFKwz0qKQ4FFrgWDN8vWq5m+brVd5D2NMXLGrUAJ5psiqm8k1M6HFRD5TzWkUktAJFfHWhpsd6iY5qKQHbmmopiLaNvpJSAKpRXOw4NOkn30/Zu4yZCC2KmLBRiqkJ3Nx1pLh2VsYIpuN3YCxvPODUMqlgTmmRMXBpw3Z2kU7WYFQgg8U5ck8ip54/LGfWq6u2elap3QieOJZCQTgirKWg8vc8gHpRbadNIPMciNfepJo7dCB5m7HWs5S6AVzKFcqFU47gUyeXC52A/TirXlx8FOM1Wuk+XA+Zs9qE1cZTZy5GQFxUhww++AvYVHsZm2hcmpXt0hXMr5b+6K2dgFgSI5DAFvUnApZxCo4bcf8AZFLDbF08xgQp6Ad6mgtY5QxbORxgVDaT3EZ2Cw9AKkiVSQOr5wBVqSzSMFi+4dh0quEAbKjG3nIPSrUk1oO5MUEYIkHPsahPIIXHHcd6mVzMTuyfwqRVjjUKAWZu3SovbcRb8vmnbOKkbrTa5LsChcpwaokHNasq5qsIMt0rohOyGUthPanopzV82+B0qIx4NV7S4MYoqVDg4o8umchqncRPTNuTSqQRSkY6VOxQ5V4p6io1apkNQyRrjiqu3Mgq7IOKrBcyCqgwNnT4RtHFayxDFVNNTKCtbyvloRsloUnQCq7MFNXJlxms64JHagGJJKuKpyyjnFMkkPNVnOTU3IbGytkmq7Gpj0qIjJq4iIGqMirohzSNBxWikh2K8Q5rc0nTjcnzJcrCvU/3vYVX0nTGupcvlYl+8fX2rpgAqiOMbUUYAFZzlqa06d9WNklCKscaYVeAoFVg7lsscD0qztReckk1E43DI4x6VnudOwhbjrzUVxNgBR2oWPb8x6ntUFyTu3Y9aaQmyIsSTngVJeOFsl9h2qsXycGkvmb7KwB4GP5VVibi6XP5VvGQOc5rP1CGZp5WBOG649K0LGErbxkj+HgVauLZWUOEJyOgOMVUXZtolq61OVERHG0keoFJgLkAcn1HSt37KrtgIVbrj0FWIdLizyua09oiPZs56FTvwuR6V2Xhze64ZeFPU+tY0tgBPH5fGT+tdVpUQRMDkevAzSdpNDXuo1A25j/DipcfL9aijQ56Y9KmcbEGTg1ZBGR94frTZY2KYVuhzTt2ByelPU8Yzmp3K2OT1VJixLKQoOM5rBlt1k38gjoDXd6hbCUMBwSKw4rN85cAqOgAxxxUX5WWlzI5ZbW4hc7NpWpkslYAsyj/AGVBya6w2EbZGwc85qI6eocNEMEe1HtfIPZ+ZlR2L3EajygkY4VVHP1NakFubaJgowp4xVq3tzI22QEY7kVNeNhVjXGB6VDvJXZSsnZFJcjIYHBFY2loUNx7Pj9a6RU3IOmD6VjwwmGa6QdpAwP15rNbMvqTyZV9v51ESfNBxjj+tSty5JPqKay7nUUFExBORUEgGGBH/wBapgwDEdzUchDDj+VFhEETckGrcWO1UFfsVJOetWIWJ+lJoaZq29w0Tc9K04pVkUEdfSsONsrg81Ik5icHPFXCbRE4Jm0aTNVoLoSDDdanLCtlJPYwcWtxSaTNRmQUwyj1p3FYnzS5FVTMPWkM49adwsWywppYVUNwPWkNwPWi4FsMKXcKo/aBnrThcA96VwsXQaDVdZh607zRRcBzU2kL5oDUgJFpxpi07tQMgmPFZF82VNas/Q1i37YBrORMjAueCaz3OWrQn+ZjVUx804OyMCNFqUjinBcU1jgVV7gQyVA1SSNmoTWsUACrMK1WFWYTmiWwyfbgVE5qY9KjK7qyQiq55p8B+epWtyRSQx7WrTmTQy6n3aikPNSg4Wo2G41gtxDo1yKsLEGHSoIQVNX4xxWc3YZEkQBqzFGMdKUJ3qaMAVi5jENsrdqryWYBzir2/FIzDFLm7AVEhUdqHVQKV5NpqCSYHvTSbYCMcdKaJivFAIak2/NWmnURMrlqZMaeFwM1XkY5xQgK7DmpoQAeTUTHHOKas2DWtm0BdkIC8VnyN81StIWFQFSTRCNtwHbqXIIxUDAipIwSOatoRXlj+bIpQmBVllBqFgRVqVxjrYlZBxmtGWFZk5UZrIDlGyKuR3cnGRgVM431Atw2ip1p08SRruqnNdP2qMXEjjDdKjlb1AbdsJAMGmJEdoIpzR55qaAZGFPIq72WgMfOZvJAZiB71QDhTjrViWV2kIlOaYyIAWFOOm4h4zgFTwahlklGQSQDU9kjSBiDwtQTo6ud3I9qaWoEIcxnINBLzsTTkCscMOtTfZQv3Jf0q3JIZdiEqQKZSoOOAB1pvmOrbguPXiqZL5CO3BIGc8VPMY4V4PTooNZOOoiSSRJkIIxnqKqw2pDZDj344xTY5ZTkqMmraTboghTJ9BTs4qyAiCrEAo/i6nrVy3cJHtPB9SOtVJFbG4rtx6uM1WaQk4HNHLzAajSUm41ArEnmpgtYtWHYaxp8RBNRuMU1WKnNFroRcbGKpyff4qbeCtV5B3ogrFDxzUUi85pVkqTG4VezJK+cc0/fkU2RCBUIYg81aVxlgHNTx5qsjZq1FWc9BMlK5FSW1tucHFIgzWhZqMisr9Bo07KHao4rRC8VBb4wKtjFbRNkVZYsis64ts5xW2ygiq8sYINDQNHJ3VuVOaosCD0rqLi1DZ4rOmsh6UrEWMUk0KMmtB7PAqq8Ww0xWsPC8VcsdPe6cEqREDy1Gk2xu58N/q15Y10TOsahEUKq8ACoubU4X1ZCEWFBHGoVF6VEXHcgnsKSaXcDg1DnGT3/AJUjo2JmYY+b/wDXQrDYVx9c1Ch55/CpjjywaaExkoBXJ6DmqU3zRqQands8Z4yKq7uCp9Mj61QiH268UXYJhdBzlQaMkA0pH7oE/TNMkvhAkKrxwOoqaL/VYZTjp1pgx5gH3iO1WVH7s7vqaIBIpSjy3AXAzycc08SLJ8inkCmzLlgQpXA4xU1hbM8mT1Hb/P8AniqcSUx0doXmDErhPat62VUiVRxjtUCQiNCAAWPfFPUlEAzye9UlyibuWBIA+QKmzvXd3qtEVUgkY96seeoU+gq15kPTYjwCcntTwcDjBqPeshyvBpynBqdh7iMN4GcEioDbjJAAx6YqyowScZFO2ggcde9O1wvYzZI2Cgr1HWoGkAYbWz3wc1pzQ5PPTvVR7f5iyqTj9azcC+cdAQwyep/GkuIt56Yx2xipo12LyOtDkdxnPam9rCT1uVdgHQH8e1Z1xHi7lOSdyqea0nO0kjj0zVG6INyTk8oP51jY2uVnwXOe1AwXGex7U+Qct600LgZB6daRQjjaQx9TSHDE461JIMrwM81EUOd3QjqKBEUsYDZI602EhT+PBFTv82AcYqNFCn5efb0oGWkIGCentUhKlOmR61CDgDI4oZioIHXrSGT27jJHQ1f3kR5znHesq3J3kkZzWluEcJBPGCWPtThoyZ6ogkuQO9Vnux61iz3/ACQpqm91I3etznN979R/FUD6ko/irCZ3bqTTeaANptUX1qM6oPWsjFGKANgamPWpU1IetYW2lANAHSR6gD3qzHeA965ZC4PBq3FM6jmgDpVuAT1qzG+a562uCzVsWzZApAaSU9uBTIulPc8VQmVLhuDXP6k/Wtu7cAGuav5csRWUjObKZGaaUFOBpGPFRqZELkCq0j1JK2M1WZua3ghjWNMNKTTa2QwzUsT4qE0A4ptXHYviTIqWHDGqCOau25OawnGyJNBYQy1BJEFNWEcAU1zuNcybTArE4pFIJp0i80sUeDmtLqwyxGoI96sJgVGoGKa0hFYPUC2SKDIBVUS570jSGp5AuWWkz0pjScVCkmTg1MU3Lmi1h2uVpJM1Wkanz5U1WZsnFdEIiLMUuKkMmOlUgStLvNNwuIu+eSKj3gtVXcT3o5o5LAXyqlKpSKA3FAkYDGaidyWpxi0MnUACgYJqEFsVIikc5ptAPeINigx7V6VYiXIpszY4qLvYCrkjrTGOeBUxwRUQG160TEQbTv6VaRV2inqqnrTtoxxRKVwKtxwBimiUbMd6smDfUEluFUkU4tbDGCUtwKmjLRHNRRx7RuqeGRWbDU5eQiOXLvk4qVI1aIoMZPepjFD5gLsAtVTGwY7TxngmpvdAOhilgVs9D6GkKhjl3qPMqvyW/CpW+4JDgBjVO4CtaqxPl8MOlNRgGMQiYydyxzQkxVgUOcdvWpJXHE0fBxg0lfZgQSRk5BOD/u1D5GDljx7VIZpZB8wG0dz1/OgFi+IzuU9yMVaugI/mRxhTj0Iqy23GUPXqKbt2HLj5fTPNRM0Z4ww+tG4COu9vvYPvTSnktjdub0FOlClgR908gCiIIGy+AMd81XQC6Y8GpV6YNWHipgSuNyuBC4zUZGKmYc1GwqkwG9uKVlytCDmpSMCnexRSA2mrEXNRSA5p0Rwap6oRLLGNtUZEwavueKqydaINoCOJTmrkfAqvGKsoKJu4iVWxVu2n2GqgFOOR0rBgjoLa7BwM1pxSbhXJW0jBxzxXQ2cmVFaRZrF3NMHIppGRTVYYoZ8VrcsikQVSmQc1bllGOtUZrhRnmkIqTLgVl3AGauXNypzzWZPOAc5osS2dDpFu1tYFpF2tI2ffHapbklgcHApYboXNvG6kYdB+femOd6HPVeDWbOqOisZkjSK3XCjinwynd8x49Kbc8Nz09Kg8zJBPApgakbJkZIye1K8gaPPbOBVGOVSCQeenNSLKpPI47U7BcUkbs+oqtI3zgA9DU0xAB4qqQTk0yQx+tKz/ALn2U5qNyQOKUkNEw78GmBqFi20r9cCrMT5VgSCBVCxkU2gct0Xb+NTRyDLBTkGhCZagTzJRnH0xWpbQrGp46mqGnqZGLYHHetIttGPTitYmUh+C5O0fhTXKoCTjI7VFd3iWdtvb7x4C+tZsNw11kyrubrtzim1pcFq7F0TMxJyCKhlml38OPwp6xIvQcelKI4juPlg+mKztqbcqSJLa45w2M1oRlG/i5Ncvc35V9iLsIOK0NJ1ETSiKQYbt71pyNamTaeiN0jgY5oUjAGMU1icccU3cA2D1pkk5IP171GV5xTSxVhUm9WXnqKBFWX5Omf8AGoHYEdc56CprltvzAnHes+SZVYAE896xmaxJp8dQMEHrWdcHN0wUD/Vg5Hfk1YNwNhGQc1U8wveyAYwFQcfiazZqgcsGbtzihiXjIQdaZMxMhz1PSnrJ0HI7GkMcFIGM9s1C7MsxAPBFSjJPXrwaTbyS3pxTAiYjG7ofSkOM53dqSbCnA5GOc1UkcgEZwV96VguXA5P+FPyMdKoxyg8E8+tSozElRkg9KTQ0y9ar8hJ9aZqkrR2DKDzIcfhT1kARUGT2xVXVTuUDsowKqC1uTN6WOe280uBSucGometjEeTTS1RtJUZkp2Fcm3Ubqr76XfTsFywGp4NVQ9PV6VguXI8VaUDbVCN+RVxG4pWGWIF+etyzHArDtj89blsflFSxo1EIAqKaXaDzUYlwKo3lzgHmpbE9CG+ugFPNc9NIXcmrN1MXJAqkwqTnk7ihqRjxSDikY8UWJK0vNVmFW2XNQsnNbxYyDFLtp+3mpAoxVtgQFaZirLLUe2hMdxEHNXYBxVdFqwh2iom7gWg2KA3NRhuKjaTB61hy3EXlUMKcEGaoxXODjNWVmyKiUGhkxO2oXagtmmnBpJWAbuwafuGKhkwKj83HFactwJvM2sKvxy5QVjl9xqzHKVGM0pwuhp2H3mDyKqJyakmYtUSgg1cVZWEyVwMVCetPJJFN2GmtBCrwaczgCmHgVGWzTtcB+6o8/MKnhTdRLAe1PmSdgDjbnNN849AKQxMBT4oznJFLQCeCRlHNRzSBiakbaFxVR/vVMVd3ABIc0F81GeKWMbq0stwLMEmRg/rTyfyqqPlbFTGZVTnrUSj2GLJKUHFMWUsuGqAzb2xTiCV4quW24hS+AaiEnNJgntQANwHrVpICZXGOaQMCwxnHele3YAY71b0+3f5l49yaltJXAZI8pjEa42/TmjA+yhH5xT5d0THjI9qikfIz2JqEwK06sr/3cdBR5xAwcgVKRuI35PPemzKuc9frWl76MAR8DsQe1NMibiqKVx05piq24FBke/SpSqZyRg0aICMu31pwTzVwH57jbSGBsbk6UkaO2SOg6npT06ALt8pSCT17jFSArINoINNhgjDM05DADgButDCJziOLae2GodhnQ7QTTWVadnmhwMZrjEUpcA1WLc1amHfFU5M5q4jJU5NTbc1BFzU9TLcCGRKiI21aOKqzHmri76Aw35FRNnNR+bg07dmtOWwhUbDVcjNU1HNWVOBUzAsrindRVbzMUol96y5WBZRgGrVtbjbjmsLzKelwwPBpWaGnY6pboAdaR7kY61hwTu1XQGZa0jqacwlzeYzzWRdXpOcGrN3C3PNY1wrKTWvIyWxJJ2PU1WeQt3prMaaOTWijYRv6DeExNbMeV+ZP6itcTBiDjhuD7GuTty0bq6nDKcg10C3AkiDjhW+8P7rVjNa3N6U+jC8UqTzn3rMd+TWpN++hAHJXv6isqZNrEd6lGrHJIWIUcCr1ucct0xgVn2wOc45PFaCrjaPTpTEhzgbjjn1qN92OnsamZdrGmkYDbjxnNMCs4IYnOMihcAMOT+lKwyM4pp+XNAh9pKSHTOFRuAO9TJKRg574qnasondT/EtSy46Yxx60xHUaZMiWg2kbu9WY2LnOO+ea57TpndSq/wANdHbLshUMTuIya0i76ESVtTlte1by72RfvGP5UXsPU/nVDS9XIlIlIyehqDxHBLDq07OpCu25W7EVkAkHIrV66GcXyu53r348vII5pkmqrBAZHOABWBDOZLVSTg470l5HJcWaiLLHdyPwrFLXU6XLTQjn1uWeXMgVwOhxg1c07UQ9xER8rBgc1z5RlOCpB+laejWclxeQ4HyBxmtW7I50rs9RVdyYB59aikBAHOCKfCflHb0pX3HqePWpsNMiDj2z0qATAZ2nnNR3LNC5A+63fFQBsHkfWs3ItIluJh5YO4c5rEadpZFbPC981PqblVVVBG7PBNZqSAHYylT6+9ZNmiRoqSWHTHvTLQ7pblmAB8zA/AClgc5+ZsHHNV7Gbc0pXndKefXmkUWnA3g8ZHNAGV46jmnHgknuMUi9yOOKRQ4AKCDSbAQR2z+lOGMEEZp4K7Rn3piKNxEwPOcetZ8oPRhjtmtt0yuM5FUZ7fcrDnNK47GaPlI7g9xV2KUxLkkbh0zUKxBBlzj0qbT7KW+uPSNfvH+lMnY0NPVrgGZ87R92oNSHBraaNYogiDCgcVjagPlNWlYzbuc5OcE1TeTmrdyOTVButbJGbAtTcmlxRiqEJzS809UzT/KOKAIxmlyaf5ZFMIpDJI3IIq5HL71RTrU6HmpYI1LRsuK3oGwornbM4YVsRyYFZyKRdeQY61k3khY4zVl5az523PUMibK7LmmMtTEjFRvzWbZkys3WkxT2Wkq0SRsoxUD4qeRsVUdq0grjEzzTgeKizTgeK1sAM1Ip5prU6MHNPoBajXih/lqWIYFNmxisL6gQ+Z2qF3NDdajNbJIB6NzV6EnFZ68GrkMmAKmohlumM2KN+RTH5FYJCI3eoSTU/l01o61TSAYlToeKhUAHmrCKCKmTGBpuBUrJgcVCcipWoDwAaU4FR7sVGzEnina4h7kGoiOaftOOaOKpaAOhbaasGQYqnuxSgk/Sk431GWGkUjFIkig1GMUkq8ZFKy2EE0nORVfeWNGCetMbg1qkkA9jSocVFktSZOcVVgLsSh+TUcsQ38nio0LgjGalkRzg1Gz3GCRKGGKnMZTqOKjRdgBPWpJLjcuKhtt6AJHsyQaglULJxTS/ORTwVIyx5qkmtRDzOdoXHNS+aQuM4BqBQCCc0xVaaQhjhR3osgJnOV+VyTQ1sw5LfgafbhIHO9gyHrjrSz3KumxQo9wOaWvQCIwy7flbJHbOagxK+QxIx1yOlWYJAYzvyCO+KatwrqVY/lTTa6ARJ5yJhW4/3ajzMzjd69xU+4Y4OfY1G8voMEepql6APdR0B5FMD+XgHPPU9qkSeIookyxA6bcfrThdxJwsVLXawDDt5wV+oPNN8/ZHs8tf94dacwSWQFiVB6kdqkaKON8KAw7Fuc0adQNkEHrSnmmEEUhbiuQBsoGOtUXwM1ZkaqMzHJxWkFcCRHxTzJVISEVKpLCrcBkvmZprDdSIDmp1UEVL0EUzGM9KUKPSrDpTNuDVc1xjAMUpbAp22mODRuIaXpVJNRY5qxEvFU7IaQvNOXrTttIODWdxNWNKwXOK2o4xisKzk2HmtqGZdo5rSnYaZFdRjBrAvYxk1vXcq461hXkgINbiMaVcMaEXmnv8zZpUFS2MmjGKtQzGFvVTwR61XSpDWLFexfMpjAZDlD0P9DTZ8TrvUYPcVVimMRII3KeqnvV2EBBuUlo26f4VNjqhPm0ZHCpU8CrsacZxzUaxFW+vpVlh8lM0IHGcnPWoiSFIzznvUrNgfQcVE3LE+opiEUcEVGeFNSNx24phBxg0gIF4uFxjBHJNWmBwNuCfUjiqVw211X8amGSgyefTOKsgu6UxN+ikM+eCe1dZuDdO1cnpe6O+hZxySdij0x1rqvMUpgY96uBEzG1+xN7ABkb15A9RXKJbxx7hIvIPSuv1BtoLg5yfyrmL4xtKWRsEnnirkTB23K8pXYQvpxVrTboRYVzwazSxycimK54HpUct0aqdnc6h7i2cbzbRucdx1PrV3S4I4ZBIR85GQO1c3YMpdWlJYA9K6CwuEmCxhtufujuKaVtwnK+x1MMmV6fNjOBUh3EDA49fSqdsyhVI57Z61Z8x+MKevOeMVRiVryP90u4jIPJqqE5q9KPlO5gSf0quV+UBsZz1xWM0bRZh6mfn2sMqKp24DjKndV7Wl8m6YjByAQD0NZ6u2d21Tg/kPqKzsXc0AoWNpDgAcdelZ2kuMOP9s8Ut9cKLYruO89+ufrUeiSANJGTz1p290L+8bRUkdM0FfxpUY7SvPrSn2rM1GLncR17ZpynJwVpWA6jr1pSOR3HvTEOC59xSFQWwfSnjhaAvcdKQypJYi7nRFXA/iI7VuQW8dtEI4l2qKbaxCNM926mpj0rWKsjCTuyvN0rGvx8pral6VkX4+U0yTmLpeTWe4+atO6HJrOkHzVohMjxTkXJoxT4+tUIsRRZqwIeOlJDjiri4xTEUZIsVTkXBrVlAqjKmTSGQIKlQc05I+KeE5qGMlhbaa0IpuKz41NW0UgVEhMfLNjvVctk5okBzTM4FYvUybH0YzTA1G+psSNfioGNSucg1WY81pFCEkOaqt1qwxqJhW8dBkNOWl2805YzmrbAcse7FWI4cdqIgB1qwGGKwlJjEwFWq0zVYdhVKZqIK7EQseabmgmmk10JDHipUbFQKalQZpMCwjk1IDTEXinkcVgxDwwpJCMcVXZyKaZDTUBjmcA1LDKKqnLGp4kxVSSsBe3AioJKCcCm5yaxSsBGQaFXBqbHFRMcGrTuIe/Aquck0rvSxkGqSsgG49anhTNKiBjVkIAvpUSl0GV5RjpULt8tSynnjpUDniqiAwGkKFugppOKmt3APNaPTURGsTDqKlSENzV6N4yMEVBKoDfLWfO2MQKM4AqzEFYYNVhleaVZivaoabAfcxbehqnjBxViabcvvVMud1XBOwglBB4qJiatMQUyetVnznpWsWMs29wiRbWXLU0kbt36VBHgON3SrCyRrk4yT0pNWegmTwQSXBGOE7k9qmZord1jj2uO7kd6qbnaMgNgemamtm8tSHXOe/pUPYAeeSRWHmIoHXAqiELZIHSrMrITgjj3FIrquQMDI9KcdFoBUOQanhiaZckAj19KmwHByM1EokDbIwFz3zVc10Mc0Pl8Rjcx6n/CnCNPLKsCD7UJEsbbpGLN22tUcj5ceXnPpS1YiSCDDAMwHOcnip5lPUTKw9DVZ8gAHv+lSA2sKcsZX9hgUmm9QNpuRULZAo8yjeDXKBCyFs1BJDgVoKBTJVGOlUnYZleVzU0cfFOcYapY+gq5SdgEWOpQgApwApe1YtiIHWkWPNSEinR4zTvoA3yuKrypir56VVmxRCTuMoMDmpYSRwaUrSYxW7d0NMnzxTM80zzKbvqVETLUchFWVumUYzVFDmpT0qdU9CQubtugNZ8kpc8mpJ+9VCea6I3aGkSCpFHNQK1TRmhoZYQU40J0oeseoiM9avabMBIYW6SdM9m7VnsaWNyrqwPIORVWHF2dzqBGQoyOaZKvUD0q1neFYYwwBqCVdrYHOeKk7dymw5xioyAM/pU0o5PGKhIz9aYCEEke1MPXGOlKx471HnaCaYmUbkb5Sc8CpLdm3AHp0FQqck+uelWowNpYDtjNWzMu20rC5Rx91SCT610oliZMgD5h19a49SyLyMr1I9f8AP9K6PS5FmsFZ+SpI5pxeopbEeoBPLYA9OMdK5e6H71mz93GK3NVuVjDYHHcnvXPTy7i5698VqQiH19aRCpYL61Gzk444oUhQfU0hl63T94oB4bitjTJSrKR83GRgdf8AOK56OdkMeM4Xk5rQtL0JKCFAIPFAHdwSkBMIRnrgdKs73xwnfvWBYal5hYJLk7zkMe3tW5HMCPlYEfXNAhQhAOeSetV7mRYsZO0VJcXIjnhj6lyaoaoQ8wQ5+UZxWcy4lXUGW7kAYZCDArOljihUkpgVaMbKAFyx9AMVn6gJivEZRT3PNZ7l7GZeXCtIdhJHbNNsJjDdo56E4NEkW3ovPrULYUEjqK08ifM7BZCWDYGD0xUueufTNZ2kyi8tVLNh0HNXRkAEAla55KzOiLuiQZBGBx60u45wO3rTGctxyAOmRQhLHC9QaQx6uScdOatxL0z061DEv7wZxzUrMI22A5x1NOK6kTdkXVbilJ4qssnFPD8VpcxElPFZd7901pt81VLiHcDxRcDlrocmsyQfNXUzafuJ4qudL56Vakgsc5tPpT0Q56VvnSh6VJHpgA6U+cVjGjyO1WEc1oS2WB0rPkQxsapO4mgbmojHk1ImSasJFmk2BAkXFO8r2q4sGBThBk1nzDK8MPtU4TFTrFtFNfgVnKRLKM4AzVRjzU9w+SarE1K1MmBNGaYTSVdhEh5FQN1qbtTcc01oBEFzSFOanApGwKfMBEI6fswKA1Iz8UasBrNtpvnVG7ZqPvWiiBZ35FQSdakQZFI60LRgVjTTUrCmEVomNCoOasovFQxgVYXiokwJUpx6UwUpPFYiI3XNM8upgKdt4quawyBUwamTik704Ck3cYpOaFAFFJnFIQsjYFVydxqRhupUTNNWSEQtGTShSoq0ExTZFwKfPfQYkJqZpOMVBGKVmwahq7AZIahKlqkc5NTxIClXflQFRY8nmhk2EVK3yyU51DCq5hCxkbak61GgwKJHAFZtXYyUgYpoIHbiqnnsWxV0BTF70OPLuBXkCv0pixHqcU8DDU7knGeKq9hELAk8VLBbrMSGOKZIDGeDQolxlePeqe2gErRlVOFDKvWmDyW4ZcH1FT/agiBSvbn3pn7iboNrVCb6jJbeFFQhiDnoaSaMRqTyQfSq7vs4zn6U6K6AG1ulFnuIhZRK4HK/Wop3dQIyBgDqB1q3P8y7lqsw8zr2rSLGRxvIeFJzU1tHJcSFfM2kDPIzmmqgVSBxu4J9BT41jRw4mKkf7NU32C5LLBJGR8gcDnI70/zYWPyoM45KrxUkc6yHCMXOM04RkKQI8A854rG/cCq6g9GBH90DFV2AU8qD9allAQ8gA/jUDvv5HatYiNo8GlU0xzQlcgywvWiQcU1c09zxQBTdMUK2KfIwqI8imtQsSeZUitkVVGc1OmcUmhCtTo6Y1OQ0ugErN8tU5W5q0+MVUlXNOADVOajkbFSAECopRkVqtwIWfmnx81Ft5qeJa0eiAnSpe1NQVIBkVztgUrgcGqJBzWvJFmq5tuelbQmkhlEVNFVj7N7VIkGO1OVRAEfSiQHFTqlK0eax5tRGc4NInFW3jqIpg1qpJoZtaXd+dD5Lt86fd9xV9VLH3rmYyUYMpwR0Irctb4XCbRhZu/uKk3pz6MJ1wo9RVfOM+tTt8zHk5qFxknH50GpFyeO/erlvYefbSSkYUDAHrTLWzknk2qOD95vQVvYjiiCKMIowBTEzhiuyUg+vWr8X3eBT9UtwsxeMfKeabbDIwe/rVEiuAB7VpWk6w2BJOFLYz71RkX5CcfUVYso1njktXOBIMD2PrRF6hJaGff75T13KBxVWO3XOXGSa1pIxZp5Mx3epFV2g2tuU5U9KtsmxRa1jB6ECmCGFCScn61qjAHOCaXYD/AKLhYyliibG0H6GpFtv4sYFaWxQeIwDSkblwRilcLGYhljkBBOcnPvmugsLqcovyZOO/GTVGOJA3zdK1YSBKir8qIuc+tFwsU0lnm1WJnJDeYq7P7uDz/Wt69hWSYtgA45NV4LKO41Jb4uQV52468Ec/wCe1W5yXJ447Gib0HFalMQOOdwPueKp6gAsB5GfUmtFwNvf6nk1TuIw8ZGDn3PSsb6mttDmJRuBx09aoygA7R1rSusqx3HGPaqO0NJ/nNaoyZa0y6NnLuxlW4NdRG6yLvibKkVygUKctwPSprTUbiF8RIzR/wB0VLXMXF2OnVTjcfXpT44uQw/EVW0/Uba7kWCUvBKeArjrWne6dMYGWCTZJ6kVHIU6hnXF3HbkojBpemB/DUUM57nJrN+yzwSlJR8wPWrUatUt2MFJt3ZoLNxU0cmazwrAVZgzU8xVzQTmpvK3Cq0RPFXozxVxdxkP2YelNNqPSroIpCRWlhXKRth6UfZxjpVs00nilYLmZPAADxWBqEeG4rp5xkGsi6ti7dKadhMyYY+avwxZqSO12npVlI9tTKRJGIuKcI8c1MBQRxWVwuV2FUrp8AitCQcVmXKk5o3EzNlbk1AXqWdcGq5FaRRmwLUK1MPWhRV2ETBqUGmAGg1NgHM+BVd5Kc5wKrMea0jECUPQTUSmnjmqsAhNNHJpTQvWmBYjHFK/SmocCkdqz6gRPTKVjTa1QEqcVOlV0FTrxUSAkxRijdxSBqzAnQcUNjFRh8UxpKmzuMfgU9elQKcmpgabQxT0qM8mnsc1GeDQiRcCnKwFRM2KZvp8twLLSCoHl96YWNCrmqUUhjlfigtmnrGM0NHgUrq4DFGTUoYoMVGoINBbnFD1AjlYls0K7GnuoxQFGKq6sIkTpSMoI61EzkdKFZjS5eoxEQCXk8VakICjaag2t1xUyxll5NKTArlmBpGf3qZkUHk1FIqAdapNMCPeWYZNXAGCjaeDVGJcycVolh5QA6ilPS1hEM0bgZIqGIEhieMVaExZMNzUDZ+6B1oTewyEcnBNSR7A/PanrbsImLKd3UVCYpCAcZzVXTEJcSsWwDxUZlOMKMVOLcg5c4FKIF5Kc4/SqUopDGhvLdcjf6ip2EUgyqgj+VQSKUQntnmn28W9d5baOg4yal7XETwNEjAlM4GAQelTSyoVOx8H0qlt+bBHzexpwgmPUjHp/wDXqHFN3bARpVPDD86PsoYfKygUxoQgyzr9KdEGI+RTz0ANX00A1DGSaesRzmpFYEVIuMVy3Aj24HSoJWYCrTECqs7g0hlF5fm5pwbNNdNxpyrgVtpYZMgzVhY+Khi6VaRhisJtgQsmKaODUzkVATzQtSSQDdQ0XFMRualJ4o1QFdkxUEg4qaV6iPIrSIFYjmp4hTWXmposCtJPQCVVqVFpi4qVMVzyYClBimFBmpiahd8VKuMTYKXaKj82jzKuzAlGKQ1FvoD0WYD2WoXSpN1NamroCueKaHZWDKSCO4qRxzTCOa1QFyPUCy4lTJ/vKcGr2nBbuYRgNt75rPtrKWY/KhxXSaVYm0UsRyaL3ehrFyZcYJCgRAFUelVLiXjA6n9Kkmcs+3PAqjcSglgvTHWqNTPu58nZ0X+dRQdcdqWdS6BI1JctwB1NaVnax2kO+4dGkIyAx+XB/rVWuJsYYD5W8464I71WBMb7l4I9KddTCV+BGQv3R5hNRrIeA6H2Oc0NdhJ9ya4kW5ALfe7471BORAmGycdMVKAp5XvUd388IHUjilcdjImu5fODrlQOgzV+zvhMdrfK386ovFg01IypLenNVdEm7uP93j2qOSVEHzflWSJpAQNx/OpUJccnpSC5O1+ocZT5R+dadvepKpjTOWyCfSslLcSEZrW061w+Auc96TY0jf06Hy7c8kn3qbYSCDT40CQBTxSq3FJ+ZRWddvXIP1qvNhYsKuPXNXyqnk1FMq7TxuP6VNirnG3oLSsvU559qpHbEC5HNa+oQeUZGOPxrnpWaVyT0B4rSKuRa70GyytMwK/Ko7ZrT0zgq1Z4XArT0xS5VQOp61T0R10YcruzrUtbe4gCzor8dxyKilmvNKAbebm0z/Fyyfj3FS2pK4Vs1adAUKONyMMVimYTV2QSxwaharcwEGqSw4pmgMYb+7swcxj5l/PFaM0YVzxTauYtFQQ81NHGBThinA1PIIeABUiyCqzyYFQmbB600ijTEw9aQyis1Zs96mV8itCS15tG+q+aXdilYLkjc1GYgaBJS+YKT0C5G0YFROAKmklGKqSSZrJiY4GlNQq3NSg1AkI68VVlhGDVwnion6GhDMK6h+Y1QkXFblwmc1mTR9eK0WhDRRxTlXmnEYNKh5q7kEmwYqJxU27ioZGqVcCCQVWbrVluaruOa3iMYDUgPFR0oNW0A40imkNJRYCcPSMajBpT0qbAIaQUhoBqgJlqQGoQ1SIcmoaAkoHNPUZp2ys7iIznFRk1M4wKrP1qo6jJ4xk1ZVOKqQNyKvqeKznoMj21E4qd2FRHBpJiIdtJjFTcYqCQ4q07iA4pQwUVFkmkbpV2AlWX5qsBgy1njOamDkUpQ7AT5ANNbGagLbjTlNHLYZI2SKYDgUjEjtTCSaaQEqlWYVYMSgAiqCkg5qZZjjrSlF9AL0bIFwcVFNIAcKaqtIaYHJPNSodQHuSepqNsbKGYE804KCtabAJACWHarpjQjAbn1plui7Tk4pqsu8/NUSd3oBHIjxtweKaJX3gr1FWy6Fdrc+9R2wVJ8MpYU1LTUQizzsxGOCMHNKrsuQvepbtsyYWMgL+tV9+WztIpb9AAwvLIPMbC96JJY4gUiPHrUTMx4OQKb5a57/nV27gPHMbKTndzTU3RjIJzSqu3GBk+pPFNZiG5xwaYEyNcFS6ZUeppZSXABlZiOuc0j3cjkICG7YxgUxwwIII46mlbUZA+5TzUsNwYgducnrUqMHUkqCF6ntTI0RpQAwUHue1O91ZoDXiOcZqfdgdKgiXIqU9MGuNgRyy4FUprgA1ZnXg1lXC/NWlOKe4yysm6pdwxWfG5Wp/MyKtwAtCTFSLJVQHNSqahxJLG7NNIpFNKeajYBV4NOYnFIlSZXFSxlWTOelCinyYzTAwFadBAyimdKkZsiojTQyaN6mUmoIhU46VnIQ8moJKlpjilECvnmnA0hFArUY7NIKKQdaQiQGlPPSprezlmIwpA9a2rTSkQBnGT71JcYNmNBp8s56YFa9posaAFxk+9accaRjAFSbwao3jTSFgto4wMAUs7YXC8UK9Rzcj2qolSKTn5WY96pTLxjHWr0vO7iqqIjTmST/Vx8tVC2HW0It4vOkGG/vbTlPQfjVK6vmZmEbkjPAVwQPwNRX+peZIRG3AGNyFl496ymnzx1H51psZ7lh5csc4PqWj/AMKDMq8YQnJ4JqqJFByePpTt2eckk9qQFmCZo2OASCefmzVppgyjHAPrWcBuHIB7j04pylgxCggFQcUmhpkkuxjnOajbGCe1MZjlg2cqcUx2JBx0pWHcjc5fipoThvWokTPWplUhhVElyEjcCDxW/p5RSMHt09K5ZXaMgjpnpWpZ3QYZJ6AfWpaKTOqEuRwfxqRCDWRb3IIB3Aj9RWhHIGHbP1pFFkgdqhlzj1/Sl8xUHPHvUTTo+QGyB1I7UNCTOe1xdgO8qS38INc7t9BXbz2VtdSAyDODypOBj1P+FLc2MUtlJGkMSDGASOc9sfjVrRWLjNROJVCx2gZJra0owWSkXUbqzdGpbLTGA81vlI7VsmISW4juI1dfpUuRpOd9EQ/2zYx4BduB12019f8AOHlWcLux43MMAVRl06KG6Vo8lSfuNyK6K1iiRF2RKpx2FTp0M9SHRrBrdnnm/wBZJ+gq5ffKAamjyD7GoNSBEIbsKaIkUd9OViap+bzVy1XcBQyUJIjMKpTb0NboiGKp3dtkGkhszI5avRNkVn+QwkxV+GMhRVXJJt2KRnpSvFN207gQvKRUZnqWVMiqMgKNWcmSWDIT3qNmpgbimlqxbBkqNUoaqqtzUoakJMnzxTTzSKcinYpooqzLmqM0XWtSRaqTLxVXEzFmXBNQ96uzpyapNw1aRIaHbuKic04niomPNUkIXtTGXNPXmnEVV7AVitN21ORTQOau4DAtJt5qcChkpcwEGMUGnsMComqlqAhptKTSVQxympk61Eo5qdKmQidDUlRIKcTisGIG5qF1zUm7mmMeapaDGRgg1bRjioUFTAUpO4wJzTGOKkxTHXipQiEyU0ncaULzUwQYq7pAQkYFRnk1Mw7UqxjrTTsIZGvrRIAKkIAqF8mhasY+NNwpyx/NU0EfyZNIRhqly1sAjoMU3YoFK5qIyYNCuA14yegpnlMKm80dKGb5apNoCJUOKa3y0vm9sVKkJlHpVXtuBWVDIakIZeBVoQeUOOTTJFIGcUue7AjjU5yx4pGeMHBH4imliBUeCeaq1xEygE5GaeZtnfn2qMT/ACgEdKeYlbJzUtdwFS9cHk5HvUgmDAlThj2qo8RUU63hMhJzgCm1G1xjyzA84pywM/zEqoPrTlSFCDJuLegpkjpzsB/E0r9hE8dqCu4vkegprxxqeIiT6moFmJUKARj360+SRmOSQPYkUrO4CLGzNldqY79hSNtY7cjjqT/hSCRj0Xd9KAGcnjaPT1qvUBURWXDSBFH5mmP5K8RhnPcmklVkGSOKdaYLkH0p9LjNmHg81OQDzVNZOealDk9642A6ZQVrKuUrScnFULnODV03qBS6UqvzTTSqpJrqAsoadvxUajApxrJoCZZM1MpzVVTip42rOSETDjmmtJilY/LVOZyDUxjcZI0uaZkmo0JNSqta2SEAYjrRuBNOK8VEwApKzAsxsKsK2RVCLrVtDWc0MlNMcilJ4qJyW4A5qYoCNm5oBqaGwuJz8qED1NaMPh+Zvvtj6CtClFvYy40aRgqjJNbun6SMB5Bk1ctdJS2AJHPqavAhRgUjaFO2rI1iSJeBTTIaSWQioN5NBtYsb+KUGqwcipA3FAE27FOJ3LzVdTuNSE/IaqJMitO3BUH2zVe9Y21ptCyB25LIQM+1WAueTjGe5wKyb51klYssSjsd5I/Krj3M5PoY8u6RiCSfXJyaiK44PH1NaghDp0yM+m0e9V54D8wQZOcfKOh781oQUNp7jNPV9o5HHTmlMWAMgfnzUbgjH070AX4Wyqn3GfX0/wAKVcny1IxnKcVQhmMRw2dp/MVf3qV3ryMhsj8jSasMSSJjFvUZIAOPXtUUZV4wOhzitOOMEMAPlU8nPY85rKNrMyGeJTs3krQgFyN+OmRkVL2U1Va0uFYE5OOePSlJnCbGXnpTsK4sswXbz1NRC62HK9artFLkAqaTynDbSpzTsgub1nfoduWxn3rZt9RThHPPZq5qx015iCASAMkhSa6qz0+CFI2kKtjjLp+B/nUaIrcsRyvLkFCEPfGQfSlMYQAKB6qoGB9f51M8Kon7pdgHdCfr0+tQy3ClGDTcbc8L82Bz/jSAQbWJJ5U8OQOW/CrUJfcmVBkYYA7KO/8ASs2K5RW2/KMchf7g6Z+uKkiuozkA/u2bOMfNIx/pmgRNKqxXHqrc8dKlRR+dK/76JmYqzLzhR932pI8KSCDgHvWctGbRd0EsSSkNt6c1Zj7ACjGQCBzT1UjBoAeg5x2pl4Mwsp71KB37GorwZUYq1sQzEeHBq3afLih4jSRfK1Lck1EI21DOARSI/FMlegZV8rL5q1HHxUakZqwhFIQx4+Kj21Yc1XJ5pgMdcVm3Y5zWhI3FZ10eDWchMrBqC1Q7qXNZEMkDVIr1WyaA9IkvxvUyms+OXmrKSUFJk78ioJFzUm7Ioxk1SGZ00HWqEtsSTxW+8YNRfZgT0rWIrGAYCB0qrLGVNdJJajHSsu8tyueK1JaM1eKeTxTSNpppajcQh5ph4NPzTGqkA9Xp+8VVzS76biBMxzULClDZoNC0AjIpKcabVjFBqZHxVenqaTVwLqNkUMaijPFS4zWLVmIYTTGPNSkYFQucGqQE8ZzU6jiqkRzVyPpWc9BgeKjZuKmYcVVlGOlKOohM80pkwKiGaDzWlgE3kmpkJxwKiUDNWUIxxRICM5700jmpS4qF2GeKSAnWYBahaY7qaATTjESKEkgF3gimlc96jKMpxSksBVW7AJjBpXJxTNxzTw2RzVAMUAcmp1nI4Wq5OaVRg5oavuBbYvt3HmovNeRgrUC5PAIyKsBEO16ztbdAVJUIb2pi+lXJ2DfdFVSjIc4q4u6AcIM5+YUmNnQ8VaS2ZlDZ60kNqWmPmEbR61POu4iJWyMMKTlHwvQ1ekWELiPG6qW0+YctyOuKSdwGyEbSW6jpTCm2MMx69BS3DJnCjn1NQElupzWiWgxWbpinxCTdvVAw6c4qSCOMDLSID6GpJZRu4fcO2KHLogJU3uwVmVQfQ9Ka6EOVVgwHfpTQJCM/dHqajeQA4J3fhUJdhE2xsfdBHemJEEl3DgelLA7Y6EDtnvU20P7Gpba0GTlcmpEWoQ2Wq1ERisGANGdtULpcZrVY/LWbdZOeKcHqBnheealjTmgDNSJwK6GxjivFRtUuKjcZNQhDc0+NsUxkPanIDVO1gJy2RULoTU6D1FKwArNOzAqoMGrKgVC+M1JGacu4Cv0qs/WrbqSKqSqc0QAVDVyBS5FU4kZmAAzXVaPpWVDyjn0py3KjFsr22ntMB8v41rWmiRx4ZgCfetWKGOIAAVIWpWNlBIhjto4xgKKlUKO1JupCaVzVISYAis+QFW9qvsciqc5GDUt3KRVkYGoScU5yM1CxxQA/dmnKag3U9OTTJLAbFOzxg1Dmnp196pCYyViqu2cADj5dw/KsNpNz8N3JwsVbGoEJbE5AyepYjNc4zjn6Y5JNaLRGT3LRkGRvUn1Lt079KcCCB/GFH0XPrVAzovQY+g5pGugR8xJ+vNMRoEQNtTzRu6DC/Kfb9DTJYonJAGxh/A3f6VQN6o4wzDuD0ph1AYC7CVHQE09Q0Lc1rGQ23krwVPX8PzqskbwYZTuibqPSo/7QY4BQnByDnkVMl1HJkHK7hhuP1p69RaGrp7qzqWIK+Wc/hWtFHElqiKpxhZVBHvyP61za43oI5PmzkkdCK1Y70q8GHBWPPQcmoaKRseVC2cYcAb175U9RmmS2Nuy8KjFVz9U/+tVOPUPLMS7D+7zk8HA9Kkju8CJWYjJYYweVPrmkA2bSbcvkqcJ1I7g9DVS/0eP7QgXAYLyAOD71ox3SrKqltygmLnuDVS71KVJzbIhaSIBRhSxPfPFUrgyW1j+zwcoGI4BV+cdOn0oa/AUYZ4/ZkyPT+lY8y30+547Igd2PFQyWGssT8hGeyt1/xosK5rNqZKn7oPqjbf0NRy6gxGdxODkB0B/WsVrPUYhmWOUZ9RmlihnPBVvp60WC5ZNw2W5IDctn+I+/+FSQ3Uqzh8kMOM4y2PT2pn2dtpwCp9ByTT0iMZ28gnqijn8TQM6KwkLQhCixkDOwNnH+0T/SrcXVt3IzxVOwBWEReWgK87F/DkmtCJdykVEkXDqSR8deR2qUnaR6VEifJkVPtJQfSkhsVTz14qK5IAFIzlcYqGSTd1qkQyKRqhJ5qVgCKhYYoESo+KczgioAaa7UhkwIqVXFUS+KUSYp2FcvNIKiZxVYyHNJvJp2EOlk4rNuXzVx/mqtJFk1nJCZQzzTxk1ZEA9KXyvQVnyMkq4NLtNWRGc9KcI/ajkYrFLDA9KkjZqsmL2pPKx2p+zCw5GNTLmkihJPNXEhGOlHIVYgFPC5qXyaUIRVKLAgaPis69hyDWyVqvPAGHStUgOQuoWVjgVVII610tzadTism4t9uaexNjPPFRMc1LJwcVC3WqQgptLmkzViHLTjTVPNP7VLAjNNNONJVDExTlFNpwNDAsR4FTZ4qqjc1OG4rKSEOc8VVdualds1DjJpxQD4m5q/GwxWeowanV8VM1cZaLjpUbjIqLdk1ICSKi1hEZTFRPkVZOKjcAiqTAq5OamyQvFIAN1S4GOKtsCvubNOTJPNSiMUp4pOQE0UYPWnthRimRNmklGay66gGVNRTYxxTkXmmTelUtwK560AipfKyM5qN4yprVNMBnel6UmKCKoB6OAeanDHgDpVWNN7gVcbbGAM5qJWARuADmnDMo4HSo3YEe9TWuU+hqHorgOSZgNrDGKieXk5NTypkFs1TxvbAGcUopPUQ9ZFCN8pLHvTOgzyD709pdgClcfhUbuxGcGrQDDC+MhWI9cU6CM4dyuccAe9WIppHGDGSB3FNlYqRwfpmnzPYZDHbPI/KnBPJq00UcA3KpLDpnpUYupAoVRgD0p0Zknzktj36Um5dQIHkZz835mn2rRuxV1yOxqZbVGAaSVAPQGrtnbQ7WxwPU1M5pIChJaOhDQninbwpw3ytVmRGjLbOVqqyeYCwqVLm3AtbKli6801CGqdEBNZSYDyflqjct2rQCDFU7lV5qYbjM4dalC4FMK/NxUg6V0MQHNNJzQWpvTmiwDg2KcCKgd8GkWSnygXVIokcYqBW4pGqOXUCN25qeFhVcihX21o1dAaO4YqB0yeKhE3vU8B8xqz5WgNXRLISSgsOBXXRqI1AWsbRo9iZrZQ5pnRBWRJmkJpCaaTSNBSeaaWppbmms1Qy0SBvWqtx3qRmqKU5FRcqxnSnmot3rTpzhjUDNVkDi/PFTxcrmqW75hV6MfuxVIQ6nofmx2pg4HNNib94c1RIurKxswqls56KP51yrREM/OfXuB+Ndbqa7rQj94RxwpxWEoDNs2jODhOy/U1qjJmUYyccHnt/jTfKZhx06Z/wrW8oEHjKrwSOrnPQe1IsIDsDwQMnH8I9KYjIFuWOGwMe1WFsD/dDfQ1oyFE2rlVJz8pGRioWkQKCVQkdSpIo5h2IFhRSMb0OehGRTmjU/eVCcdVODUEl4E+WPJ9yTVZpHc5LE0tQ0LnmxxsMnP1pwnDSFiwz2NUdvFLsJosO5pCTjrx6Z4/GpBcyAff5PGe/wBBWUAy9CRUizSLznP1pWC5rQ3BebkZO4ADH3f/AK9WhrixSGOSIxqrHY+Oc+/qKwhdOo4GCPyrZhaK6iAlUfdDE454OD+lHqBaXXFd2dWVZOOhyrj+hqeLV1Bzn93t+ZMcofUetYmoaAyK0ttllVipH61kxvNEeGIPpTsTc72PUBIdhCu2PX76+o96sxpbTxj5VZX5GR94defpXDRXcgIJyCDwR2PrWhbahIjHBG3qVbOPc8UhnUSWEWwqoVfXBAzx/wDXqvJYgYZOeeQq9eveorTVgUUGaFT3VELGrhnDNhRNJjqT8q9KABYxFGE2gAD7i9RwOpqW3Y5wfwPrUQmSR8KwK5wAOB+fep0UgZU8qelZy3NIbE6fL9Kl9u1RRuCc9/SpR0qoiZWuDtVh361SMmRVq+DAgjoazJHKtQvisJ7E27Jp45FVFlOalWSrsRckKioXBqQvSFqLBcrtuoWpGIqMuAadgHAHNPC5FReZThJ70rASCOl8selIslKXosA0oPSmiP2oL0gejlAcYx6UoQUBxS7hRYBRGKPKFAcU7cKLASIoFTgDFVQ+KU3GKLAWTTeM1Va496aLkUWAucVG1V/tIoa5BFMBJ1BU1h3ygZxWrLPkHmsm7bdmkxMwpj8xqAmrNwvzGqrVUSBDSUUVYxy0/tTBS5pMQGkpc0hNAhDRQKdigYqnFSB+Ki6UFuKVrgPZqbupmaKdgJA9OQ5qKpYiAalgWI1zUwXiohIAOKXzeKxabEEjBarPIadK2agOa0jEBd5qWNyTio1QmpEAU81TsBMTgVFuyetLLIMcVBuqYoC2suwUxrjJqqWJpBk01BDLZmwOKZuLGogpNOwVFFkhE6y7eKa7hulMjQscmpCoUVNkmBXYnNNJNSnGamihWQc1fNbcZDAhZqmkiYc1LGiRMOammnjEeAOazcrvQRRh5fBqy4KrgVWD87gKkM29cd6ck2wJBudcdhRD+5c4I5qIuyDr+FRBmeUAHk0uW4FueUY5TJPSocEsFJ5P6U9mKcEU1XHXHNC0QiPbICQzNT2CIACc/Snxh2ZiWVE9TUb+Vu4O79Ke4ySGGKb7rnPdcVZkkRYPLLfLjGO9ZwkfdtjyPQCnzMyqA4VT6DqfrQ4NvcC5b28YTzZ1Kr1U+tW5NRSZBEoVSv61SikaaAGTmOP+H1qokbTzHyxgA+vSo5OZvmHsawkBQg8VAGT7o61Xk3w8btwqMSAurEnipVMRoIhWpkcr1pO1Mc4FZtXGWhMp4qC42kVTaUqaRpSw61Sgx2GtjPFANQtuzUiKxHStLWEMd8NSFwRTnhJ7VGIXz0q0kOxG7UJ1qb7Mx7VIls2elV0CwwHAo3VYa2OOlReQwPSoCwzrTGU1bWA08W/PSlcLFNIWJrSsbcgjNPjt8Y4rRt4to6U9xqJsWYCQCp0lGazlm2rtp8bknNZnQjUDZpaqxScCrSsCKBkbA5pj9KmYcZqJualoaId3FRs2M05/laq8jioaLTK05yxqswqZ+WzUbirJZEo+cVor9wVRQZcVe6AU0SNc4WmWnzz80sp4p2mxkzlieAKoRauFLqykHaRjg4rnHUpIykAc/cU5LfU1005AB9awr9Od6ZBPUAcn8apMlrqUzKVJAPzAYLDov0phmVWB4GPug/zNQO/BBI46AdqgWCWQgnP1qiSy10qKVDZ57dTVSQyTZParKWJJHBz6mrX2Qqo44FFwsZZgI6jmhY+ea0Wi+X3qHytuOKXMOxB5eT7U4R8E4yanWPJ/SnmLB29u9K4WKhTI9zSGPsKsFeuOmcUuAOvpTuFioUAYVdtJTGnI4AI/A1EyfOT6VOiYX3BpiN7SrouSGPLIoIxnBBx/hVHWdJEchmgXg8kDtUunEJJuz02jAPv/APWraDLdQELls7vfODQnYVjixCoyOgAwTjoD0pyghwByfVT/AErdutMMTF4g23syjPHoRVCSzO47hHkdSV20wK8crq/32G3p8+CfzrShlJdXyjHOMySFj+QqibeQYGPycEfrVyxDmXaCVUcEjAz+VSx7mxAQwJc7j27Y/DtVpTx3B9RVKMg5wMHpU0YOecj+VYt63NkrKxaVmJz+ZFWUb1PNVV3DkjB/nUqDnOMfjVJsTQs/zAjFZM8X7w1slcjJ61Qulw+auO9yJbFDZinintikFaGQ2gmlIpMZpgMbpUTZqxtpCgoAqMSDQrmpmQVGUAoAeJOKN5NMxUipmgCNmNRNIQetW/JzUTwA0AQiY+tP84+tJ9lOelOa32igQCb3p/ne9Vn+Wo/MoAtmY5600zcdaqGQ0xpDQMstN70wze9VHembjQBdM3vTDce9VMt600tTEWzOD3qvMwao91J1pWAqTJkmqbpg1qumRVWWLNJaBYo4owaseXTTHVXFYg5pamERo8qncLEGaSrHk0nkn0ouOxGi5NTiEkdKkhgOeRWjDb5HSlcLGUbdvSo2iIrofso29KqTWuM8Uh2Mby+adsxVox4J4prIKLhYqlc05UNSFcGnrgChsTRGM04A0pIpM1JNg25o2DvS5xTWejUQ7hRULvzxQzE00Lk1SQwOTT41BpGFMDEGnuBMYhUiQAcmoFkOanWQ4qHdADlV7VE0gpXOe9REU0gJhMMU15MiowtPAFOyQEeakjkYd6T5aTIHSnuA95Ce9RliaVRuNOMZHNGiAtQxjyfmFEYhTJPWoRMxGypREMc9aya7iI5nVjxVfo2RT3Vg2MVNAgA/eJ0q9kA63SSckk4UVHIu59qcVP8AaFjPyLioi6yPnofapTd7iAKq5DSZwKgbknAzUkiKP481GC2dq55q13GPtYfPmCbtvf61el0/cPkxSw26IFYxHf7N0p0rmP7gYt6A1lKbb90BkS+VE0TDmq7hYznaPqBVlRJcsRkIwGTzSPZyqRucEewpJpPUCsX34680BdvUVZFsQMbQf+BYpjx8YHB9DT5l0EW4t+easmLcOlWRCB2pyr7UuU6OVGa1pntSCy56VqbBnpT1iyelUgsjI+xnNTLbDFahh/2aTyx6UWuFkZrW49KVbUelaPlA0+OMU7BoURajHSni2XHSr+wYqFhg80WDQqmAdMVGbfnpVvcKcgBPNFg0Kq2w9KmFsPSriIPSp0RR2osFygsKr1FTKABgCrTIpHSoiAAaGgTKMjESVbhPyiqMx+ep4JOgrJmiL2SozUkU5JFNVgyUwDDcUijQ3blqPdio0Ygc1WluQGxmmLYmmIxWfO2M1K1wCOTVadwynFKw7kUb7jipdtU4yVkq+nzCkAyOP5xVpuKYq4OaVjVITIZulWdMUCN27+9V5BxV60AW2GOM0yRJeeo/KqdxDuB75q8zjpzUbhSKBmBNYjl1GfWmxKU6gEVsugHI5HpVaWDKEx/iCKVwsNhi3/xY+lSvbnGGk3AcAVAoKEByyfXpVoAkAkgj1pXHYiazWNeeSe9VZrfZk457D0rRRwHAYZB5GelTOqTAbRwvU07isYXklcHpSlOvrir00Jz8o4HQ1F5O3JPQ8VQiiU44HeomTj61fKAKT3JwKY8OQ2OqjNMRTxlyfWp4hk/UU1FDSD0xU8KkuDTESQbo2yowRtJ+m6ugtSI1+YNsViyuBkc81gupR9yHbxycZ/TvWhaTFFDKHUf3ojuB/wCA0xGwY/N+fAY44ZDg9O4pkiBUAJOP9pc1XN4jrw0bDnIOVJqN7sQrkDPTaBJntSEMvSscRVQhZugMXtVW3jMY2p0PX2NQzzNNICxcjOQDzVyFQiKM81nKVzWMbD1ibJZSSDzxVtG2jcOh6g1EoKcqMjuKkjIc8cGs7mlh68nKk47VbjB4/rUSRdOKsIAntVJMTY9hxgnisvUW2EVq5BHX86zNUwI+g61qtzF7Gb5uTT1bNQKDmp4k55rQgkUZp3AqQDiq8pIFAClwKYXHrUHzueBTvLbFMQ5myaFXNNVCTirUceBQBEFFOGAalYAVE2c8Uhi7wKeqg81CFLNVuOLNIBu0CmSgYqw6FRVWRSaAKNwBzUCx5NXXtyxyaVLcZqhFF4OOKruCDg1ufZhiqdxa9eKLhYymGaekWRzUzQEHpT0hOKYFd4xioGStIwECq0kRz0oAp7KNpFTFKAvPSgQzbxUbJU7IQKZtLHFFhlZkFRlBmrrQnFVyhz0oARYxipEt99PRcjpVuBcdqQFYWgAyRUbQgGtR8bazZ32mlYYRqBV6AYqhC3OavRPxRsBcUAiopYd3alWUVMrBhTuIyZrT2qo0BU8iuhaMEVVltwe1FhmG0JPammEitaS32jgVA0XHSgDOaI4oSLJxV90GOlV+FapCw3yBioJIsGrodcc1XlYGhA0isEyaGG2pAaZKaolohZqZSmkNUIUHmn78Co6KLAKWJo3GkopgLuNGTSUUAGaM0UYoAfGxVqseYB1qpnHSnKrOeOalxTFYtRsm4cVbkIKjyxk1QCsuMjFXdzGIADAPRhWUkIrHcHGSB9ancxonL729BUKIDOFl5zSy2siv8hyp9e1DtfUCLcHJ3DaO2KUFFGM07yXHBxnGabGB5wDDpzg1egEjQ7gGxhfepImaJcBAfemzTFmJAP0PaoRIzcYNRZtaiJ3umX0Hpg1GrTMSwHyngk8ChECyBnAYD+EmllaWQ9RjsB2p2S2AcWYMBHkDplc0Spco2GJwe+eKA7LwTk9BnrU0srtHggHjmpvboBGrPjlsmmszA1GJexBpd2QadgOtRd56VOsQx0FC4U1IJVAq7G1yBowO1EZGcU6SXg4FQbyOcYNFguWsjFRnG6q5uQOoo87dyBRYCbjd1qWMKD1qmZD+NSxNTEW9qmo3jzVi3jElWWsuMiiwXMZ4wvQUxTg1fmtyvWqjR+1ADw4A605ZwOpqAoVFMAOeaYF3zQRweKicgKaVAMUki/KTUvYa3M6RsvTi+0ZFQSttepNwaOsTUsQ3uODVyO4DGsXb83FSrI6VNirm4z5Xg1lagWUbxT47kleTTLiQNGQaYdDNa9JGM81ctpQ6cmsa5G1ziprG4IfaTVtaXIT1NPb+84q9AOKqJyQauxdBWZoSmomqQ9KiNNEsjYkkCtNEKxBegqhCm+4XPQc1pON46HApiInVqgYsOOlWNpHbFNcEjlfyqWyiIb8YIBp8ca5yCM+lKqZ+vbsamT7vJJagYptlmTBUAmqElk9uxG3K+/Sti2lXAVvwJq08asMYHParUVJEOTizmHQjHqKkRmz179PatC9thHllXms1VIJO7PHQVDVtCk7ljep7Z9KbJCrkqDwDmgKQoOPxodW5IpXsO1yhJDsPPrTSQQSOSRgirUihwcjJqhKCjdcVopXIaIkUAmrUKcAjoKpLNl8E1p265QY6etUiGJKmVxUUe1XAIDP0GSVP5jrVtlJ7VE8PpxTYkNa5dBlnLZzxkNVd5GdAe2eSB1qU2pyNx49PWntCVdFXoO1ZyZcUMjyQrDk56VcjO5AcEEnIohtirDC/KePxrRisN554HWs7N7Gt0tyrHk96uQw4OeTVgWYUcH8TSMm3jdmnyNbhzp7DlBHT9akXA+8aagH0qUAdqpEsQ+hxiqN9HuiYdavn9arTrlSp70yTFSMkVKoK0+NcE5NJL8oNbGI4SgConYMarF2zxTTI3SnYC2hUGlZhiqQMg5Bo3u3U0AWk5bip87RUMC8VYK5HJpDImfcfamsaVhjvUTN70APR/mq/E4x1rKGSetTx7gM5oaBMvSyqByaqmVSetV5pW6VV3tnrRYLmmpDU7AFZ8cjVZD/LRYC5GQRRNGrLVaOXnFWN2RSAotbjNAhAxVhgN3Wo2x60wI2Tiqs0fNWz9aYU3UxGY8ZXmmDr71oSxcVRkjKmmgGtSR/eprZpAcUxEz4xUAj3PSljUsRAFIYCIKKcjAGkkbioA+DSGXCQwqB4QRQsoHel80Y5oAgMYXmjzdtSsN3So2iOOlAhyTc1bilrMOUPNSJMRQM1hLTtwas6KbPU1OJMjrSAsMoaq00POQKesvrUqnIp7gZU5I4NU3ya17mHdzis94sGkMqEkConbNWpF4qqynNMQ3NRtk1MFpTHkZpisVaSpWXmnJCWp3EQUVYe321CVxRcLDaKXFGDTEJRS7TS7TQAgGTTyoAqSNAoyajfrU3uwI6lhmMRJAzUVFVuBO87SMOKtQzNGm1lXDdVPAqjEcOKsyzIcYHNZyj0sIlkKMOCVPYnnFWYWLqFkGG9ex+lUtxZegFMR5A/yZ/CocbqwizLw+1jyp4pMK7qTkEGiUsUzJjI796YrKy4DjNJbATskRjIcHjpjrVcMyMFSNcetWVy6jcuG/z0pWjB2BVzjrxzSTtowIltskvNcJGp5wDuNJK0QGIQT/tNR5URYsdyr1IHPNKPLyRGFyT1xnFVcRHskGC8bkeoGAKUzoq4zk1cGoloxHOASvG5RxWfMFaQsuFHr3pK7eqHoJlTIrFuM8jFKS8kpZYjs9MUi3KQn5IlY+rc0PfTSdSAPQCtLMDuC2RwKgOd3JpwbjpikOKoseoHekdBSB8Cml896QyvKoBpoyKnCBjUqwAjimBV605WANWPs/rTDbjNAFizufLkHpW5HcIyVzyQY5qyrlRjNROfKXCPNuaU2x+lZ08eOgqZGJ706Rdy1kql2aSpqxSWPd1oMIHapPunnil3itzAj2gDpTJFyDUjPTM0AYV5lHOahjm+XGa1NQtd8ZcdawGyjkGs3E0TLqy4PNTrKHWswyZp8cuDU2KuaIRsZBqKViFIJpq3BAxUMsmadguVZssaiiJjkBqZnFRNjrVohm1bSblBq9FIK5+C42kLmta3kBAOaykrFpmiW4qIHk0ivkUwthqSGy3aZLsfSrhfPfFVLToatbcnGBn1qhCqmcEEn60/Yp/hII7ikVQAPmxUiLzw3FQWIEBxyGFP2BQMDHtShc55FGD0OPzpARk7SSSCPQ9qs283RT07d6rOuQQT+NRoDGeO1NNpiaujUljWVCDzmsmW0EUnyDg1oW0u7vkfyp08W457egrVrmRkvdZmlCMjoaaFII44qe4+XnGQKZ94AL0NZNW0NUyvLGSMgdPSqU8bMpK7TnrWljBIORUU0B6gc+opIGYn2ceYDgZzWrCmQOMcVHHbkzcjnH51fht2wARitoGUiEREnofrViGBcgFc1bSAAe1SpGAeB1q7EGfdRKE3bcAc4qrboZUUuOc5rSul3YTqKbbxhAARUON2WpWRYgiWNexqwtMXBFKWwOKu1ib3GTSEAjpVcNz70+RsnrTQnBJ/OsJttm0VZD0kAPzVKjgnA5quIyPm61IARgrzSTZTSLO4YNQSkY6ZqRWGecg+hqKUYz3qmyDIlysjemagkfdxVudMsTVMjk1stjJ7iFeKBHkilBNOXrVEjxCMUwQ/NU6nIqWJRnmkMg2sgpgmPQmrU6ZU4qktu7HrQAsjnHBqDDE1b+zMBTPKZTQAyNOetWgoC1EsbZpXyo60AVpyNxFRBc0rtlsmlVqYhQh7VKoK9eaWM5+tS545FIYIMkY4q4q8VTWT0qwkh4zSAJYxjNVJBt71edxjGKz7gkscUDIDIwPWlEjY61EwYnpTSGxTEWQxbvUUq8VJAuTzTrhflpDMuQ4NRjk0+Tqaao5qyQYUwMRUpNMx7UAGdx5NPMQIqMcMKvRqClIZQK4PWmk+9T3K4PFVuaQFiEZ71cEYKVTiBqxubGKBlW5j9KrYIq5MpIqqwOKYhol21Mk/pVVhk0gU9qLBc0VkB71YjkYD2rLjYg1ZSX5cZqRluWXIxVR8Gg5I60n3etJlEUiZHSo2g4qxnJp5QEUCM5kw2MUmCeKu+VmmNGF5pgUmi56VNFhRzU3ykdKjZQOlFxWGTsCPlqmVOelXCmacsIx0p3HYo7fanqoqw0Q7VEU5ouIYUGaQ4FSFeKjZSelAEbOaaTTthz0p3lkdqYiMDNBXFShacqK3BouIgRSzADrVg2jqNx4FSxRRxncTginSzM4xnIqHNt6E3IthPBOBSifyRhf5UEnbkqcetNVUKkkcUvURE0rO2TSl8YyAT/uinbNw+ReKWFT5nzgjHNXdAWIQRz5gAx9KjM2XBJpSQ+dg6ds0wspXBXn1zWaQEyS9u56GoiW8zhdxx3FRjgEEkA+1CMysCCOOhqlGwAHDsc8GpRAzIcGo2aINkpn9KcbggEx4Q+lDv0CxG1uyjLkAfmajPovSlaUnr19TUlusRYb259DV6pajO48sd6BAWPFRNdAHoanhukPBGPrSLAwECojCCelXDKrD5TTQVzmgBkVqByalKqoqTzVC1VlnDHAFACvKqmozMlRsC3amFfanYVyykyHin5yeKqL8pqYPWNU3pl6LFTEcVUhkqyHyKwTNmU7lSDkVX3e9aEqbxVMwYauiEro55xs7kYy1BDDtVuGJfSpWgAFaGRSCGRCGFYGqWhicsBxXVhVAqnqUKSxH1pNXKWhxTEqaFkqa6hKORVU8UhllJDUpwwqkr4qQMSODRYdwkTBpgbtTmbjmoS3NNCHng5FXbO552k1RByKFJVsik1dAnY6OGXNTZyaybabcBzzWhE+etZbGhrWpCxCrK49cH6VXg5QDOAKnG3HzAmgZMqKw+U8j2pRkcHp9KEIx8oI/GngnnqR+dS0O4AHGc01v8ikLhepxTXYf/rqShrkfjTMjeO3qKcTkccEd6hLKRhhg+opDL6J5ZDKOD6VdB3LWVHcBY8ZJqa2uVL4B4PauiEkYSTHyqMsrdaz2YxEIRwDwa0bsEHeOgHJrOuJMP8wyuKJoUGTk7gGAyfQ0m3/9VELIQEP1z61JhVOM9ehrPlNLlaJP9IU7eQe9akcOACRg+lVUXdKMA59q0RwMY/GtKaM5iYFIwAU0meTTZfu8HpWhmU3P74gn6U5WAAyRUG752ZvWovPzIfSkykaauAKa8yr3yaz2m3EDdgU1pOQAR+JrOU2XGJb3bm559qkMmO351XiAPJOT7U8Mp7msjUmEuDwAfoacJQ3BGPwqMEZ+6KkX5jhhxTQMnT5h71HKODSqApxgr7ihzlT61RBl3XBB6Zqq2MVbuxuxn1qt5RY4xWsXoZyWpXLAd6cucdKlazJORVqG1OOaoggiBYdKnAKjpVpYAo6VDKwWkMiIZjjtU8UQA5pqyIQORUpmUCgY2TA6VXZSTmpmlUnrTdykUANijyeaSeNQDTw4FMlkBGBQBmOpLGkWJu1WWwDSo6+tUIjRGXk1Jk4pZHAFVml54NIC3HHu61Ps2jrVOKfipw5cdaTBCOWqBl7k1K6tVWQP2pgP2CghcVWZpB2NQPM4PQ0WC5fV1U02Ziy8dKorM5YDBrSiiLIM0BcymUlzmnhBjpVmWMBzTCMDimIgK0vl8U7NOFAFeSOrNsDjBpj4pYXAagCWW33CoTbDFX8ErkVWkD5IpDGxwAHqKn2KPSqbO6GmtJIenNFhl0xI3pUE9ou0npVZbp0OCKfJe7kxQBRlQI5FIAKJJC7dKFpiAqAKiZiD1qRjTAhY0AWIGzVjyi3WoreLHvV4FAnPWpZSZUMW01PFGG60yaRSRinwvjqaQCSqE7VnzEsTir07FhgVHFBuOSKYFNFYDmnY5q60Q7CoWjIYUgK7oW6cUgJXirzKojPrVHazMcCgBppPKY81YityzgnpVzylGAadwsZXkkjNCR4zmtedESLOAKy3IYnFAEXlknKjNJIMdRipYRJEd3b0qSSYP/BUuTTJZUhCF8P0NaUdrDsBUjNVFUP1wtSt5cS/KWZqiTb2FuR3dqSQQ2faooYCzbepoaaQnio2kkzlSV+lUlK1mKxZZFRf3hx7CqbsFJCZxSPMSOSSfc0IVk4II96pRtuFiSKSNU5Jz6CmYklYlcmle32j5TmmrM0fGKF3QtB4V42DYz64qPeATx19R0p5ldxwMD1zTFVsMSpIHf0przELnPen79q4I5HcVECCfl4NSfKBh2oYETEueSOffpSeWODu4PenbU3ckkUxnZj/AE9KpeQ0BG7hVzjuBVyKxKrucnOO3also2jJkYLz0BNEl08j4PT0B4qJSb0QjrTAFHbNQMhBoEjt1NM5DZNXY0uTqGQZzTknFMLKU680kNsZGyM4oAnZwR1pq7aWa2MS561WE2ONtAi4MUhUGq4kPXFPWcelAEyw5oaPbTUugDgipX3OuQMVnNXRpB2GI2D1q0jcdaz8kNViOXiuZqx0p3LoagqDVcSU9ZKE7BYeMqeBSSSYHFLvGKjZgTWiqNGbppkLSPUTuWGDVohSKhZRmrVUh0jFv7TeCwFYUqFGIIxXbGJSMGsfUdPV8sg5p86bE4NHNtQshU1NLA8ZIIquy4rRWZBMSGGahPWm7iKTdzTsA7dil303INGKAJ4JtjCtm2kDAEVz2CKv6dOfNRCepFROPUqL6HaQMQoHt0qwsbHk4xUEH0yfarSHaeRzWLNUOwQOmRTgxC/dI/SlVuoxxQWO3vikOxGX3cN+vNRNlc+lSSE46Aio2XI4yRUjI2fGccCq7zjOMfl1qYk9ByKqTHax28EUhjwwyeRg80kkjQuJB901mTXTqQpH09qe92GhCk8gVpFamcmdCt7HcWxJYBh1FMaLJGTxXMedz1NaenX+/wDdTN/umtr9zKxppHsA/wBnpRIwYegPUCgSAg8//Wquzja2Oo6ik1cEy5poLTEbuB0961nHAHrXPWku2XIODW5FL5kQyeacdNAlqMJx3qC4k2xk5pZGIbPYVm6rc+XAwB4PeqJKb6gpeRV544ohkyuW6d6wXkwcZq8k22AHPJqWUi40hL8ZxT4nVWB6+oNUYJmkbaFyTV5IXBHOO+KyaNUy7C4zwAPYGrAYsPkyaqx7iSAScdqsR5HzcrmoaLRYUEcnIqRWXoahDknBGakAwenPpRfsBZTkdabLjb1wT+tIhPB4p0oyhq1sR1M6c8evNMRsYzVm3iE8zRt6VHNatCSD0rSHwmc/iJI3SpQ6DvWeoIbrUhPFUSXWlUiqEwDsaUscUwHnk0ANSHB61K0GR1prPjkUv2jigBghIPWpoocmoGn61NaT5PrQGhLJDtWqEpIJq/dTYT3rLd8k00JkbliaYA1OLUqn1piG+XI1MMMgPIqyJlWka4Q96AIlUg81ft9oX5qpK6lquBlKdallIWaZF6mohNGe4qrcQFycMap/Zpd3DnFNCNF2QnqKTy0YdqpfZn/vGpRFIq/eNAE6wAHjFTtMEXGaqIWUYJND4agZFLLuckVE7nFPO1TTWANMRGCzdOadh/Sp4sL1GKcZY89RRcVim+7uKIyFOalmdT0p8MO7rQMsQzrtxStIpNAhRVqIhdxGaQ9SOZ1piMpHUU+SEN3pUtBt96A1K0u01CVBGKutZkfeqEwgNigBbe1EhFTz2qxr0pIWEfFOupGdMA0AZEuAxxSJIFPNXFtVYHPWq8lvg4FUSOWYdjTWnPSkW2ap1tRtyetIdxkOZDzxVwRbVqqv7o1Mk5Y4xUspD9hpVO3pUyqMAmmTKqJuBpAKo3VHLFlsdqijuRmkMrs/y1QiVo1AFNWIKScVNEjMRv6VHezxwjANKwxocBsAc1XupmVwafbyoxpLnYxwOvrSAqS3Dy4WpERQoyMmp4bVc5qYWBdtw6UxlcopTgUiwAj0p1yTbHBGfeqi3uH56UgehK0ITkimAbzjrSTXQkGF5p9uCq5YUAMlConofaq4BYH5eKthPOlwwwK1Ira38vbxmi4rGFHCCDuUYHrTZNg+6CDV+6gRJNo6fWonjSKPdtGaRLiZ/wA7HvQD8wBG4+lSp5krED5RU6w+VgohdvWm2kRZIgYBfmcY9BTDKZcR52p7DrUrQgsWkVgaevkIuPL3Z6kv/QUk0FytIhQEIQB9eaiA9TViV4wcpGAf5Vah+y26eY8gkl6gAcCqT0EZ5Qg4c7OM8ipImgQb3yzdlAplxKZpC2KjAHVj+FVa61GXRKChkkbaTwqjk4p6QAx7igTjv1qrblg5cIG7DPapZbmXkFQB781m462Qjq2Kik2luvFS/Y2Bz1pz28irxyfStLmhCUAqe1nEZwRxVKUzrwVwKjCzNQK5sXNysiYWs5Iiznmo0t5OpJqaKKRWFIY+SLavWmQ4zjip5Ld5U5GKqSWrR/xGgCwQqnPGatxTR7fmIzWN5bnOGPFV2Mit940WuCdjXuJY85FVxOM9ay5JJT1Jojdu5NZSpmsZmwtx71Ik+TWYkvrVhJBWbgzRTRpK+aRmqmZ9tC3AY4zU8rHzIs+bTWkqEsajMwXrRYLlgy471E8mevSq5myeKZJJgcmnYVxJo43zkCs24tUOcVLLcZOKhaXjNWrkOzKElvtNQtGRVmaYk0xBuPSt1cydiuQRSqa0haCReBVeSzaI57UxFfFTWRAvIs/3hTCKls4Xe6j2jJ3Ck3oUjuofljB7n0qwi8fOSabEjEDjj3qwkWBwK52bIVSoHHNB6HmlKk52gfSoWQ5zgZpDHO6r7iqwnQsQD+Qpdhzlhx/Kp0jiUbto+tOyC5SmweVNZ07ndg8n1rcY24JLKARVK5mtSrH5Q46GlZCbZzl63HII9Kqm4+UD9Kgv7mSadtzdDgY6VWDnvW0Y2MnK5oCSpEkwQRVBXI+lSCTGKdhXOltb0FQGPOOtSeYCc9DWBBMQeDV2O5z160AaiuueeDWnbXKsNpbGB2rnDP7jbUtteIucsPoKBG3NcDnniua1W88yXaDlRVi71BfLPTPoK5+aYu5OaoB7SZYD+VXGkUIo6gdazEbBz3p+8nPNJq4JnS2TwJEJFxmr8U0bEnHtmuTtLgqdhPHat2xkHViOO5rN6Gi1Nbyvm8wEKT2pyOMc5zS2rBjlv1qaYKwxtGKnfcrYb24b64qRRjmoolwMKM89TU65xyePSs2rF3JUO49eKeeVP+FRIMf4VL95TVRYmV7FgL0/Q1ozRrKhrGeUW07OeOKnttRSQ8NW0HZGU1dkM1q8bnHI9aquJFOM4rRu7pVQmsea8DMMDNWZ7E5WTbyaaiux680xbz5CO9WLeZW5xxSGC27sRk09rTI9KU3JHCqakimJ6ii4aEJsTt9afawCMnsasPcLtx0qq0pLGgVieeJHGO9Umthmp13GniLdSuOxRa2WmmMIOtaDWpP8VRvZEjrTuKxn+SHzmo5IQvStJbMqOtR/ZmMnIyKdwM6ONy3SrYt58AjpU0n7kZC5qJtTVVwVOfpQAGNwDkc1Vd2RsbaH1Q8kjAqs94GbNAF2JZJCDjAq4yBY+QKyotQYcKhNP+2SzHbgj60WC4kzHdhaVbeV14JoEbE9auQXAj+VxQBkzRSIfmzTUJH3qvX8qs3FUGbkCmAssnHWq5ZjVlxlKg2nPSgCS1Tc43HithY12cVjqGXpU8dxIowTSAsSq5OAahS1kLZJo+0tnJFON2RyB+FFgLIt+Bnk1OiBF54NZ63UjcgYpWuJm4AJoAtzHIwKijtd7ZNQB3FWEeQjNLYZO1kuATTJIAEwKI5ZWOCalPyg5oCxiXU7Q5GKp/aiTk1tXNqkwLYrEuIxG5AqkxWLC3KlaR77AwOlUfm7DimFSaLAXftSkjNWYS5GVWslV2sCelbVleQomDQBKDIOoomhMidDU6zRzH5amZR5fWpZSM+C0VRzzUoiSNs8VKkZJ4yc0kyYXnrSuMEIkNRTab57E5p1tEzcg4qV7j7PwWFMRh3VrJaS/LkipI4wwDM2D6VZu7uKXOTzVJIpHfcrELQw2LwU4AVqnWSSNfWq6hol3M9LFOZQTn8qnUdyd0SWIl8Z9Ky5baMNjirMrykkLmq6xSiQMy5p7AOt7ZFcbgKmuJIl4XH4VNJC0iApVZbBnfG760ANQgkdRVuGJDkq+TVbUGSCMRry1Uba5dNwQFmNMllqdXaYjk4qC4dkwB1p7STqfmIXuagkEsqGTGEHc96jVsltsrvKx6fpV60LSfJgKcd2OTWfvGMKv41ajRGA8y4VCeyqSaqUVYVi6lkoJaYBj2+YmqlykZc+WAoHXB4FWEjjZD80hjHV3bj8qpTzxlwFUCJeijv9aiN2xEQYhjt/Omsxc4B+pNTGUCIkIEU8Ankn6VUJrVICQ4GdvI7sR/Ko+p4pxYycYwo7Crdi8EeRIAG7MabdkBW2zRjhW9zinROWb5l3cVoyywd5h+BqlJtc5jJwe5qFK+6A7+W5ReKWO5jI5ArPS1kYc5/GrK2pVMbqZpqSSmFwTjNQxqu/hTUkMPJyOfWlaWOE4JAo3AXcicY/OpFMfUgZrOmuBK2FOR7VJEHJA5C+9FguWnuI0POKjuJUkiOACcVTvgMZB59BVH5lBIY1ViR5kKEgmoGYsSaa8p6H86jZwB1pgOY0sShnANV2kFPt1dpARQBeltwoBHFREhelPnMpQDqaplZmODwKQFhpgR97mohIynI/Ol+yttznNQyo6jj8qWjHqi39pOOTULylj1qmnmM2KsJbyEZo5UPmZNFIB1NOkYMOKhMJUck1CXxkZo5UHMxxUZ6UhjBNRFhnrSmQKKdhXFktQRnikSDaOKPtK4phuQBTAlD7D1pZJBImKpPPmkEjEUCFWMs+AK6TQtNzIsjDheaoaHCszkt612FtEsMYVBWctDSJOihaduNL/Dk5FNP1rCTNUMdvT8qbnjPfsKSX7uRUSnPU1BZLjB6ckUhwuc9DTic4A/MVWupNqj86skpXjYDAN7iufv5NkbANya09QmAQ561ztzLvOM5NVBXIkym1NxzTjSV0GI9G7GnkelRipl6UACMRUwmxVdhg+xozSsO5Za4bHWozcvjGahJqNm5osFyR5WamDk0g5p4FMQlKKMUq0AC8c1q2MxwBn8KzduRU0DGNlPboaiSuVF2Ous3O0MTn0FaG7OPb+dYVncbtvYCtaGTcMdcGsTZFgsFzjH+NLEciqsjnJUc81Ztx8oyeahlIsrxzmpl5qHoQP1qVfrTixSMbxLbSm1E8IPy/fA9PWudtBcKQwLAGu+YblIIyKyJ7aKIFUXHoK3Ri+5VjUzRYc04WCqCeKY8ckIyPyo82XAyOKpEtirbKTjircUUcY5NMht3ZdwNKIGLYYkUgJQY+eRVWa4UPtWnzWrIMqTVZLZjKC3Ip2C4u5uuCaGWUjIU1qxeUqDIFMkvYI+MCjQDM8ySL7ymnC7ZRmpbi4W5UrEm41mSs0fyuuKdguaMd88nAqwbvanJH0rCjm2HIpz3ZPXpRYLmmb7Jx0qSO6XjJrKkuIjHx1qJLnJxmlYLnS7oWX5sVSuI4WPasiS7dB14pYpnmGQ1FguXpLeFh0FNSxg2cgVR89y5QAkiiWeaIZbKimLQvx28MYI/Wq0rKH+UCqn2qQjviiLzJjkD8aANG3IJ+Y9avizSRd1ZMVvNuBJwB1rWguUVNmeaAMTUE8mbAqvg7c44q3qu15Nw61TEw27cc00IA1Ln0FTw2nmLneBV2BYYUIYrn1ouOzMrefSgEmnXnyuWXpUlrPCqHf1ouFiEmrVvZPOuQQKqTyozkr0p8F9JDwpGD60AXVt2jbZ1PrUjKsAy4qGO+G4EkEmm6hMXTNIBz3UZ6YqaC4i284rn2mCk5pouB607Bc3nvI0c7aT7dG55NYQnX60GcDtSsFzofPiK9etVJlg5Y4z71lGU44zigShuOpp2C9yaZ06KKSGNGUlhSJGznpxTpLZkXdnigCF1XeQOlaEMdusPbNZecGnJJtYEnigDRSGRTuVsLT7m6McYUHn2qjJfvjapGKgSTfIC5zStcadjorNsQB2zkjNLdYkhLDms5dRVFCZ4FTDUonAUc0gG2dy4JQ8fWlltBcvl3/KnqqP8AMBjFRyvn5VOPegZA+korbgxP406XCRbF6ipkjkRM5z+NQRYNyWlyBSDYqqk7j5+RVu0zGDhDipbm6t4xgYJojvNygRpx607haxJuVxnofSkJ+UggfWoHUbt2ct6U2a6UR7AcN0pAMn1HyT5cKlsd6pLfzhiecntU2wqC6rvPsM1FDBN5wIXLHt6U9A1GN50rb2UmrMFwsGP3RJ9cVNulyYxDlv8AZFT22n3Tfeg4PrQIzbqRrm4XjA7irFxchI1QplR6VpyWccabWAD+1UJbBG43mgZkkl33InBNWRFsw0uM9hV2K2itwd5JA6VQnZFnLSZCt0Hek9dCWV7mZ5DtL5Rew4FRIFz64p7Mjk5GFzxQgQhscVS2FYiLb3y/QdBTO9K3XHpU9vEoQzS/dH3R6mq2EEMLMuR36A1L9nVOZZAPYcmoZJGPIGAKImyHZjlgMAe9Q09xBmEviOMsfc06dggCDr39vakhHlkk8ueg9Peq7MWYk9TVJagehNeDqoP1pjXjdCKzs7O9JJITgj+dFi7mmtzweCfpVOcmRicHHvUMcxB56VJJOJF24OfagBsQ2sD1q+sylO9Z0UUhPGau29uxU7zQwQyRA7FqTyRtPGafcIsAByMfWnxToEAIJ+lIZmzW4LZIIqGS2HY1tvLBImMYPvVNo49/XIp3FYyWg+bvUyExqMcmtONIQfnxTHjh38FcUAVEuiD84qQzLIQFHWpXhhI4K1FcBIIwyEZpARPO6Ntxx60xXMh24qeKaN1y/WoEuUScntQAqKsbElRmkkvQvCgGkuGExJU4FU5ImUZA4p2C46S6d89qrkMxo5z0qRMk0xEBUiozn1q9JtZfeoEjy43dKAIUTJ5prxkH2q/PAFwVqq6MTg0AVwpLYFWggSPmlgiCtk1JIQ3GOKQzV8MwszO5XCL39TXVJ161l6RCLayjUDBb5jWoin8axk7s1irIlLgADNNDH2pkhO7bimk4AO79KxkaxQ2d88elRr+lRyv1PenRnJHGalajehOueq1UvujZ6VdTiszWLhIIiW6twK0sRc5vVbj5xEnJA5rKCSNztP5VphV3FzyTzmnLKFxxxWydkZPUySpB5ph4rQvkU/Ones/PY1adyRQealU1D0NPVqYidcd+lRSjb06UoahjuXBoAh30wnJoPBpKYDlqUHiohTt2KQDmNIrU0nNJQBYR+acWOcCo4l3MK1YLZMBu4qW7DSJ9PyQu7g9xW3GSlUY4lUo6jjoavspKZAzmsmaocXU9xmr1qfk5GKyCdgAPatGxbcg56Vky0aCgdKkXP4VCOnX86lRuuDTiEiRvu561mX7iICRuQDgitFjlec1nX6+ZbOp5yOPrWl7MztoVvt8DD5sUyS9gI+UVi/vmfb5RHuaXbKr7SOPYVtYyubEWphHCjpVt76HAORmuWknkQkeWT74qVI7qRAwQ80WC5uz6lGYiFPNZ8N5K77fWqzWV2ibyAc9qs2lm6sHlO30FKyHc2YMBPnIJrO1AxhjjGauqgWMsHzise4+eQnNCBj4Lkw5wM1FM7TvlgPoKQKAOKTJqhB5Y9KPKVzgDmmmRlFPhfByWxQBHJbleowKdb24eQDGB60s0rynaDke1SWs4gJDrkHvQBaubGNowq9/Sq8Vi8LYU5Ddqha6m887DlKmS6ZZVd24HalqGhfSxS3HmSEZ61DdCCcYJAqTUkkuLQSJnOOgrmmW53EbXBFFgubgS3VNuQanht9sZdAMVy3nMrfOxBHrVgatKibVl+WiwXNeS+WMspxkUW99bsDuxmuda4DsSXzmlWVAfvYp2C5t3hib5kI/Ckt0hk++R+NYxlVjgSGhZtvHmGiwXNW5GwnyZSB6CqjXJ8vG75qgjLTEhNzH2prfKxBBBHaiwrjjI7jDHNNIbOFGaaJFPSnxzmNs4zTAchJUqRg/SiK2kYk7+KR7rzD0xTVlPQPigBTHJG+7fwK0rdkuI/nYcVmSEdN+aQBccMR+NJ6jWhpLaWzMSzfnVeSxtw5w1NFjL5YdWODSXUccKrhiW70AOS0jzheTU8VhGZAJDj6iq9rIkb72b8M1M4lu3LxsVUehpWA02tLNIxkrWcYbUz/KwxVW4trlULMxZfrVGNmZ9qBiadgubrpDGh2sM1JGivancQTXPu0qPtYOD6VaSW4VAArEe1JoLjru3KcoM/SqJ61u2kvmLtliIA7msy7jAuWIXCnpQn0ApmgNUrRc5zTWXPQVQhOcZqWKcRg/ISaiIO3FOBYR4x+NIZfsZZZXAbAUmta4sWaMNGwBxXNxTSIRhjjNbaamrRLGjfNikxodaQzvJsJBHenan+4ULHESfUUltcSxS84OasvdhZt0mGUCkMyXtUa3Ekgw59als3EaFAM54Bpmo3SzSKE6Z6CmyzbVUKvB/SgC3dRpbwjyzulescWs7OxdDnNavlrCDNLJgBcgVkz6hcOcqcL1oQM2dLR4VkEgUHbxmmJG6yllGSx5PtVMzPCIJS5JYcqa0zI8kKi2Qu5wcDoo9zUjJn1WO0QiK05HUnqazp/Ek8h+RTHirp0+SaVWY4HQgHp71WuNMUsRFJGWz95u1Fl1D0M9byeTcxc72PBNJLdXEB/eDr3pL+CS0KsJlcjnIFNupZpIVaRMAjgkVasSRNe3MnQYBqvLvd8t29aQHsT0prO2euaYhCpPepvJYLwpJNDqbdxuHzYzj0q3ZlB89zIQT91fak2BnGNkJ3g59KerdDIeOyiti4lh2ARhTist/LBIYce1JSuDjYawaXCoufp2FRsgQ/eyR6dKnef5AigIpHIBzmqvLH3qlckcG2g/3mqMjFSMpUgfxenpSEEjPpTA6yWPezMudp6ZpPKQJ8zc/WrALG3ZHAVl6c9aIrDzsOXGMZ/GlcZQfCn735U6E7iXzgCrkWnRFCXOWB/OorpCw8uFNueCaLgRHVo4uBjIoXU2mbbGc+wqrLob+UZBIN3XFGkypYu3npn3xSHqSTXwB2ydR61GNQVeh4rQZbS9cvtABp/2HTxwcEUxalFdRRlyDzSi73tgcmrI0i2aTfCQVqeKzt4STkcetFxlGS58sgOtRrK0p+UcVcmaKRiNoOPSo1ZF4AFMQ2OKQnFSNYyMMk09ZdmCafJcsVyh4pDIItPy3zNUz6XHnJYfnUKSs3O4inCVpGxkigQGxjAxuH500WaKMbs/jSTlohz1pgkBQsaYDJLNFbOf1pjW6hCQeaTduJJbA7VIlu5gMm8EH0pAUHwg5PNJHulICjNWY47bYRJy1SW88UJPyUXGJ9lnKjIGPWq08ZjPr9BW4l2JFAx8tR3HkYz1NK4WMNcnopzUsUbyOo2Ecjk1cWSLdgoB70sU5E6JsGGYDNO4JHRwhVCjqcVeT5VJ71TVRhcVcTLLgdhWFjYjZjnk1A7DuOaueWqjHUnuaryKVHABrKSNYsqOVyByAexq5DGqqMVXk5UfKd1TQNuUDmkgZKee34VyGuzfadSMBchYv5117sFWuC1COW41GcjgbzzXRBHPNkRmEZKE5x3qMzZyM01bZmlKodxHWmXMPlkYyD6GtLIm7HmQ7cE5qsetL8+M44phNNIVxSaAcUwmjNOwrku6lDVDupd1AXHPTKXdSGgBQaCabRQFx2aUGmUoyelFguW7dgDk1eSTn5TxWUkcp6KatR21wwBPyj1qXEpM2oblVTBbPtW7DkxL9K5ZbQ27qXcMDzwa6i3OY1OOPSspKxcXcguoQOQck1cssCMDr34qOcbk2jqakiXZhSc5rCbNoIuKxyDzmpgFPfBHrVdOBwRx61JGct14oixtE7khfeqc33TmrTH5DiqsqfKTWjIREBA6gEDNQS2qo4IOc9jWS+pmymkXIfDHAqCfVpZpkkHy47VvZsw0RsyWaFMtg+2KtQQwiAP5gAHaqlvcefHuR9zAcisi9mkMxUZHqAaEDN+a4iC8OCKUtbyxjc4z9a5sT24gO5z5mehpouE/56AfQ07CNXUbtLciOM5B9KzzdID0NRq6SE/MDijbk8CnYLk9vcwSSCNztB7mn3UsFvMER9+fSqm1TkEc1ItlJ5fneSxX1oETwq1y+ETA9TRewC1A8zlT3FNhhuWy0O449Kllsb66Qbxx6GgCkk6ZCx55q8kDNCzuNqgZ5qI6fPBwxUemKRzemPYynaaBlIXoLkICR7CtBLV5IBKx2jsDRZQ23lsJFZXHfFSXFzaeSIl3mUdM0CNiBmS3XcQRio1liUlmRTmsgi58tf32AexqA/a4X+cEj1FK1x3sbD21ncOf3S7j6isXU9JtzJsiIRvaiS6Z3/dSENUqkRkPMQT3oWgPUqWejNGSzgN6Ur6DJM5YMFWteK4gkwQ2F9KFuUkuvJ2MsXdj0ouFipa+HoohueTcxqZdEtICZZsHParV+0MLoIZdufenXlsjWyEuzFvSncVu4y3W1ts+UqANUkthC0ZcoNzc1QNqkBUnJ288mn/2rcNkJAzovGRS1HZGXc2qCUhRioPsY6g1dudUJmEf2bYzdzUfn4Q5A56mmgZV+ydxTTZY781YknO3KKDUS3TF8OoFMRD9lIOCadHaFnwpqVnkLZUDFRh5N2Og9aANBFnjj2eYij3NVZLdjIAXDFj2qJVV2yzFj7mpWUKAVYqaQFm70xFVPIBZgPmxU1hZuoIlPlp+tMtL2SzU4xIT3Y00X00k+6RhtJ5HYUagbUdj5kJAPmDtmqapbWhI2DzPSnWN/mSXdKVXooFMmNkuZCzlz0z3NSURyRLKwkdVApZ3EcQEaqM+tUy0hUnmnNKpQFuSKqwrlgJLIMFkXI6CpTZxpB/pGGPoKzHnHVc5+tDXMhXG8mlYdwurRAV8oYLdqqzW7wAFxgGphMySBwSx96lmvHnXbKgI9qeotChHGZ2IQZx1NNkRozgjI9qtrM0cRjjj2KepHWlgKSXCK6nZ6dzRqBDZtbM22VSxPQVZka1ibaifP6VYhs7WO5Z7pxGTyqg09YLGSQnzVdj3z0pMaKMK3FxKuSEQ9KtT2cuAo+b39KqvexWs+Dl9vQL0qGTVby6kIhXaCOMUhl14YI0CQr++xyzU6KzuPssoZVMhIw2egqrYx/a1K3ZKEHIYdTWmLNIgJDcyNGP4SetDBEV1ZCSCPMo7Bs96IdOthMPnGOmDUV29uylxFKWJ4PIAAqlFcyBJGbKKeBmhAzRuoLYMVZwVX8cVpxJFa2iHouAelZkcAaBB5YUfeyerVZvNVgktjGp3SMMEAfd+pqX2GiRruNrhUTOJBz7Vh3dzJYXEsYj3nPyk9AKekjF8RDO/GGHpWl5cSQFrgB3QZYnnBprTcPQwY5HvdzzkschVA4FSXUjuDGzjYOBn0qxcT8hkQRgjPyrwBim2tpJPAZZJB5ZJzkc/hTEZbRKpA3Bs9MU8W5j3SbTtVcgkcZq0qozn5BsUEkn0FTQWUswE945jt+qpnlh2AFO4rFaNZWhEhjBZuQxHLVNOYHEZddhC/Nn+I1ZnaVsMFjjjXhAx5H4VSupJfOaVo0LHqcZ/nS3HYqkfvsphx2C0+a1OWclVXrjdk1be7iltFMyKr9PlXBPvUMYSZSpfaRyQ3Q0xWKmxCQIwznHaplijiDOSwbOFVsZqxODbwKEULlgOByaoMWdzsTBJ6nk09xNWGc7iRyT0NPMbA4kIX61OscsKcbNxHU8kfSiRZhHHcuq4YlVB9u9AWOtuFjYlmO3PIBNQLJEp27Tj1Bq7aWtnbWyGZjJMBhsnPNQ2unWqzGSWd2iJyEx0pXCxXMifwZ+gNLINwBVyc9OatX62ykm2j2nsR0NU4rW3UCR5XMhOcA/douFiBnAJDEnHoaa7eYVjjgJz6dauT6bazJJJHdlZOoU96jsY5LSXzPM3MB1Ip3EVha3IQ4hbHarttbRrCRKD5rDillkup5Dliox2OM1Na20ZAkmnYMD0JouOxWSWa2DRcDPPNV5CxYlmzmrOol5Z0W3iLDPLn0q1JZqwBRNrAY9jQBlbtuRg0pUhN7KQPU1ZSxuXGXCjHbPNLJa3EiGNmIHagRSLAgHPFSMjFAQjAY64p0WnTq43DK46VrvCZLdUbdESMHAouBz7s6JuyCKRZPlznBq3Po8iyDyn8xD1JqZtHXyflBLkflQBky3LH77Zx61JGBcwgxuEYcEGrdp4fEjN9rJAA4weKvppkMZPlx/KRg570rjMeVYoogrSAt3FUjIEyokO307Vuz6OshJZArDpUa6I7kKiqfY0xGLDNF5nznI9qe0qBujY+lbFx4flgVXQR5BqfygAFMIyO5obGjPtLCaVN+7Yh5GaLmE20XmHL5OOKuzywxJh5io9BVF5I5mVC7CMnmp1HoZ80m8ABSrVPbyFGjLYIBHNPvhCjrHAuRjJbvUMMD3EyRICWYgCn0F1O4tl8yJW6A1aOI1xjj86itYPJgjjyTsXG496lLHPT6Vk9DVCMpKdcevHNVXJWPAJx61ZMmOpyPpTGIPIxmodmaLQqYLg89u4pi7ozx+verLkKCehB6UwqeT2NRYq5BqM/l2rSAdFzxzXLRyx8rMrb353CukDSSyyRFP3QXGc9ayZLTZC8iRAMP4Qck1vHRHPLVmMyCC5BjlxzU0scUilnmBxUY0+4kJbyXAzySOlTw6K8pwZ4l/4FzWhBXSODbjzOpols4AhZWB9s1PdaUlooZrhXz/CnWoVhg2/NvOe1MDPePcwVFHPcUG0lGcrgetXPKA6IRS/Z3boHx6ZpiMzY2cYp6xFunWrptXHRDzWlbaLatEJJ7varDPGBSckgSuYTW7rjpj60sduWzuYDH61qvoF4Q0kKB4hyp3DJFZjRuhIOQR2NMQ42ypw3foaYLdcnc2BSZPfNI2OcE0DFMKo4+YMPUVMVVSCi5HvRaWb3THZ8oUZJNWmlhjgaF9rMOvHekBHFdAIVZcZqYXREYjLkjsMVmMrY3bWC9jihVdvu5JHpRYdzSEwJ+Ztv1ro9LnEkWAdwGBkVxgjkMgRsgns1djo1otnp6DB82U5fP6Cs6miLhqy+o3Pn8OegqdUKk4xnvimpH0PP1NXF4UE4BHUCsOW+5vzW2GCPgHII9QOKesbRr6gmniMYyDz/ACqQ7h1G71qlElyIgC1Q3WI4ix49qshfmyRjPasnxDdeRCqg8twKqxLZkxaWl8ZGkGyQscEniq9zodzbuipskDd89KiS6bHUnJ6Chrlj/E351srmLsbNnpU1tCzvOFYjovSqTadc3E7MAc9jjiq8QuLhMoX2+pbAq5I0qlY3ZztGMxdvrSGMHh25kcEMhB+8cVEdBSOZjLkqvXHFaVjc6isZFuiyx56ynBFLqd/GbfyQys78Mw4xTuxWMtY7dXIhQIAMbj3pZWVFAwCfUGqoOeAxOBUXzZJ4x39qYA5k35HAq6ut3KII40UY4yehplrZ3F0rmFNyp1IOBVOY7XMbKdw4I9KLXC5ajurgO0ivtycnb0q9FfXPBD5HvWSj/L97biniYk4LnHbFFh3NR7qaT5nJOPSoXuZD/EarC6ZVx2pyM0hAQF2PYdaLCbHGeUdCfriomZmmBP3+3FWEsrtnA8sjPGGIq/bWLqwNy0caJzwec0xEEBu3URywNnPBK1pNcpGhSYADGORzT7m5lWQKJtkZXlmHNYL+WeI3Z2JyWbvUDLaQWjAlWwxOSW6VSu1UHK8mmkgMcg47Uzr95eTTsA62CmQCZcZ6EVt3Nkqx7y3CjhW4FYW0kgL19Cac4eUKskjleoBcmnYDZH2Fo1clC4HShriOQqySqm3+E1kMHQBQrYPQ4pjF0b5l5xmlYLmtPdh4yrRqxJwCDyaLVoxGyqQhPUE1iGR1GcDr60LGQfMaLb/tAUWC5buYEkuy802Qo+UKOtZcysJmJVtuegq08gYjG9sdhmiOfy/mRMMODuGQapaCZT/eHG0bR2zT3gl8reVHXt1rSiZ7+VI1SLcPfaPpUmqy3EWIZI441b7uGHT8KLhYyI7fzFA3EMTjBNSm3kifYRg+vrSC3mkVmjViqjJPQCoNz7gCTQBZa2bcAn3van3mm3VqqvM2N3qahUv1Un2IqcRPdIz3F2AU6B2Jz9KLgUyJhngNQonHVSF+lSi2k2b0zjvSmaQ2xjK5XOd3ei4WJrGQlzGG27+MhcmtB7dZCI5cxsg43fzrKs1Zp0ky+FOW2nBx9as32rLMPLW08odnZySaTQ0yE218HfYQUHT6VEReIhLqCeyjqavpqrx2yqSH5yV24P51Ue8Pm74w8ZxyCc0AUPPlY5CcntVyBmljx5Tjb1OOKksriCK6M00AkOPyqV76GGR/ssUihj0Zsj8qBEPkTiTb8oXrzV57XEcccS+ZK3LEdFqK3vYi7PODjHygf40n9rvGCIlCjPfrSuxkwsS7iN2AbHT0qWK0jRJI1kUTE4VsdKoJrEitl4EckYJ71cF5CsKTGMO4IO3OKLgS3GjGSMssm98YGax57CaEjKDk4+U5rShuoZ7mQxh4yVz8zdKjljumUGALkHC/40XCxlyWxVtrDBHrUXl4I2nGPeppUuPPxJGSSeeCc0yQHzNgCjtwaadwaJUuYopAZJyCOqquasvrdvGgESsxz0PArNePA+ZfxpHjeSIJHEFjHUgZJNFguaQ1e3kULNHIxJ/AU+5hOBJAjknkbh0NLaWry28EuInEbD5Rw1bY1JntZEeNYv4VULnJ9KWw73OcDySyxCS5zg5OO1LOYo8Qxhmzzhf4vqa17DRFmsWuPN2Mc7VABA+vvTkhVMtNDu4AUY5J9aVgvcy7y0ljhKxsqgKoPP44AqF57m7wHRI1HCk8An+tPulZZWYQtG4BOwD/ADmkumtzY2o3H7QoO4Drn3oDqOWeIgQzkSqAd3GMe1VLjUmZ/LgXaoOAF9PQUT28sduskkyqSMAdzUulWjK6TOoIOdrY6f7RoSG2VofLWUm7L5xyAM7frW/a3VgSS7o7AYXPt0AzUV/NcMkkAt4GU84z1H+cVn/YS4X/AEYA92OR/M8U7isy5JcW91PIZVaNMYXaCCPrWNIircMGkPlk4Gc5b61fl0yQKWNwibR90N/OooolmTygGuHJ+XyzjFJDZNAkM9kCoVXVwpdsHn8atPYxyq4cAZ+6UHI+tYz3LrEYkQAFtzZAOTV20u590cLRuqnknIBIpiGXVuk7pHHdK7KMBRxj3z3pLuN7SxhQOp38FQvI981qSmONnlhXEu3Awcn8zVGDWl3OLqPdu7nmkmNrqVbGwub5+P3cQ6sR1/xq1emCwjVIMGYn7x52+px0p51gR2yoIgOuAGwMfhWM2ZZDI2WJ5IFG4tjrbmF4RGZXAZuQcjDU2GOWZysbc9wTioTA0kDXEgYDd97HHP0qEmNXGGGCMgEVQjQkRIQN7b27hHUkfhmnWtv9qBKOq8Z2s1ZgmDKRjEndQM1MwGxfLimGTg7+fw46UAXprbycbmXGM/K2fxpQbaMq32je3XAQ8VnJGzOFRXVCfmydwFTmELEWwQO4PP4igC895algZNznpkDrQL2zB5ibHsMis9lxsO0Op6tnnPtTZ51gcxOjFmAII5BoA02v4E/5Znb2PGKtWt1ZzRu2WypxgdqxdPimub5UdlQ4JCsMjI//AF1pQ2SWsjC2kjkk43LwwU+hqWxov+UueDkEcEUzyoe7HNSm8mYCNbaFdw52vux+AFV1YzMouU8tt235TnH19KLhYkOIyrIm/nkH0pl9fmNc+RlB3YYxUd1YTLOrw3RK44UnH60xYJo7lxLcLIzDCoRgf560MW5ZgkSaBXZQhPbNSfL1yAO9U20qARxmWSUvnIYNwp9aY9hdZAa781mHVNoIFIZPNHDMQu8n2BxmkeRLdNqKz47Dk1NBpgjQCWcSSAcNjnNQW8fk3LxveLIT/ASMjv0oAr297mcQvHK/vtxxU1zerDMv7liDxiobq8MIK+RKp6BmGPyqk928kbSomUQYZjyFppWBu5oSanGqPHHAXbqCTkVl3LTSMWeQR/Q0pMT7QbgBycAFcVcn061jtkM1yBO3C4OQT6AdTT0QjEkxIu1pWkY8dKUWVyjIgjdi3IXqR+HatvTNDkmXdLCIwTlZNxDD6CujsNPhsVO0tJI33nc5JqhHL23hq9kwZHSMHu3J/KtnTPDyWUpmeTzZMYBIwBW3xS5psV2VmiIHSoxGSSMVdPNIFFQ4plqbRRkhKp05NQBGXIxWmw/Km+WrjpUumilU7mdOdyA4wQeahVQRhjjFaE1uAGA7ism8nW2jdnYLhcDPr2qJQdy1NWMnUtQltYS1vC+JHK7iOh+lZX9qSEk+SC3Q8kGtjTb62mtBINztEMPkck4pmoQW1yEngj2FhuyONwqk0Q7lBruaSIZZ1LHjFUyCWAw2c45reuI7JoIztG4EbgOD+VVjDYTzAhJoyo4CsMfrTTE0zMZdjMrbxjr8tMkZozxDISOoIxiukgSEhgjfv1IIO3k4+tNlgF6rSHc5IwVC7WHrT5hWMJJ1ZFKocGj7SrErlsjtit/+ybJljSOGXcq8qG202RrdZFS3gLhfkfA4HuWouBip5koxHG7D2WpI7GWVwrReWM4LP0FbCT2+nJ5cixyCc5JVssv5CsyXUmYyIgh8tsj5sgj0OaLgMurR7SEtJMFXOFUnlh6j2qn5cMmBvIPfI4qTcyMhUK5Qfx/MMdxzxip5LGaKISviJDyjKQx/T+tMRBJG80KQ7E2J0IUAn8ari1ij3eZGW47HGKt3YtURTDK7t33gD9aihungcSQkI54BPP8AOgLECxojhoyyc9+hqVbi0Q5ktI2PUHNJNuLlnkTcefu4/lSRTJE5LW8U+Rj5+gpgMubw3CFNiKuc8VUK7SdrFc+hqxKBLIxVUQf3RnA/M1EylR90H6CgBQkUkYbzW80H5sjtXaWIxBFnp5Y4/CuIkt5oQHaFlVj8uetd1oyNdWNsxGPkGTUTTZUGkadvCHUMRhafsQAhQW+lWljGAD0HapFUAdKfILnKSKVORwB2NSbgTwatFVYcikESY6Uclth89yq4rlvE06JcwrLnaVJ6e9dm0KkYrL1LRo7zDFUkK/wv/jRy2Yua6OLjksyBtZxLj7uMbh7VDJKkY3SLKmeA22t648OmM7bdgoHaTkj6U5ICG+zXZRh/CCmA3HOMinsLc59buEqUyy5GT6VdsopbwDyhIcnllU4ArVg02EDNnbIQCPmI3EGp7qZNPtnQgRuBkHado+mOKAKMpk0lIws42uCCjckH1rO+1xOWCJuOeeOaHu4Jrk+avnAj7qkqfwNQzR26qJcyxxsfl3jOfXkChASmKdnGyFxnoTjn8aEs7phlUPJwQcDNW1gv4YI/LBWJhkYUk/iOSKjufNtnMdxHGXwDnOTg0aj0EgF3bwSJGh56heait4kkvTHcHjjJzjNXZriSzjXytR8pMZCeQAP15Pelu1JtvOmcTtIRhhGBjNK4WGajaRoiKEjVVOQQ/wB4VWZLRrZmhZkuFOQpyQwqQXbW8agwQAEYHmLg8e2aja+LnDrHjH8L4/rTCyIAp8re0qFv7mCf1qQROp42gEc8YphjjnBCM3AycY6U+NCvypvJ9ME0xE0caLtZQN4PUGr1lcxYFvPCTnlXLZOff0qs2nTxBZJCVQjkjOV+oFXorKEpHLAvmrjDswB/HFJgijqS31uDJPLGIWIVQcEgfhWR9pZJGEJQgnAbb1966a6gDWyQtcSSmRs/IMLn6U+3jdEKDcjHA3ypt/kKSsGpyizXJVVUbiwyFAyTSo95ISsUbHacFcciupitXhug9x5cgx8hRSfyp1xbBozPJI0YI+6jY57UX1Gcm7zxnZ5LrIegwakMd/JGGWFwAP7vI/z611MMdvHJ9pw/mFADzuB/EnNRofteXDb8r+6gDBcnv0z+tO6FqcyzalbAKyudwyNoyD/9emL9rlciThsZCuQv8665bJyrNK/kkH5VAGT75xWXdabbTsyyyOZOisHBGf8AdxkfnRcRjqt95vlfZ5XJ4G3p+dW4LIzRF5meF842AHj8+tXBpE9hCkiXjrGAdxVs7mPTA6VPDBejzASZcqArAYofkCKUWmRGFmlmlVsHYoODx396qrZKwQrK+Dz83WtmOzmMLJNcSw5yPL6kj65OKzDE8MhRs7MkoS2SRnvTQEQsRuGHfI59aWC0jSYPcI82OcMeakUtywIABx1qQNz95aYiWaUSxmHyysZGNqNtqhHYLFP5pVnxyoZh19/WrZbaMgA+9NMxP8J496LAI9xNHbmMQCV2zhjjA9eBUTxl0XCeWAMYxxUplO0g5wfU02NicADr3xRYCEIFOCgOO4NRNGCwBJAz2PapyrD5d/60wqqLl2xzxz1/nQMjMQwVB69CRmklhdDtfhsZwy4NTo2JUlXa2zkDH/1+aiuZ7qa4zKqiMDCg5O0etAECXhglIEeNvQEZpiyPLvKoSV6+tX7eR1idVZCT93KZ5/XFWVtpjER9njRCN3mDGfy60mNGTEks8MkscLuifeYDpUe6PYC2Q3UKV7VqxzX1nbyLHA/LDkJnJ/yK0Fit50ha4tYkdwWwF2Dj1pJ3BqxiXUEtssfmxbQ6hlI5qB1MRzLHIhIyu5cZrp4rQz24W3+URjCN2IzzzVf7K0wBfUQWyRkknOO2KLgkYsckrBUSEPkZHy0l9bS20wSZdjkBgF5wK2oowwAlLrJ0G18j6k8/lUrb45gI4Jrg8Dc52jH1xRe4bGdbedmJHjREcbdw5JH8hWtFDFZoXbzNo/ibgZ+lJMqwDegQT4yCh3Ec5Oc1Tjs59SkFz5hGOo3DB9hnoaHrsHqWbm484AIFUYOQHzuH06isr7LazQKyLI0uD91S3etE60LUKkdkQQdgIbjjsOKtLqEk0axiQRyP1RDuIHckjpQByUiywOY5E2sDgqw5FNy4UgNtB7A1r6rZ7c3EbPJuYAAg8DHOayjhsnH4A1QhEmnhA2Oyj26VoaZLGZ3lu7sow4Q7c8461m7l6d6U46kED86AOmgu9tuYobuO4TPzMw2849B1qhczCIFZ7pvMwQMYAUn0ArPsoknuoozv+Zxwoz/9atufQSm4tKJVDcKEOfxqbFIzIDFHIrvM5UpmRs5/AfrVqRVt4RdG2lEDfx7cN7Z9qnMCxTB5lJUdAV24/wA+lT3dys9o4nYbWGF39AfUDuanmSK5WzInvkkx5MLRZyS55Jqyl7BLZGIwpFLgbtucOP8AGq0ETLOglQr5Z3B9pGV9e1XGfejyeTbhSxO8qVB9+vWhsS3K0UgZWCqd0SkAN3yfWrO/Dr5rIVAySDgewFU4Jd0oMlvAqDkkEnP05qI3W+6/dWsPPGGXj25qbNl81hbllllkKwllByGAJ/D3qCS9aMFR8rnrgYIrZtzLvwba1ZM8su44P0FLcRQs4ZoIkJyAepx71SJKMcVmLZS0ZEm0NvBJJPfj0qoWmdm8lCQ3U9//AK1aM9tEQGjSRi3G5eQPas2aNkctDECBwcqRT3Faxfa4ZWihSAg+/Aq02jK0G+ZI13c4wd1UrdhHEDFMyuzYZQThfzrduJpHswrlDMBwxOAah3Ww99znNStY7OUwKMqygg91FUI4gk33+ByfWr920k94ZDJsfA6cjiotgZgWmQt0ztq1e2pLR0k9mswIS6EgQ/dwWx9P8KSTT43cujRpGynmYn5ffr6+taLQWEcp3XTvHwVRS2Bj6GmSvpyuFZCXYgAsSSv/AH10ocktBpFG3WOS7IiaGbavz+WCqn8RyTVjUJ797bE8iwxOQNvIOPc8mrcU0vmBUaLy1HMhT5R+NVLmMTM0jXEtwH6LGgHH4/0pqwMqsbfeiJOrqo4PYewqvJexuWTIIB4VlNQG7eybyo7UgdN7IrsT2q/DqsjoFlT94pGd6rwPcdM0XsG5JaWs98FlcAWwYnczHnHbA/r6U27a2tHU28avKpzuLkgDPamXV1Ncv8ziOMdFBH49KqiD9595Xz12kE0CJn1W6lckThOc4RMcfU003UyymZZXBI67QCfXoKYwREYl8joecY5qD7QgXcF3K5wMnvQBYSeWKTzQWEhOd3Xk0972VnyZiS3H1qsboAxkKgyOSQOD/WpA3nNswo454GD+NAFiO+uFJPmE+u41Kb6VmjE1zwnK/Lz+dRC3Z1VDMSQOOelQXEDW5DNIHU8kbTkD8KdhcxfM8MhIkvJGzwVKcGlLxQHIa5aM8Djap/Wsw+WYypVsjv8Ad4/Hir9pbzPD8se6PGBuUAj8/wClSMmN5sCvHJO4XqGOCKlEcksoKQu8jLuLeaRge5FVWmubSIxmLYjA43Dj3xjiq/nKFAMincPmHPH19aLAW5TuVo5jEoB6iQsSahdBsGJlBHQpF1Hp1qqzoY8lyMHoG5P4dqZ5ayHqQB2zn8+KLAXIvs+CskbMWwMMo5P861dP06GW63PZqoj5RimM/pWIYbNcKZTv7Acf0rqLBFsrUAbizckscmmgNUgKtQqzSOR0UVBJers96nhO2Mepqrk2sSNx3qGWYoR3JNOZuaqPmSfjovWk2NIuhy1OBIqGPK49KmY5WhCYrSKMDue1AbHtUEfMpY8+lTtyKYDXwea4vXSJdSkR5tipjapUnNdlngiuX1qWNAZ3iD7SVLen6UmCMWOBkLMHcIerBaRWIOAGbb6DoKsq8M0G82+9WPCKCpH4imyW0GGKh4JSDtWU8EYz/IYqCxYkhaOTzGdXIzGAowfr3pUTB6547daS3gfz9jTKoIB3HgVYnmt7Zmhlc4bGCB049aYD7bazqPLIIxnHy5GPzHWr0k5luFhjwiJxlz69OmaalncGFHUBc7RtPp68etLq19brF5MaJvPXDYwe2fWptcBbl7yNA0LbtxIIQjKgdOtY9xKGX5URWxhl3HIIPoc1XdcAkyoCoyAozx9aQiZsM0u8N3zk1SQrjpVmkIaSIktzkk5wPwphgYoZU2KIgDhnGT7DnmkZZkSMtKrh+QobJHt9elEkMbPjGAe+4/8A6qYixAumSwRxvcMl7L1C5I5PGeMdKrySiOZobe6eYNwcIMH6ZPNPmMEkaj7NFG+fvpu4+oJIqPywYyoOCPWgZH5CsFKlOeORj86la1XzfJd0Ujo2Dj861luNNSL7MkGCRjdsJ59cmslERiQyYbooJxn86LhYDGFuE3L5oXBbBwMf0qW8uY7hI1WGOFRwdoAP59ah8nEYJ+VmOcEcD8fWliRuQY2IBwWVgRigCdLWzWASTMcnOFQ89fc0+301Y4xeojmMMdsbcsfQ+gqqLJ3dlXbu4K9z1q1dqbc7QXIyA4yM49MUCJ4bc3+rCMPhVUGUBenX/Guyt4Y4YlRFCqowAK5fwyJZGlmkPDH866oEKAapaITFlYImTxQjbhx0qne3AJRc8E1MJCqjApXCxY6dDUD3kcUwiY4ZugpoaT2rOv1/02GRuoFK40jcV9wBFKWxyarwSAoMGpsgjFUmIrahaC9tyisUYcqw6g1ys1zqVjJ9nk2lQcKXGfxBNdehxkZ6VT1e2S4snOAWUZBo0YbHLPqF67LJvEZHdBjP1ApJ9TurjAeYOCMEFRtP4VQEjINvr17UqXBAZEbarDBHqKVkMljcwyh4winGCQAMgVoRRvcWZ/fFVUMVQAY47DHSszap+8CO4weack08I2xPJsPY4OP0pNPoNW6kkV9cxbQJpOucBuvt7VdS/wDtFyHfTpFcDAdpzwO/PYUy3v50jW3gt2VSAMY5J9c1JfR3c1oYnjLqzbm3MMqfzoESTLbQyR3N3HHJG5AUGXf/AD7Vd+1adPfx7JFZgvKqcqew9qwVsmjszMoVXQjEWOT70sKq0waZ2Q5zsRcdPU0D0OhvLK2uBtkEao2AVUY6HOc1QbRtOhRZPKkcKxALD7x6Ywf0p1qba2UGS/Z3zuLMBj8AKH1pZWdPNWNUf5X2lt457dqSbG0hsdqscUktuh24K4ChSPwqhDZvbR+eipGSxAYkMT6461ctdZKvLNNJtP8ACu0nPt7UtzrFvN92IuuBubofwouKxWha8upQhYHOeC2AT+HNNknuLd2gyEwwJ2KOvrmm6jc2Z8r7CNjK2XY5BIx2qgHBkVS+Fzz1JFMRrWT3zTBzKiqpyAxCBhnnFWL2+8tFilCurHqku8gjBBPpVdbaR9kdpcsQ54BOMDHoKqX1kbWTbI4LPwrY6/8A16NALU94iqDBLhlwQFOST/8Aqqk167SHdJIQCcKDioleLepkcsARuwe3fAqTdpT5YS3EZXj54gR+hoskPVg97IVZSTk/Xj61Hbu4nRUcIx4DFugqIGIMxEwdcnJbjjp0psqwvt+8qydMrtyOmRTEaN+0sAI+1SS/3ieg/WqSJbytJJdB5WbhSjY2/XP8qgjKI6qJSyJ/AzHn2pGmiPzDIT0PT6UCLMYXYqRMWOOgPWpIpBGARFEGH8RGTVJJYQzNGpXjJPTBqS0uFlmCeXv9QOM/jQM1bA3l/PLvuohAp3PvAPXPAqnqU8cbqVjTg4O08bfTBrdgMENu3lW0DqOoK85+ves+e2gnh83yPKkkUrtVfu+/tSHYo+ZhfugE9MAULKW6vg+lQQREIpL7iOOwAp0gkZRkjA9smrIJmbnb1OetK/HDkqQOPeoFDldoYL3JzkmpYmEUZAXceR0pDELSI2Bux0Geaa5K5LDPc4+YH+tKuNuWbB9KST5yu1ue5xTEICDjBP8Au5/pSso6AZPqODTXaIDEjAkds80qYaIliCMf3u1AFi3gAZEkfy0kP3iw49e9XJtNt2iMtpdRzdBgEA/pWSqsww2dvbPep2FtAU+xM4kUfMwHDUncaRY/stnjLJKjSDouMH860dLlEGnbLmEg85xkMcHjpWKb6fz403oq7gWbByOa6KI2sk8ksVyrYGCpOQD7VOvUehTeTZL5tqcyDlYnJJ+nJqlPqbXV3HJPZPvQEBD0PrWlfXUTP5dvbo0nRpGGBx2zUVvKJlNvKhKKMYzkj34pW7DuQTPFdqA73MEf3doXcM9eME/ypsenWuS5vQCg4Zs5/FeOadMstostzafKCuAjsMqBnOMms6eO5uQs7HexXLDGCKEgLVvcW9rOwluFkgVSNiJ948d+1WhrlsZdpOxBjnaTn8BXPLukbYqjzDwFAqMkpneOh7jH6VVhXOln1i0mVkQHgcGRcD8M1Cs0P2iB4thJHzEOcL+X8sViecc4K8Y6EU7dIoHkt9FAyR+NKwXNt7vz7nfb+bM6nG7oB+dX0uMy5VhEQo+cE4rnLa9uLfcsreYWOSAeQaZc3glYYRExwQpyTRYLnRm5uJ1ZZbdXIbazBgB07jv+Fc1qUKwfvIlzGew/ho3TRLksUBGMFyMj6Cmx2wlA+b5Dxk8AfnTSsBUjkEjbQoB6kmrY0+VoUdeS/wDD0wPXn6VasFtYJHEqopbGHXnH55q/PbSERyQ3EcoyMLIoHPbnkGhsEipZtdJdC0LKoVAQE+79Sa0ZJZJUVYp/NUZ3eUGy3PTJ4xQba5uWw8qjt8pzTYvMth9nPzMp5Zn5I9hUsEU7yJ2nMsEcjQqcOiscA/hmpfMiEfm3MYbccDJOfwGP0qexmhkcyyHy3jPqQW+o70vmw3T+Y04j2sRt2gH86CiRbG2u0WWWIpnpukOT+FJ/ZNi82+Q5xwE3cVbFvDHGWX94xHVjms2a5sbYlZGckHKjqAe3FAhLizt0nfbC+D2Q4Wks/Ms0Yb44t3JGe30NSSX52qxi4I4K4B/EVF58F7cLbSptZuAXAP60DGQ31yqzSb4XjQ4wiAEn14piXWn3cDI7SROTn5+efY1d1bTXsrdUtQnk9CuOQax47OViHaFYgDkgng/hQBdC3zALAilMZ8zdxj8agn1G9t7k/Z8SRdCCMgmpp52dRk+WewTpiso3LxsVUn5TnbRYC9/acbYF1p0YYn7ygirdzBBNCJJo5iuMjBLUlqyXCCVBuYcnIJp/9qJuKqrMRwQoxTEZxsopYwbW3lXB5Ld6hm0u5RCyRYHoWqe71q5hfaI1VfQmqcmpXUwLl9q+goA6AadMzhyjoAOpPT8qmayWOMmKf94B1PT+dRuA4B3siD+8+ajaUqB5MfmHOFY9KYDHTaQtzdYRR0H8R74NTQ3O+5jjhhP2QMBJ2z7k9agOnXl3OmdiDOct0HFbENi0VuRLASQMFsjDD8KTfYaZHqFnbqso01XjlaItlBu+g79a599M1GYAPbyBiQRng8+tdhYRb4fLSR4dp4VWJ4/Gq8kU8EgMzPIvQBef/wBVFyepiQeGr/y97zLCR/Buz/KrMej38cBMy7vmHzI3UdzW+kknkF1QjPTdTGlYIqTOFRjwFbnFK47GJp+ixGRoZ2MbdVfGR36fpUkvhy2t3djK7QqM429/XIPNaJkVcIfMk28ZBBLfh2qd4lLIm4BWGSshyR9KExtHPWmlQSF5LiYzI3KiBdwHP55/lW+qWsaKnkDy1GACM4/CnmJdkeBhUP8Aq4vun0zSTXTRrHGlu07nILYBx9aBEUUFos+GiB55Y5A/wpt1o1tJKWjKxZOXZMA/Toc0yeK7FqzEpGwGCccAZzwPWqpubryozvaaMnBGAMe5ouFkXP7LtQjeSskbsMZbDE++KguHhdI0w8nlNnEmckjueeaiuNWkRhsbcwGCxGPyrNk1KdRiM+WD/cHP59adguWb5nmcy3HGR0PYVSKxgE5Qj8KjeUyHJkkLddzGkRQvzszMffmqJJNy4AA9+Kc9uBbJN5md5I8sPyuO5FM8wMBwc/SnO9uLSQsWMuQEUcCkMtaTbtcXSOYx5cZ+8RWxf3giwo5PTFY+lalBBblHcB+y+lM+1/aJ85HzHAqHq7FxsjUsy93cg4Iij6+5rWa42g+1VYglvbKBxgc1UjuxLciMHPeq2Qt2X5r3yYyzjFNt5WkhLL1bnNUNcnWO3we9Q2+pxwWihvSpuUkjZimYfKT0qy0uIWbOcCuas9VWd2wDya2YJN8Z9CKaYpRG29xIU80ng9q0YJQ6A1lzsILVsdBTtMnLpk9KEKS0Lk1wse4k4rLGxVV5DjJLcjOKp6jeqLmRGOMHrngCnyRDck4k+ZlIUg9sUSethJaAscGWaHEcj43EfLvx/k81PcQrc3lsrRZjIZiwONvAx+fSqMV1FLiNnXzSOpGOauW95JAgDIJGyANvAxS1uPSwybTFAKTyl1JIXYMFR2/nVeLTY4mEd0ouYR/q3bjHqD+lXZ9RgnmS1yCxbO1OSPrUsYSGcxTSAo3IG3PHpT1EQX17GLR40lTcw2qcZC+/HpXPyxoIvL+0+aWO4kLjn/Cty806GRHubSRZEzkooH6VlyRTORHtIyOMdqaQFU5QIRHwMncecijcfIH3T/dIPP5VI9otqjNPMRxwBUISFiu3YVI+8vWgBAGySTgZ5GODTvJR12qXXGWwBkD/AAp0MMCsF3sw7r2rTFlaJarJcStBHIcrtzg0AZC27s+UlwMdTUxJiTaVDN1GcgVoWptYWeNgJom5Dvw34VNYWUFwJHckRluAG7elFwKdlBZMDJfTtFzhY0Ukn371b/4lsM8ckUEjqhJJlYYPHpTdStrOFRHBCUZTnO8nIqG0haYsPlYIM+UO+fc0rjKbyIJGZPlUsThScAUPtdSxIY4J3AZxT90SyEBFPPY8L7UwlZC0cRVS2Rk9B70xEdosUt20kMx3Jzgnac+gx1FR6rFLLKr229wVAfc2SD9fTpU8NlIoBtJoHKjEmeM+2aRLa+lfKllix8+75VHsPWlsGhu+HAUtYgWzhTuPvmtWS4E0wiQ8d6yNJje2tXEjhhngjoKfp8yvdyvuwBwKL2Q0rsm1BW8+COPqW5+lX/O2nBPSqSzI1075ztGBWZqV86sRF+dJMbVzfilMuWB4FZ+rTbZIW98Gs/RdQmYGNlyc9adrMhM8KnuaL3HazNu1nDoCvarcc2Wxms6wx5ZAp0UmCTnkGhCaGajetBc7FOM1ZhkaSEqxzuWqOs2/m2wuE+9HyfpT9OnEkKkHpSvaQ7JxOft9AupLtvtCssSk/MG5PPaluPD10s7lHEsQGVZmwT7GuouRLLE2xYnUc7H/AIqoWNwJJZreYhRjds68dxVcxFupz++WKUxsVcocdeB7CnfaWYZOS2exq2bzTbW4kkFg75GFBOVznsKxp5DLcSSRL5UbHKoO1UBcNwFcZzx3FRtdtvJ3kDOetVACxO7Oe1IIyTjrRYC49xuU/Mc55FM88eWQcYP5iolRRyeDnpUg8occnvxQAGTzFAHUU3a4bkDn1NTRqC4YRMR2zSuioAZQQeuKBEA+U9sj0pDI34e1OaRcjC8ds1Hkv2pgBbJIbr60qDJGDj8aTGTzSrjcB3oEbkeIbaK5hOZD8oVm9Ov8qLi+hurALdxuZW3bCRwDzyDUthbZiiEDgtJndv5XHfFXtQ0y2khRUMgXqfL9fXpx3qEtdSmcbFZztIdwIUDkjkDt+dbIsrmS2CWqohYlQWPBHc0+GyBEtsXysmAAfvdetWI9I+ySf6TPK+zG1t+NoobAp6dpr2NzO9xGsuCArDkHrnH6VZurazuGie9uAjopUIqHA54qdrW3aUDzPNJb5Q7kKM+w61Nb6XZgYkt4yX5yexHpRcLGcdF0yFVlmErK3+1gD06c1WurHTlHlxQs3OAdxzmugaxbAUOgweHdd39apXtlDcRDfJ5ci9ZF43f/AF6bbCyMqWwtIIyIldXyNys2QcHNa9np1vanzAkUkcuCI2GSvB5B/KopbQxCExwxuq4PUsT+BHJrQkubKyCvI/7w8Af09qlN9WNpdEAkjk3Q2eYyoxleQKa5uvmRBGSq5yD/ADrNutVkiR2ggijLdwOT7mqsc2oLZNcqVMbdSD81PYViLCbWAAwGIH50zaD0A+hpiu21mZcHdk8YppmVZM7uO/tVkj168cewp5B3ZI3D3qHz0J+VvelEuUIBbHfAouFiTGTjbjnt0ppXAPWrNhbSXb88KOpNGpRC3lxGGKkZx1ouFiriMfeXJ+lEjqVADfL6YqeOCUwfaCoC+hPNQgIyhlHB9aAGYU5JHA55p2EZPvHHbtiowUBO5lB7Amkd1HORjuKLhYUJtzsAH1HNRyW5ZsuSxA45xUgYOAM/TFIZI0P3uaAEhSSZhFmdj2Qngn69q0EOq2siwoPNDDJyBlR7mqi3IADrJtYe9X01mBLVQ+93z8xUdaljK5luWnHmxbz1zwRmny3Op3cbJ5kcIOQFIwa0be5tJ1VmYgHnZ6/WnXFvbtKsjHbgcYPFLQepzem6fLeXe1mZAudx9KsXGmm2mEksyNGD95uufeuitri3aXy0KhsYCqP1pk4hj3CZkLkcAjNHNqCRzBNrHITLM0pbpsXA/M1E0sZz5KMhA/ibJrY+y+bGkvlxsVOQT2/CrU0NkyASwIrEYyOKoRiWNtPebmhePenJ3nrUksFysg86LZIw42IBn6Y4NXpoLazVTbeWWPc8kVPaTwu3mTz/ADR87e31ouKxiRo+X8zBdMEKycmpBJJdyrEGGPp0rWW7t3kP2h4pEByARzj60s15p9s4ktgiAj+EZJpXHYz1VoSEijC7v4mHP4Vfjj3yIYomldFG/d0+uKrRalbSzNLJhNhyPXPrUxv4XJYSEFu9Fx2LF3ceSpKptI5O3/CsQ39yHaRX2t3yozW2sieXlirE981UuEhYsX2/MPSlog3KEGo3K+YTscSHLAoOarRT+UzlQNzdz0q1O1p5BRUZJV5DDo1Z5Ic5A2Z7dqrcWxaS+lVNuwdedpxTJLjzryKWRCETjGaiQNnB4+tK64OWINOwFm+JuNoSZTg5wpqbTURPMWchg2MHriorSWN32mNERRyw61bsrK3lLTeeVOehpaBqPupWlVgHYgdeT0qvbzRFHjebLL93IJFaA8uMt5ZTJ71HOivbkeWu/HVRU2S2K5mUId0xIYhT2xzTmhMU4YRZOMbqs2enLEVlUsxPUHtRfyTI6iOHcooDcjJjt4V8ucrI3VSMVBcedcRbrYE7T8xFXNQLT2CFYwJU6gim6OHtnAnYeW/Jp2FeyKIso3QNdSFmI7dqeYYViZIlH41r6hFp8uGjYbx6d6qSW8EqBYjtkPpQBpzRQTk/Zim5ecE8Gn2bSSFlkRFx3FQwQvbMHaP6gVeMlqYiSCp9AaQdCOdZo282NkIA4FVG1S9Yld+D6AU+K1Zg0o347DOaoyxyBjhdv1oAmS8uosBCFx/d4qYalenjOT7Cq0ELSOo3fXNabWgiTMbEt3oAqNqt6mUJA9SRmqjmWRixcgnuDitu2s43jLSLub3qL7Kse5jjjoKNAuzOsd1s5J3yA9QvH61ZLESGWWZwp52g5NPGox24KmMOf9mqtr5l/cFC21D2oDUebp7hyIHkAHbd0q3Fpl2sHnCZwSMhdxGalj0yGy3sgZi3JqtqGrFY0ihJBHU0BckuEe1tA15OzFv4Ac4rBkmdmOGYA9qfPezT8SOSPTFQ7XY5yapITYp3sMndSKjHovHvTwp7saHVgBzmmIdBINrI0YGe5p4aJVwTz61W+YHJNJISF3E5PYUWAklnC8r0qo825vSnvHK67tpAqPYAOetOwEJYhs96lsJvJug7Hgc80ySPbz1qrIG9aTQXN6bWmkypbgVVi1IxXAkTrWLuYUCTBqXEtSOgvLt7xl3nr2qC6uNoEQPbms5LggZzyKhMpdiSeTSsFzfsJ4Y1A4zWtb6kI+CflrjFl28g1NHet908g1PKyuY66+1KN7PCnlulLpV5GkDBm5HNcndXLzbAmVVRinWsknKlzg9apRZPMrD75/tV7M4c4c5xRHHKAAXfA4608RpnkjNTK8fdqsgjEThsrIc9jTwJRn9434GpAwblSCKeFwBzigZBEJoiWWVhn0p7vcMf9axPqKkYhTzyad5nmNkjj2pAVw10udszDPXBxR+9/idj+NWWRetIUDEfNigdyCRjIPu/nTY12g9cetWym0gfeJ7U4pgFMAnvigRSEmxcDJoa4lYBWclR0BPSp2jVX+ZcECqs4CsDg4oGKolndIUbJzwPeny+fakweeQAeVWq6Sujh0ypU5BpcPOzO0mD1Oe9FguXLi9a6hjDxhRH/Gq/pVcMc7ldlJ64NQtI6rsDZU9hRhtucHA9KLBctJNGijLMQTyBTbm4GTs+VT29qihYJhzyQeBU7xiZN7cfSkIomV8YDFRnoKieeYrsMrlfTPFWHtJfKMoH7sHrVXYTT0C5sWWoCPTfKz8wPNVftrqTscjce1ZpDqcDqakkguIlV2Q80nG4+Y3pb1reNAp5IyTVGfUA/wBazZbuRxh6jDA0uUfMb2l3qxycnAzWjqUgklicc+lcoJNv3TitOC8MiRhj0pWsO5rvfvbREqefSmafeucs56nNYd9cl5cA8Co0vGjXANKz6Dud6LqKaykXIzt6VzlpqHkfKGwM1lxanKAdpOcYqC3jmeXcw60+VvcV0tjfTVy+qqOSjLtIFTPcQwwPcMh3PkK7dfas7TrVVn+0SkhY2AJXt71qayYf7MMaDlWBVm/ip21JuYJmYnklvrTlBfqcVWUvkjqas+VKse/bgeuaoQ51VANucmmRpvJwQCOeaRSGB3ZBFDsIyCR16GmA8Rsc96sQptHzsPpVVZT24pSxY8mkBotMVTEUhB78VT2tu3OS2fXmiKYxg8A/WnteNgAgYFAEbKJGztA+gphGPwqQ3jE4wBnvSxwqzZd8CgCEg4yKVMZ9KtNDbkEK5BFVEBJweKYjfsYy9sRAdj5Byelan2dIgJZ7kgn+EH5aqaEiy2pEhzwVx7Vde2GRCo3AD+KoKuVGvrB5CqyKZAeDjvWRfakLhHURuCwwSTVrUrJrSFFjjAy2S1Uz9nbO5vm7iiw7j7PWDb26QvCrqvQt1qd9c4Bjj2Y59ayiiyHavY8VZ8lcBT6UWQXLR1+eRsj7uemKaNXQMzfZw0jevSqogWMZPSniJCOgp2FclfVp1YsQAvZR2qsb/e4Z1EhByM9jS7EyMc49aQxjOcCiwE6akTJudBsJzjFSy3rOP3KIqemKpBS3AFLscDjNFgKt2lw53F8Z6AVXit28w7xncMc1pLbyMBkE+lOELswXafrTERixKqucMccYqW3WOJsSNgegqwIZI8Eg4FRSQk87OaQG7brbmHegGD6VHIbVQZZApx61i5mVMKxAHYVDtWR1WQsQT0zQM2bhrWW2EiYxjpmsa6s3iQOMGNuRg0+SJEbbzt9KGWIKAGY+xPFMRkzxjcMDNSRStGp2gHIwQRWqmnwvgs2M1KdJiAyr9fWgDCQ7CSo2/SmMAzFjyT3rb/seV1OwioH0maIAnBHegDK8oc4OackbAYPQ1Za3O/AGTQYXj5I4piIdpB4LZpcOy8u/0zViLyGU73KntVdpEViAePWkPUaiNCwkVnVh0bPNOknlY7mYvnvml8zenqKbtYfdBxTAYZHXozY9M0scs0sqoGZmPABNSHC84zUaMqyBxwwOQRSAv3GmXdtbGSVVweozzWYVOflPWrt1qE92gR5CQKjt7hII2BQMx7mgCsUbIB6mr0mkSxwCXIbvioIpPOl2the4pbm6njITzTgUAVym1vmprDnjpTjIXJJGfWgOmOaAE54wzD6Gtaz1Zo9qPFGyjgk9azFZOpHFKzJ2oA6UXsE0e/yoyo46c1IsNg0e8ohDVgabavduwVyqjqBWwyRpGItuNvcVL0GrMqXtlHCQ8Q3Rt+lV2sAyg7gAa0mjMkQVDms/UEks9hLHB96dw0IWt/LUxqy59fWjzJVj8sKtViyyHcCQadls8tkUxAqysCwOCDyM1pWcrTyLErAMOuaz1RTkh8NTQ5jbI4b1FFgudRHCVkIEgz3Gary+czsqL071hJdzKxYOSfXNWotRdT8wJ980rDuaItrgbt5BVh0NPS1hjh2OMn61RvtTLQqsRO72rO866dxuZuPekM1byGFVBQhTUNnL9nRi4LsehpA+6H5lJPqaksACT5hA9jQI6GaNrhgynavpSRWyqCGUH3pkq3G1VVtoFTbxDD8xJPrQA5SqfKGwPSoZ4A5zxt7mo023TYRsGrTCKOMxyuCfekNlaGG3VwQRU8jqv3CKyL9wsZW3Y59BU2lxzsoabr6Uh6EsuoNHME6jvgVUuLe5uZtyu4iPJFbCQQtncozT5Zo4QASMCgRmw6ZFsJlJBPaoICum3DMFLA9Ks3Wpqxwi9KoySPcN81WkxXsW7jUpLhCPuKe1Z+0E9M1YSAEcmowu1yPSnsSRi3B5PFL5aipGJPSmgE0wEZYwBUbbc4XpUu0EHPNMaMYoAglKg5qPKEZzg1fg08TgktgVVltljlK9cUCIxyMF+Kiki6DdkVP5K56U54cKMKQKdx2Kvlr2pjW4PUVaEfNOCb22oPqaQzNe0XBNUVtZpXIijLfSuoi09pm+QZUdan+SByEQIAMdOTUuVgsccLWcvsEbbvSkkt5Im2upU+9doxCBXiiGT3pl3DDdQlWTDnvQpCaORS3LLuPSrMMBDLsTJNbX9j7ojsYLgcAU2ys5oJsyDJ7UXuOxmyK8W5ZUC8ZGahUuQSqcVvX9mLzaG4bPWnT6TaWsSeXK0jsORnNO4WMZoJooVn2l0Yc47VHAd+WKcCuh0+Fggicfux61pfZraCBgka5PPSlzBY5hYJW27IH+Y8VYvLK6tLdZ5MYPVfStyOS4LRoI1A9u1XZI4pMRS/vGPJFK47HFRyTSyACM/U1atVubqcW8cQB/vHpXS3Fgjr8ihCKrSqtkodThvancCvdWS2trGHIabPJFVVRS2TTbmaS5l3seB0FQoz7sdqYi55aknFNMGMkHmmK5UUolYg0ABgHVjk0zylI+YU4yGmM9ACGKMg4Uc0xrdXbJWpVYZ+anl1pgVBaKO1TEkWxhCAKe9SO61EZKQEH2dQKcsWFxk7aeVLcL1NJLDNagByGDehpiGyRnyvK8w+X1xUVukULFnXd9am3gpyDUW7PGOKLBcddJHdRPLCm105FY8t3cPwx/Suhs1KBozG3z8ZxV2HSUSRgI+SO9Qnbcp+RxDZJ5603BFdc/h9IJmdl3Bug9Kp3OlSzXHkLGFAGcgVXMibHO09ZWUYBrUuNEuYsYTj1qvPpdxBglcg9xTugKRZj3oUZPNX4tKnkiMgGADg5rds9BiQKT85Yd6TaQWZzKHB4qwk0rgIvXtiugudHtIjskXa5HBo+wW6WQWKPMgOdw60uZFWZHo9lMhd7gnaBkpnrUOtast7sijiKJGeM961rKWS3RpZw2AuMGucvJxcXLyBMAngUlqxvQVLyJUH7v5j1NEt1EwAVicdqgKg0LEM5xVkFh5ozHuC84qs8jyEZ6DpUgQ4xjil2cgUAMGeKkwzc9KckY3AVc8hdvBoGVBnHNBUkCpnhAHWmqoz1pAOWwnIDLGzL1yBUL5RiGyCOxrZTWWitxEqAkDGSayLgmWUyNwT6UAJ5gI6UBqZtqZIxt5piNrR5JI4chWIY8Gtq2klaQvIowBxWJpO8gRb8J1xWvIyJGQZdpHfNZtpMtXM/Xr1iFDDapOMVkE2+Dk81r3VuL61KlwTnhqqRaD+7OZMk98UegadSlH5QkAHerEmzbkdq0/wCxLWO1LHPmgcHPNZH9k3zIGYjBp6i0EaeNht3AGmPOB90FvXFMm0W4LqEOcnk+la1roJgiwZCSfWmF0YtxdogXA570xNUReGXNbN1pqg4kQMPUVSbS7dhwoz6YpXHYqDVgGO1OKmj1hncIsJb2FXLOwhjwhjyTWtBp1vaSBygy1F0LUwJ9adWCrEVYdQRTG1S7KbxCQB3rWvhD9o4hBb1AqC6ilMOI41x3FPQRmf8ACQSmMoyZqSxvrm6chEyo65q7a6fujMhgAPuKJLea1HnQpj1xQBFNd+Uc7fmHUVXe7WVkkKbVBrTskjny8yDJ4PFZ+rxrC3loo2ml1GLdXSsMx+lZr+Yx3F8H0q/pyW5GZj09TV28it5Yf3AXIqtCb6mFib/noant7ySNsTuWHaoiSpKnqKayb+oosO5rpq+2Mqmfqapm9uHBBl69qjtoUOQ7c9qYVCOQfzosgLMVwIo8/eY1C7S3Um2Lr6U9bcSLkcCpYYWhfclAE9no0pAMhBHcVcj0GGSfJGQO1U1vbuPKhgRVi31OaA5bkmgC3d6VBBESigEdsVTiheSEhYgPwqaS9luSCRx6VHJfSIPLSM0gMySykjLFuh7VTi06a5nKwnj3rf2+bERKNpPtTY4ltxvjbDCgZgPaXVtP5LRkt2xUx0m+MZlaPgc4HWtdxc3MqyjB2nqamWS+aTaGAXGCMUXA5ba+4HGCOoq+ltHJHvkbmtebS43Jkbhj1rPksmkcKhwKLgVpo0Ef7sim2drHdIQDhx2rSbRgEU7znvV6G1tIYsKNsnrSAw3sZWGxVAxSpp/yFZDtNakkc27K8ipRbPKnzLg0wKukwizctvyDV268t42Ktg/WootPcZLNgVXurYupCuQR70mNWCyfDEMw61PqIjntmDDJHQ1QtLSQv3x61orb4GGfIoegjmUUpkYzU8cchGcECtl4bYN8uN1TQ20bqRwM+tO4WOdOQ2D1prE561dv7BoXZgcis4GmIlBzSkkHrUQbFKXzTETxsFbcRmtC1nhY5fFY4enb+KBnRyXMG0KgFVpLIS/MH2/SsaOQq2c5qWS+lYbRxU2C5//Z;" vertex="1" parent="1">
          <mxGeometry x="370" y="1610" width="1024" height="640" as="geometry" />
        </mxCell>
        <mxCell id="OH8x0ckIfO6NYU9lgbXt-34" value="" style="rounded=0;whiteSpace=wrap;html=1;fillColor=none;strokeColor=#CC00CC;strokeWidth=6;" vertex="1" parent="1">
          <mxGeometry x="480" y="1735" width="410" height="480" as="geometry" />
        </mxCell>
        <mxCell id="OH8x0ckIfO6NYU9lgbXt-35" value="" style="ellipse;whiteSpace=wrap;html=1;aspect=fixed;fillColor=none;strokeColor=#CC00CC;strokeWidth=8;" vertex="1" parent="1">
          <mxGeometry x="670" y="1960" width="30" height="30" as="geometry" />
        </mxCell>
        <mxCell id="OH8x0ckIfO6NYU9lgbXt-36" value="" style="endArrow=none;html=1;rounded=0;strokeColor=#3399FF;strokeWidth=4;entryX=0.508;entryY=0.406;entryDx=0;entryDy=0;entryPerimeter=0;" edge="1" parent="1">
          <mxGeometry width="50" height="50" relative="1" as="geometry">
            <mxPoint x="684.5" y="2000.08" as="sourcePoint" />
            <mxPoint x="684.692" y="1949.92" as="targetPoint" />
          </mxGeometry>
        </mxCell>
        <mxCell id="OH8x0ckIfO6NYU9lgbXt-37" value="" style="endArrow=none;html=1;rounded=0;strokeColor=#3399FF;strokeWidth=4;entryX=0.508;entryY=0.406;entryDx=0;entryDy=0;entryPerimeter=0;" edge="1" parent="1">
          <mxGeometry width="50" height="50" relative="1" as="geometry">
            <mxPoint x="709.9" y="1974.5" as="sourcePoint" />
            <mxPoint x="660.092" y="1974.5000000000002" as="targetPoint" />
          </mxGeometry>
        </mxCell>
        <mxCell id="OH8x0ckIfO6NYU9lgbXt-38" value="&lt;font style=&quot;font-size: 18px;&quot;&gt;(x;y)&lt;/font&gt;" style="rounded=0;whiteSpace=wrap;html=1;" vertex="1" parent="1">
          <mxGeometry x="580" y="1920" width="90" height="40" as="geometry" />
        </mxCell>
        <mxCell id="OH8x0ckIfO6NYU9lgbXt-39" value="" style="endArrow=classic;startArrow=classic;html=1;rounded=0;strokeWidth=6;strokeColor=#0000FF;" edge="1" parent="1">
          <mxGeometry width="50" height="50" relative="1" as="geometry">
            <mxPoint x="684.5" y="2215" as="sourcePoint" />
            <mxPoint x="684.5" y="1735" as="targetPoint" />
          </mxGeometry>
        </mxCell>
        <mxCell id="OH8x0ckIfO6NYU9lgbXt-40" value="" style="endArrow=classic;startArrow=classic;html=1;rounded=0;strokeWidth=6;strokeColor=#0000FF;" edge="1" parent="1">
          <mxGeometry width="50" height="50" relative="1" as="geometry">
            <mxPoint x="485" y="1974.5" as="sourcePoint" />
            <mxPoint x="885" y="1974.5" as="targetPoint" />
          </mxGeometry>
        </mxCell>
        <mxCell id="OH8x0ckIfO6NYU9lgbXt-41" value="&lt;font style=&quot;font-size: 18px;&quot;&gt;h&lt;/font&gt;" style="rounded=0;whiteSpace=wrap;html=1;" vertex="1" parent="1">
          <mxGeometry x="680" y="2010" width="50" height="40" as="geometry" />
        </mxCell>
        <mxCell id="OH8x0ckIfO6NYU9lgbXt-42" value="&lt;font style=&quot;font-size: 18px;&quot;&gt;w&lt;/font&gt;" style="rounded=0;whiteSpace=wrap;html=1;" vertex="1" parent="1">
          <mxGeometry x="730" y="1935" width="50" height="40" as="geometry" />
        </mxCell>
        <mxCell id="OH8x0ckIfO6NYU9lgbXt-43" value="" style="shape=flexArrow;endArrow=classic;html=1;rounded=0;strokeWidth=6;fillColor=#6666FF;" edge="1" parent="1">
          <mxGeometry width="50" height="50" relative="1" as="geometry">
            <mxPoint x="830" y="1560" as="sourcePoint" />
            <mxPoint x="830" y="1610" as="targetPoint" />
          </mxGeometry>
        </mxCell>
      </root>
    </mxGraphModel>
  </diagram>
</mxfile>
